<svg width="58" height="58" viewBox="0 0 58 58" fill="none" xmlns="http://www.w3.org/2000/svg">
<rect x="9.90381" y="29" width="21.9883" height="21.9883" rx="3" transform="rotate(-45 9.90381 29)" fill="#F9BB08"/>
<path d="M9 19.5V6.5L7.5 8H50.5L49 6.5V51.5L50.5 50H41.5L43 51.5V35.5C43 35.1022 42.842 34.7206 42.5607 34.4393C42.2794 34.158 41.8978 34 41.5 34C41.1022 34 40.7206 34.158 40.4393 34.4393C40.158 34.7206 40 35.1022 40 35.5V51.5C40.0052 51.8962 40.1649 52.2747 40.4451 52.5549C40.7253 52.8351 41.1038 52.9948 41.5 53H50.5C50.8962 52.9948 51.2747 52.8351 51.5549 52.5549C51.8351 52.2747 51.9948 51.8962 52 51.5V6.5C51.9948 6.10379 51.8351 5.72526 51.5549 5.44507C51.2747 5.16488 50.8962 5.00518 50.5 5H7.5C7.10379 5.00518 6.72526 5.16488 6.44507 5.44507C6.16488 5.72526 6.00518 6.10379 6 6.5V19.5C6 19.8978 6.15804 20.2794 6.43934 20.5607C6.72064 20.842 7.10218 21 7.5 21C7.89782 21 8.27936 20.842 8.56066 20.5607C8.84196 20.2794 9 19.8978 9 19.5Z" fill="#050038"/>
<path d="M16 35.5V51.5L17.5 50H7.5L9 51.5V29.5C9 29.1022 8.84196 28.7206 8.56066 28.4393C8.27936 28.158 7.89782 28 7.5 28C7.10218 28 6.72064 28.158 6.43934 28.4393C6.15804 28.7206 6 29.1022 6 29.5V51.5C6.00518 51.8962 6.16488 52.2747 6.44507 52.5549C6.72526 52.8351 7.10379 52.9948 7.5 53H17.5C17.8962 52.9948 18.2747 52.8351 18.5549 52.5549C18.8351 52.2747 18.9948 51.8962 19 51.5V35.5C19 35.1022 18.842 34.7206 18.5607 34.4393C18.2794 34.158 17.8978 34 17.5 34C17.1022 34 16.7206 34.158 16.4393 34.4393C16.158 34.7206 16 35.1022 16 35.5Z" fill="#050038"/>
<path d="M32 35.5V51.5L33.5 50H23.5L25 51.5V35.5C25 35.1022 24.842 34.7206 24.5607 34.4393C24.2794 34.158 23.8978 34 23.5 34C23.1022 34 22.7206 34.158 22.4393 34.4393C22.158 34.7206 22 35.1022 22 35.5V51.5C22.0052 51.8962 22.1649 52.2747 22.4451 52.5549C22.7253 52.8351 23.1038 52.9948 23.5 53H33.5C33.8962 52.9948 34.2747 52.8351 34.5549 52.5549C34.8351 52.2747 34.9948 51.8962 35 51.5V35.5C35 35.1022 34.842 34.7206 34.5607 34.4393C34.2794 34.158 33.8978 34 33.5 34C33.1022 34 32.7206 34.158 32.4393 34.4393C32.158 34.7206 32 35.1022 32 35.5Z" fill="#050038"/>
<path d="M41.5 34H33.5C33.1022 34 32.7206 34.158 32.4393 34.4393C32.158 34.7206 32 35.1022 32 35.5C32 35.8978 32.158 36.2794 32.4393 36.5607C32.7206 36.842 33.1022 37 33.5 37H41.5C41.8978 37 42.2794 36.842 42.5607 36.5607C42.842 36.2794 43 35.8978 43 35.5C43 35.1022 42.842 34.7206 42.5607 34.4393C42.2794 34.158 41.8978 34 41.5 34Z" fill="#050038"/>
<path d="M23.5 34H17.5C17.1022 34 16.7206 34.158 16.4393 34.4393C16.158 34.7206 16 35.1022 16 35.5C16 35.8978 16.158 36.2794 16.4393 36.5607C16.7206 36.842 17.1022 37 17.5 37H23.5C23.8978 37 24.2794 36.842 24.5607 36.5607C24.842 36.2794 25 35.8978 25 35.5C25 35.1022 24.842 34.7206 24.5607 34.4393C24.2794 34.158 23.8978 34 23.5 34Z" fill="#050038"/>
<path d="M41.5 42H33.5C33.1022 42 32.7206 42.158 32.4393 42.4393C32.158 42.7206 32 43.1022 32 43.5C32 43.8978 32.158 44.2794 32.4393 44.5607C32.7206 44.842 33.1022 45 33.5 45H41.5C41.8978 45 42.2794 44.842 42.5607 44.5607C42.842 44.2794 43 43.8978 43 43.5C43 43.1022 42.842 42.7206 42.5607 42.4393C42.2794 42.158 41.8978 42 41.5 42Z" fill="#050038"/>
<path d="M23.5 42H17.5C17.1022 42 16.7206 42.158 16.4393 42.4393C16.158 42.7206 16 43.1022 16 43.5C16 43.8978 16.158 44.2794 16.4393 44.5607C16.7206 44.842 17.1022 45 17.5 45H23.5C23.8978 45 24.2794 44.842 24.5607 44.5607C24.842 44.2794 25 43.8978 25 43.5C25 43.1022 24.842 42.7206 24.5607 42.4393C24.2794 42.158 23.8978 42 23.5 42Z" fill="#050038"/>
<path d="M24.1 29C28.01 30 32.53 28.36 34.26 24.56C35.0453 22.7799 35.1469 20.7728 34.5455 18.9224C33.9441 17.0721 32.6818 15.5083 31 14.53C29.9621 13.924 28.8139 13.5306 27.6225 13.3726C26.431 13.2147 25.22 13.2954 24.06 13.61C23.7063 13.742 23.4149 14.0016 23.2432 14.3378C23.0714 14.674 23.0319 15.0624 23.1323 15.4263C23.2327 15.7902 23.4657 16.1033 23.7855 16.3039C24.1053 16.5045 24.4887 16.578 24.86 16.51C25.7445 16.2576 26.6759 16.2166 27.5792 16.3903C28.4824 16.564 29.3322 16.9476 30.06 17.51C30.6504 17.9566 31.1292 18.534 31.4588 19.1968C31.7885 19.8596 31.9601 20.5897 31.9601 21.33C31.9601 22.0703 31.7885 22.8004 31.4588 23.4632C31.1292 24.126 30.6504 24.7034 30.06 25.15C29.333 25.7139 28.4831 26.0983 27.5796 26.272C26.6761 26.4458 25.7443 26.404 24.86 26.15C24.5107 26.123 24.163 26.2192 23.8772 26.4218C23.5914 26.6243 23.3855 26.9206 23.2952 27.2591C23.205 27.5976 23.236 27.957 23.383 28.275C23.53 28.593 23.7837 28.8495 24.1 29Z" fill="#050038"/>
<path d="M21.34 28.94C21.6999 26.0487 21.5202 23.1157 20.81 20.29C20.3797 18.1323 19.3059 16.1555 17.73 14.62C17.04 13.988 16.1563 13.6083 15.2228 13.5429C14.2894 13.4775 13.3614 13.7303 12.59 14.26C10.9138 15.6358 9.75389 17.5395 9.3 19.66C8.46642 22.8485 8.30298 26.1752 8.82 29.43C8.93787 29.8045 9.19695 30.1183 9.5423 30.305C9.88766 30.4917 10.2921 30.5365 10.67 30.43C11.038 30.3059 11.3455 30.0473 11.5309 29.7061C11.7163 29.3649 11.766 28.9663 11.67 28.59C11.3309 26.2627 11.3985 23.8942 11.87 21.59C12.0509 20.6645 12.3257 19.7598 12.69 18.89C12.8507 18.5235 13.0378 18.1693 13.25 17.83C13.3941 17.5624 13.5797 17.3194 13.8 17.11C13.9092 16.9923 14.0261 16.8821 14.15 16.78C13.92 16.97 14.31 16.68 14.37 16.64L14.53 16.56C14.3 16.63 14.73 16.46 14.53 16.56C14.5861 16.554 14.6405 16.537 14.69 16.51C14.84 16.51 14.85 16.51 14.69 16.51C14.8231 16.5 14.9569 16.5 15.09 16.51C14.79 16.51 15.09 16.51 15.2 16.51C15.54 16.59 15.13 16.44 15.34 16.57L15.56 16.7C15.8 16.83 15.49 16.63 15.62 16.7C16.1431 17.1199 16.5637 17.6534 16.85 18.26C17.2867 19.0587 17.6226 19.9085 17.85 20.79C18.5239 23.4213 18.6868 26.1574 18.33 28.85C18.3326 29.247 18.4915 29.627 18.7722 29.9078C19.053 30.1885 19.433 30.3474 19.83 30.35C20.2246 30.3399 20.6003 30.1786 20.8795 29.8995C21.1586 29.6203 21.3199 29.2446 21.33 28.85L21.34 28.94Z" fill="#050038"/>
<path d="M26 28.21V14.79C26 14.3922 25.842 14.0106 25.5607 13.7293C25.2794 13.448 24.8978 13.29 24.5 13.29C24.1022 13.29 23.7206 13.448 23.4393 13.7293C23.158 14.0106 23 14.3922 23 14.79V28.21C23 28.6078 23.158 28.9894 23.4393 29.2707C23.7206 29.552 24.1022 29.71 24.5 29.71C24.8978 29.71 25.2794 29.552 25.5607 29.2707C25.842 28.9894 26 28.6078 26 28.21Z" fill="#050038"/>
<path d="M37.1 29C41.01 30 45.53 28.36 47.26 24.56C48.0453 22.7799 48.1469 20.7728 47.5455 18.9224C46.9441 17.0721 45.6818 15.5083 44 14.53C42.9621 13.924 41.8139 13.5306 40.6225 13.3726C39.431 13.2147 38.22 13.2954 37.06 13.61C36.7063 13.742 36.4149 14.0016 36.2432 14.3378C36.0714 14.674 36.0319 15.0624 36.1323 15.4263C36.2327 15.7902 36.4657 16.1033 36.7855 16.3039C37.1053 16.5045 37.4887 16.578 37.86 16.51C38.7445 16.2576 39.6759 16.2166 40.5792 16.3903C41.4824 16.564 42.3322 16.9476 43.06 17.51C43.6504 17.9566 44.1292 18.534 44.4588 19.1968C44.7885 19.8596 44.9601 20.5897 44.9601 21.33C44.9601 22.0703 44.7885 22.8004 44.4588 23.4632C44.1292 24.126 43.6504 24.7034 43.06 25.15C42.333 25.7139 41.4832 26.0983 40.5796 26.272C39.6761 26.4458 38.7443 26.404 37.86 26.15C37.5107 26.123 37.163 26.2192 36.8772 26.4218C36.5914 26.6243 36.3855 26.9206 36.2952 27.2591C36.205 27.5976 36.236 27.957 36.383 28.275C36.53 28.593 36.7837 28.8495 37.1 29Z" fill="#050038"/>
<path d="M39 28.21V14.79C39 14.3922 38.842 14.0106 38.5607 13.7293C38.2794 13.448 37.8978 13.29 37.5 13.29C37.1022 13.29 36.7206 13.448 36.4393 13.7293C36.158 14.0106 36 14.3922 36 14.79V28.21C36 28.6078 36.158 28.9894 36.4393 29.2707C36.7206 29.552 37.1022 29.71 37.5 29.71C37.8978 29.71 38.2794 29.552 38.5607 29.2707C38.842 28.9894 39 28.6078 39 28.21Z" fill="#050038"/>
<path d="M10.41 23H19.55C19.947 22.9974 20.327 22.8385 20.6078 22.5578C20.8885 22.277 21.0474 21.897 21.05 21.5C21.0423 21.1046 20.8818 20.7275 20.6022 20.4478C20.3225 20.1682 19.9454 20.0077 19.55 20H10.41C10.0122 20 9.63064 20.158 9.34934 20.4393C9.06803 20.7206 8.91 21.1022 8.91 21.5C8.91 21.8978 9.06803 22.2794 9.34934 22.5607C9.63064 22.842 10.0122 23 10.41 23Z" fill="#050038"/>
</svg>
