<svg width="58" height="58" viewBox="0 0 58 58" fill="none" xmlns="http://www.w3.org/2000/svg">
<rect x="15.5355" y="26.2033" width="21.9883" height="21.9883" rx="3" transform="rotate(-45 15.5355 26.2033)" fill="#F9BB08"/>
<path d="M17.4345 44.8758L22.6245 38.8158C22.8122 38.5332 23.0376 38.2775 23.2945 38.0558C23.3715 37.987 23.4712 37.9489 23.5745 37.9489C23.6778 37.9489 23.7775 37.987 23.8545 38.0558C24.0745 38.2558 24.0245 38.5658 23.9845 38.9258C23.9845 39.0358 23.9045 39.6058 23.9845 39.2058C23.9845 39.3758 23.9845 39.5458 23.9045 39.7158C23.8245 40.2258 23.7145 40.7158 23.5945 41.2258C23.2679 42.5418 22.874 43.8402 22.4145 45.1158C21.6945 47.1858 20.6745 49.9658 22.3445 51.8458C22.627 52.1243 23.0078 52.2804 23.4045 52.2804C23.8012 52.2804 24.182 52.1243 24.4645 51.8458C24.7383 51.5609 24.8912 51.181 24.8912 50.7858C24.8912 50.3907 24.7383 50.0108 24.4645 49.7258L24.5445 49.8358C24.4645 49.6858 24.4545 49.6858 24.5445 49.8358C24.5445 49.7758 24.4745 49.6058 24.4745 49.5558C24.4745 49.7858 24.4745 49.1358 24.4745 49.0458C24.4875 48.6303 24.5479 48.2177 24.6545 47.8158C24.9245 46.7558 25.3745 45.7358 25.6545 44.6858C26.0613 43.4702 26.3953 42.2313 26.6545 40.9758C26.8814 40.0638 26.9857 39.1255 26.9645 38.1858C26.9079 37.5044 26.6517 36.8547 26.228 36.3179C25.8044 35.7812 25.2319 35.3811 24.5822 35.1677C23.9326 34.9544 23.2344 34.9372 22.575 35.1182C21.9156 35.2993 21.3241 35.6706 20.8745 36.1858C19.9245 37.2558 19.0045 38.3658 18.0745 39.4458L15.2745 42.7158C15.003 43.002 14.8516 43.3814 14.8516 43.7758C14.8516 44.1703 15.003 44.5497 15.2745 44.8358C15.557 45.1143 15.9378 45.2704 16.3345 45.2704C16.7312 45.2704 17.112 45.1143 17.3945 44.8358L17.4345 44.8758Z" fill="#050038"/>
<path d="M22.6745 33.0558L13.6745 18.0558L13.1345 20.1158L30.1345 10.1158L28.0745 9.57583L41.2345 34.9958L43.0745 38.5758L43.6145 36.5158L30.6145 45.5158L32.6745 46.0558L29.6745 42.0558C28.5245 40.5358 25.9145 42.0558 27.0745 43.5758L30.0745 47.5758C30.2822 47.9139 30.6123 48.1587 30.9961 48.2593C31.3799 48.3599 31.7877 48.3085 32.1345 48.1158L45.1345 39.1158C45.4687 38.9048 45.7104 38.5747 45.8107 38.1923C45.9109 37.8099 45.8622 37.4037 45.6745 37.0558L32.5145 11.6358L30.6745 8.05583C30.4685 7.71587 30.1383 7.4694 29.7538 7.36861C29.3694 7.26782 28.9607 7.32062 28.6145 7.51583L11.6145 17.5158C11.2764 17.7235 11.0316 18.0537 10.931 18.4375C10.8304 18.8212 10.8818 19.229 11.0745 19.5758L20.0745 34.5758C20.2907 34.8897 20.6175 35.1102 20.9895 35.1931C21.3615 35.2761 21.7511 35.2152 22.0801 35.0229C22.4092 34.8305 22.6533 34.5209 22.7635 34.1561C22.8737 33.7912 22.8419 33.3982 22.6745 33.0558Z" fill="#050038"/>
<path d="M20.5045 14.4858L18.2945 9.19584L17.2445 11.0458L35.5045 3.60584L33.6545 2.60584L43.0045 29.6158L44.3145 33.4258L45.0045 31.7258L41.9245 33.2558C40.1945 34.1158 41.7145 36.7058 43.4445 35.8558L46.5245 34.3258C46.809 34.1563 47.0303 33.8985 47.1549 33.5917C47.2794 33.2848 47.3004 32.9457 47.2145 32.6258L37.8745 5.56584L36.5545 1.75584C36.4448 1.3736 36.1896 1.04959 35.8438 0.853294C35.4979 0.657001 35.0889 0.604063 34.7045 0.705835L16.4445 8.14584C15.7745 8.42584 15.0545 9.14584 15.3945 9.99584L17.6045 15.2858C17.7248 15.6611 17.9818 15.9774 18.3245 16.1719C18.6673 16.3664 19.0706 16.4249 19.4545 16.3358C19.8382 16.2284 20.1638 15.9736 20.3605 15.6271C20.5572 15.2806 20.6089 14.8704 20.5045 14.4858Z" fill="#050038"/>
<path d="M36.8745 8.81584L45.1345 7.81584L43.6345 6.31584L45.2345 32.3158L45.4645 36.0058L46.5645 34.5558L43.3545 35.1658C41.4645 35.5258 42.2645 38.4258 44.1545 38.0658L47.3645 37.4558C47.6806 37.3667 47.959 37.1769 48.1575 36.9152C48.356 36.6535 48.4638 36.3343 48.4645 36.0058L46.8745 10.0758L46.6445 6.38584C46.5945 5.64584 45.9945 4.78584 45.1445 4.88584L36.8745 5.81584C34.9745 6.03584 34.9545 9.03584 36.8745 8.81584Z" fill="#050038"/>
<path d="M15.0745 35.0558C13.3562 37.4064 11.9198 39.9505 10.7945 42.6358C9.91777 44.8627 9.49111 47.2412 9.53917 49.6339C9.58723 52.0266 10.1091 54.386 11.0745 56.5758C11.9145 58.3158 14.5045 56.7958 13.6745 55.0558C11.8745 51.2858 12.3545 46.5958 13.9245 42.8158C14.9678 40.6153 16.2238 38.522 17.6745 36.5658C18.7445 34.9558 16.1445 33.4458 15.0745 35.0458V35.0558Z" fill="#050038"/>
<path d="M22.0745 19.5758L26.4545 27.4458L27.0745 28.5758C27.2822 28.9139 27.6123 29.1587 27.9961 29.2593C28.3799 29.3599 28.7877 29.3085 29.1345 29.1158C29.4706 28.9064 29.7139 28.5763 29.8143 28.1933C29.9147 27.8102 29.8647 27.4032 29.6745 27.0558L25.2945 19.1858L24.6745 18.0558C24.4668 17.7178 24.1366 17.473 23.7529 17.3724C23.3691 17.2718 22.9613 17.3232 22.6145 17.5158C22.2783 17.7252 22.0351 18.0553 21.9347 18.4384C21.8343 18.8215 21.8843 19.2285 22.0745 19.5758Z" fill="#050038"/>
<path d="M29.8745 31.8158V32.8158C29.8663 33.0172 29.9111 33.2172 30.0045 33.3958C30.0727 33.576 30.1784 33.7395 30.3146 33.8757C30.4508 34.0119 30.6144 34.1176 30.7945 34.1858C30.9731 34.2793 31.1731 34.3241 31.3745 34.3158H31.7745C32.0247 34.2456 32.2523 34.1112 32.4345 33.9258L32.6745 33.6258C32.813 33.3788 32.8821 33.0989 32.8745 32.8158V31.8158C32.8827 31.6145 32.8379 31.4144 32.7445 31.2358C32.6763 31.0557 32.5706 30.8922 32.4344 30.756C32.2982 30.6198 32.1346 30.5141 31.9545 30.4458C31.7759 30.3524 31.5759 30.3076 31.3745 30.3158H30.9745C30.7242 30.3861 30.4967 30.5205 30.3145 30.7058L30.0745 31.0058C29.936 31.2529 29.8669 31.5327 29.8745 31.8158Z" fill="#050038"/>
<path d="M31.8745 48.3158C31.8853 48.4823 31.8853 48.6493 31.8745 48.8158C31.879 48.8991 31.879 48.9826 31.8745 49.0658C31.8745 49.0658 31.8745 49.1458 31.8745 49.1958C31.8745 49.2458 31.9445 48.7358 31.8745 49.0058C31.8045 49.2758 31.7945 49.4658 31.7445 49.6958C31.6945 49.9258 31.6145 50.2258 31.5345 50.4958L31.3845 50.9158C31.3845 50.9858 31.3845 51.0458 31.3145 51.1158V51.2158C31.2445 51.4058 31.3145 51.0858 31.3845 51.0658C31.2245 51.3658 31.0945 51.6758 30.9145 51.9758C30.8345 52.1158 30.7445 52.2458 30.6645 52.3758C30.6145 52.4401 30.5678 52.5069 30.5245 52.5758C30.7245 52.3358 30.3245 52.8458 30.5245 52.5758C30.255 52.8888 29.9643 53.1828 29.6545 53.4558C29.9045 53.2758 29.4745 53.6058 29.6545 53.4558L29.3945 53.6358C29.1835 53.7747 28.963 53.8983 28.7345 54.0058C28.3926 54.21 28.1444 54.5402 28.0434 54.9255C27.9424 55.3107 27.9967 55.7202 28.1945 56.0658C28.4039 56.402 28.734 56.6452 29.1171 56.7456C29.5001 56.846 29.9071 56.796 30.2545 56.6058C33.1345 55.1358 34.6045 52.0858 34.9445 48.9958C34.9594 48.7661 34.9594 48.5356 34.9445 48.3058C34.9445 47.908 34.7865 47.5265 34.5051 47.2452C34.2238 46.9639 33.8423 46.8058 33.4445 46.8058C33.0467 46.8058 32.6651 46.9639 32.3838 47.2452C32.1025 47.5265 31.9445 47.908 31.9445 48.3058L31.8745 48.3158Z" fill="#050038"/>
</svg>
