<svg width="60" height="58" viewBox="0 0 60 58" fill="none" xmlns="http://www.w3.org/2000/svg">
<rect x="12" y="29.5481" width="21.9883" height="21.9883" rx="3" transform="rotate(-45 12 29.5481)" fill="#F9BB08"/>
<path d="M55.83 21.02L50.83 16.07C50.6671 15.9105 50.4703 15.79 50.2542 15.7175C50.0382 15.6449 49.8085 15.6222 49.5824 15.6511C49.3563 15.68 49.1397 15.7596 48.9487 15.8841C48.7578 16.0086 48.5976 16.1747 48.48 16.37L35.48 41.54L33.63 45.11L34.93 44.37H2.24001L3.74001 45.87V24.07L2.24001 25.57H11.16C11.5562 25.5648 11.9347 25.4051 12.2149 25.1249C12.4951 24.8447 12.6548 24.4662 12.66 24.07V17.13C12.6548 16.7338 12.4951 16.3553 12.2149 16.0751C11.9347 15.7949 11.5562 15.6352 11.16 15.63H6.16001L7.66001 17.13V12.13L6.16001 13.63H20.08L18.58 12.13V17.13L20.08 15.63H16.08C15.6838 15.6352 15.3053 15.7949 15.0251 16.0751C14.7449 16.3553 14.5852 16.7338 14.58 17.13V24.07C14.5852 24.4662 14.7449 24.8447 15.0251 25.1249C15.3053 25.4051 15.6838 25.5648 16.08 25.57H26.98L25.74 24.82L29.74 31.76C29.8576 31.9553 30.0178 32.1214 30.2087 32.2459C30.3997 32.3704 30.6163 32.4501 30.8424 32.4789C31.0685 32.5078 31.2982 32.4851 31.5142 32.4125C31.7303 32.34 31.9271 32.2195 32.09 32.06L45.9 18.21L47.9 16.21C48.1811 15.9236 48.337 15.5372 48.3332 15.1359C48.3295 14.7345 48.1664 14.3511 47.88 14.07C47.5936 13.7889 47.2072 13.633 46.8059 13.6368C46.4045 13.6405 46.0211 13.8036 45.74 14.09L31.92 27.94L29.92 29.94L32.28 30.25L28.28 23.31C28.1486 23.0845 27.9603 22.8974 27.7339 22.7676C27.5075 22.6377 27.251 22.5696 26.99 22.57H16.12L17.62 24.07V17.13L16.12 18.63H20.12C20.5162 18.6248 20.8947 18.4651 21.1749 18.1849C21.4551 17.9047 21.6148 17.5262 21.62 17.13V12.13C21.6148 11.7338 21.4551 11.3553 21.1749 11.0751C20.8947 10.7949 20.5162 10.6352 20.12 10.63H6.20001C5.80388 10.6456 5.42953 10.8154 5.15679 11.1031C4.88404 11.3907 4.73448 11.7736 4.74001 12.17V17.17C4.74519 17.5662 4.90488 17.9447 5.18507 18.2249C5.46526 18.5051 5.84379 18.6648 6.24001 18.67H11.24L9.74001 17.17V24.07L11.24 22.57H2.24001C1.84379 22.5752 1.46526 22.7349 1.18507 23.0151C0.904884 23.2953 0.745185 23.6738 0.740005 24.07V45.87C0.745185 46.2662 0.904884 46.6447 1.18507 46.9249C1.46526 47.2051 1.84379 47.3648 2.24001 47.37H34.95C35.211 47.3704 35.4675 47.3023 35.6939 47.1725C35.9203 47.0426 36.1086 46.8555 36.24 46.63L49.24 21.46L51.09 17.89L48.73 18.19L53.73 23.14C54.0144 23.405 54.3904 23.5492 54.779 23.5424C55.1677 23.5355 55.5384 23.3781 55.8132 23.1032C56.0881 22.8284 56.2455 22.4577 56.2524 22.069C56.2592 21.6804 56.115 21.3044 55.85 21.02H55.83Z" fill="#050038"/>
<path d="M56.24 36.95C56.24 36.95 56.17 37.44 56.24 37.15C56.2206 37.2691 56.1905 37.3863 56.15 37.5C56.07 37.73 56.32 37.26 56.15 37.61C56.15 37.61 55.88 38.01 56.06 37.78L55.87 37.99C55.87 37.99 55.5 38.28 55.73 38.12L55.49 38.27C55.33 38.35 55.32 38.36 55.49 38.27L55.21 38.35C55.07 38.35 54.98 38.44 55.21 38.35C55.0568 38.3601 54.9032 38.3601 54.75 38.35C54.31 38.35 54.88 38.35 54.63 38.35L54.28 38.25C54.58 38.36 53.84 37.95 54.08 38.13C53.9673 38.0439 53.8634 37.9468 53.77 37.84C53.54 37.61 53.77 37.98 53.66 37.68C53.66 37.68 53.46 37.25 53.56 37.52C53.56 37.43 53.56 37.34 53.47 37.24C53.35 36.89 53.47 37.44 53.47 37.05C53.47 36.97 53.47 36.89 53.47 36.81C53.47 36.73 53.47 36.59 53.47 36.48V36.13C53.47 36.41 53.47 36.08 53.47 36.04C53.47 36 53.47 35.84 53.52 35.74L53.61 35.2C53.7 34.77 53.79 34.34 53.89 33.92C54.0993 33.0903 54.353 32.2725 54.65 31.47C54.51 31.76 54.78 31.11 54.65 31.47L54.76 31.23C54.8386 31.0657 54.9253 30.9055 55.02 30.75C55.08 30.65 55.16 30.44 55.26 30.38C55.09 30.48 55.08 30.62 55.18 30.5C55.28 30.38 55.54 30.21 55.13 30.5C55.1632 30.4742 55.2003 30.4539 55.24 30.44C55.46 30.32 54.85 30.56 55.09 30.5C54.68 30.6 54.74 30.5 54.88 30.5C55.02 30.5 54.44 30.41 54.68 30.5C54.27 30.38 54.39 30.38 54.53 30.5C54.67 30.62 54.35 30.39 54.38 30.38C54.41 30.37 54.52 30.52 54.54 30.54C54.72 30.76 54.35 30.22 54.54 30.49C54.73 30.76 54.89 31.05 55.04 31.36C55.0725 31.4451 55.1092 31.5286 55.15 31.61C55.15 31.53 55 31.28 55.15 31.61C55.15 31.69 55.32 32.05 55.4 32.27C55.7063 33.2001 55.9534 34.1487 56.14 35.11L56.26 35.77C56.26 35.85 56.26 35.94 56.26 36.03C56.26 36.12 56.32 36.49 56.26 36.21C56.2 35.93 56.26 36.47 56.26 36.56C56.26 36.65 56.26 36.84 56.26 36.98C56.26 37.3778 56.418 37.7594 56.6993 38.0407C56.9807 38.322 57.3622 38.48 57.76 38.48C58.1578 38.48 58.5394 38.322 58.8207 38.0407C59.102 37.7594 59.26 37.3778 59.26 36.98C59.177 35.02 58.782 33.0857 58.09 31.25C57.48 29.51 56.03 26.53 53.68 27.85C52.8923 28.3803 52.2935 29.1472 51.97 30.04C51.5084 31.0982 51.1436 32.196 50.88 33.32C50.35 35.55 49.81 38.01 51.43 39.93C52.0102 40.5932 52.7739 41.0696 53.6246 41.2992C54.4753 41.5288 55.3749 41.5012 56.21 41.22C57.0813 40.9013 57.835 40.325 58.3709 39.5676C58.9068 38.8103 59.1995 37.9077 59.21 36.98C59.21 36.5822 59.052 36.2006 58.7707 35.9193C58.4894 35.638 58.1078 35.48 57.71 35.48C57.3122 35.48 56.9307 35.638 56.6493 35.9193C56.368 36.2006 56.21 36.5822 56.21 36.98L56.24 36.95Z" fill="#050038"/>
</svg>
