<svg width="58" height="58" viewBox="0 0 58 58" fill="none" xmlns="http://www.w3.org/2000/svg">
<rect x="11.7681" y="24.8375" width="18.4829" height="18.4829" rx="3" transform="rotate(-45 11.7681 24.8375)" fill="#F9BB08"/>
<path d="M20.0624 8.4316L13.8789 10.8252C12.3635 11.4118 11.6105 13.1159 12.1971 14.6313L14.5908 20.8149C15.1774 22.3303 16.8814 23.0832 18.3968 22.4966L24.5804 20.103C26.0958 19.5164 26.8488 17.8123 26.2621 16.2969L23.8685 10.1133C23.2819 8.59793 21.5779 7.84499 20.0624 8.4316Z" stroke="#0F0D33" stroke-width="2.99174" stroke-miterlimit="10"/>
<path d="M30.3269 21.6759L20.2347 25.5826C18.7193 26.1692 17.9663 27.8732 18.5529 29.3886L22.4596 39.4809C23.0462 40.9963 24.7503 41.7492 26.2657 41.1626L36.3579 37.2559C37.8733 36.6693 38.6263 34.9653 38.0397 33.4499L34.133 23.3576C33.5464 21.8422 31.8424 21.0893 30.3269 21.6759Z" stroke="#0F0D33" stroke-width="2.99174" stroke-miterlimit="10"/>
<path d="M4.42145 16.6435L7.78377 14.1217L5.92609 13.3652L10.7426 24.9736L18.4339 43.5252L20.2159 47.829C20.2736 48.0116 20.3708 48.1793 20.5006 48.3202C20.6304 48.461 20.7897 48.5714 20.9671 48.6437C21.1444 48.7159 21.3356 48.7481 21.5268 48.7381C21.7181 48.728 21.9048 48.6759 22.0736 48.5855L38.2632 41.1884L40.5664 40.1461C42.0374 39.4736 40.7597 37.2965 39.2887 37.9606L23.0991 45.3913L20.7959 46.4L22.6536 47.1565L17.8371 35.5481L10.1458 16.9965L8.4058 12.6928C8.1284 12.0287 7.27942 11.3983 6.54812 11.9362L3.1858 14.458C1.90811 15.4246 3.1858 17.6186 4.46348 16.6435H4.42145Z" fill="#0F0D33"/>
<path d="M22.2754 52.5362C24.1323 52.5362 25.6377 51.0309 25.6377 49.1739C25.6377 47.3169 24.1323 45.8116 22.2754 45.8116C20.4184 45.8116 18.913 47.3169 18.913 49.1739C18.913 51.0309 20.4184 52.5362 22.2754 52.5362Z" fill="#0F0D33"/>
<path d="M40.3478 46.2319C42.2048 46.2319 43.7101 44.7265 43.7101 42.8696C43.7101 41.0126 42.2048 39.5073 40.3478 39.5073C38.4909 39.5073 36.9855 41.0126 36.9855 42.8696C36.9855 44.7265 38.4909 46.2319 40.3478 46.2319Z" fill="#0F0D33"/>
</svg>
