<svg width="40" height="40" viewBox="0 0 40 40" fill="none" xmlns="http://www.w3.org/2000/svg">
<rect x="8.12502" y="19.375" width="16.3178" height="16.3178" rx="3" transform="rotate(-45 8.12502 19.375)" fill="#F9BB08"/>
<path d="M17.6646 17.5217H11.6646C10.7487 17.5217 9.81533 17.5681 8.8936 17.5217C7.79215 17.4696 8.01244 16.3217 8.01244 15.5217C8.01244 14.7217 7.62983 12.8319 8.78925 12.687C9.94867 12.542 11.1081 12.9536 12.1516 12.258C13.4443 11.4058 13.2762 9.93913 13.2762 8.57681C13.2762 7.75942 13.1371 6.78551 14.2327 6.76812C16.3603 6.72754 18.4878 6.76812 20.6095 6.76812H24.2675C24.8063 6.73917 25.3462 6.73917 25.8849 6.76812C27.0443 6.89565 26.6559 8.88406 26.6559 9.70725C26.6559 11.2841 27.4675 12.6058 29.1835 12.687C29.9835 12.7217 31.8211 12.2812 31.9197 13.4696C32.0008 14.4725 31.9197 15.5217 31.9197 16.5304C31.9197 17.5391 31.0849 17.5217 30.2733 17.5217H26.4994C25.4153 17.5217 24.2965 17.4174 23.4559 18.258C23.1376 18.5806 22.9079 18.98 22.7892 19.4174C22.6965 19.7884 22.7892 20.2116 22.5342 20.5188C22.2037 20.9246 21.5371 20.8029 21.0791 20.8029H19.6414C19.4108 20.8029 19.1896 20.8945 19.0265 21.0576C18.8635 21.2207 18.7719 21.4418 18.7719 21.6725C18.7719 21.9031 18.8635 22.1243 19.0265 22.2873C19.1896 22.4504 19.4108 22.542 19.6414 22.542C20.7719 22.542 22.2501 22.7797 23.2646 22.1652C23.6741 21.9104 24.0005 21.5417 24.2037 21.1043C24.3342 20.6821 24.4292 20.2497 24.4878 19.8116C24.6501 19.2899 25.1139 19.2319 25.5661 19.2319H29.4443C30.6037 19.2319 31.8675 19.4174 32.795 18.6174C33.9197 17.6493 33.6646 16.0493 33.6646 14.7275C33.6646 13.2725 33.6646 11.713 32.0414 11.087C31.4074 10.9148 30.7477 10.8579 30.0936 10.9188C29.5719 10.9188 28.7892 11.0638 28.4936 10.5072C28.3552 10.0054 28.3236 9.48006 28.4008 8.96522C28.4008 8.45507 28.4008 7.92754 28.4008 7.41739C28.3023 5.87536 27.0617 5 25.6008 5H14.8066C13.74 5 12.7139 5.08116 12.0124 6.04348C11.253 7.09275 11.5487 8.70435 11.5371 9.92174C11.5371 11.3072 9.86171 10.8957 8.89939 10.9188C7.16026 10.9536 6.27331 12.2522 6.27331 13.8696V15.887C6.23122 16.4294 6.27425 16.9752 6.40084 17.5043C6.84722 18.8957 8.13997 19.2435 9.42113 19.2435H17.6646C17.8952 19.2435 18.1164 19.1519 18.2795 18.9888C18.4426 18.8257 18.5342 18.6045 18.5342 18.3739C18.5342 18.1433 18.4426 17.9221 18.2795 17.759C18.1164 17.596 17.8952 17.5043 17.6646 17.5043V17.5217Z" fill="#050038"/>
<path d="M6.27319 18.3913V28.3391C6.27319 29.4985 6.22101 30.7043 6.27319 31.8754C6.28806 32.5399 6.55948 33.173 7.03062 33.642C7.50175 34.111 8.13607 34.3795 8.80072 34.3913C9.0558 34.3913 9.31087 34.3913 9.56594 34.3913H30.679C31.2395 34.4324 31.8015 34.3327 32.3138 34.1014C33.4152 33.5217 33.6645 32.4435 33.6645 31.313V25.6261C33.6645 25.3955 33.5729 25.1743 33.4098 25.0112C33.2467 24.8481 33.0256 24.7565 32.7949 24.7565C32.5643 24.7565 32.3431 24.8481 32.1801 25.0112C32.017 25.1743 31.9254 25.3955 31.9254 25.6261V30.4029C32.0011 30.9815 31.9854 31.5683 31.879 32.142C31.6935 32.6058 31.2587 32.6348 30.8471 32.6348H10.5572C9.97754 32.6348 8.62681 32.8725 8.19783 32.3565C8.00903 32.0013 7.94571 31.5928 8.01812 31.1971V18.3913C8.01812 18.1607 7.9265 17.9395 7.76343 17.7764C7.60035 17.6133 7.37917 17.5217 7.14855 17.5217C6.91793 17.5217 6.69675 17.6133 6.53368 17.7764C6.3706 17.9395 6.27899 18.1607 6.27899 18.3913H6.27319Z" fill="#050038"/>
</svg>
