<svg width="58" height="58" viewBox="0 0 58 58" fill="none" xmlns="http://www.w3.org/2000/svg">
<rect x="10.9167" y="30.8706" width="26.5692" height="26.5692" rx="3" transform="rotate(-45 10.9167 30.8706)" fill="#F9BB08"/>
<path d="M29.4203 27.6803H36.1449L34.9261 26.7557L38.2884 40.2049L38.6162 38.9777L28.5293 47.3835L30.0591 47.1901L19.1316 40.4655L19.7116 41.8861L24.8559 21.3003L25.5957 18.3499L24.3768 19.2745H34.4638C34.7395 19.2725 35.0072 19.1814 35.2269 19.0148C35.4466 18.8481 35.6064 18.6149 35.6826 18.3499L37.3638 9.94406C37.4105 9.75685 37.4145 9.56153 37.3754 9.37258C37.3364 9.18362 37.2554 9.00586 37.1383 8.85248C37.0213 8.6991 36.8712 8.57402 36.6992 8.48651C36.5273 8.399 36.3378 8.35131 36.1449 8.34696H23.5362C23.3433 8.35131 23.1539 8.399 22.9819 8.48651C22.81 8.57402 22.6599 8.6991 22.5428 8.85248C22.4258 9.00586 22.3447 9.18362 22.3057 9.37258C22.2667 9.56153 22.2707 9.75685 22.3174 9.94406L23.158 14.147C23.4774 15.7357 25.9067 15.0632 25.5957 13.4745L24.7551 9.27159L23.5362 10.8687H36.1449L34.9261 9.24638L33.2449 17.6522L34.4638 16.7528H24.3768C24.1046 16.7544 23.84 16.8424 23.6209 17.004C23.4019 17.1656 23.2398 17.3926 23.158 17.6522L18.0136 38.2464L17.2739 41.1884C17.2085 41.4573 17.2294 41.74 17.3335 41.9964C17.4375 42.2529 17.6196 42.4701 17.8539 42.6174L28.7815 49.342C29.0243 49.4771 29.3042 49.5304 29.5797 49.494C29.8552 49.4577 30.1117 49.3337 30.3113 49.1403L40.3983 40.7345C40.5574 40.5777 40.6717 40.3813 40.7293 40.1655C40.7869 39.9497 40.7858 39.7225 40.7261 39.5072L37.3638 26.058C37.2819 25.7984 37.1198 25.5714 36.9008 25.4098C36.6818 25.2482 36.4171 25.1602 36.1449 25.1586H29.4203C29.0859 25.1586 28.7652 25.2914 28.5287 25.5279C28.2923 25.7643 28.1594 26.085 28.1594 26.4194C28.1594 26.7538 28.2923 27.0745 28.5287 27.311C28.7652 27.5474 29.0859 27.6803 29.4203 27.6803Z" fill="#050038"/>
</svg>
