<svg width="58" height="58" viewBox="0 0 58 58" fill="none" xmlns="http://www.w3.org/2000/svg">
<rect x="13.0759" y="21.7199" width="21.9883" height="21.9883" rx="3" transform="rotate(-45 13.0759 21.7199)" fill="#F9BB08"/>
<path d="M23.8584 29.2395V32.5195C23.8584 33.2395 24.0284 33.6795 23.2584 33.7395C20.8799 33.8595 18.4968 33.8595 16.1184 33.7395C15.6083 33.7395 15.5483 33.7395 15.3383 33.3095C15.0907 32.6829 14.8934 32.0375 14.7483 31.3795L12.5384 24.1195L10.1684 16.3095L9.36835 13.7395C9.21403 13.4003 9.11284 13.0394 9.06835 12.6695C9.06835 12.1395 10.4884 10.7695 10.9684 10.1695C11.4484 9.56949 11.6183 9.07949 12.3383 9.30949C13.8383 9.78949 15.3383 10.5395 16.7483 11.1495L31.3784 17.2495L33.3784 18.0895C33.8384 18.2795 33.8083 18.1995 33.8384 18.5995C34.0384 20.9195 33.8384 23.3495 33.8384 25.6795C33.8384 26.0895 34.0784 27.3695 33.7584 27.6795C33.5884 27.8495 33.0684 27.7995 32.8784 27.8395C32.4769 27.9236 32.0961 28.0867 31.7584 28.3195C31.362 28.5948 31.0317 28.9547 30.7913 29.3732C30.5509 29.7917 30.4065 30.2584 30.3683 30.7395C30.2283 32.2895 31.2083 33.2395 32.2083 34.2395C33.0183 35.0495 33.8884 36.2395 35.0184 36.5795C36.2312 36.8329 37.4759 36.897 38.7083 36.7695C39.3783 36.7695 40.3383 36.5595 40.8883 36.9895C41.5158 37.5752 42.0913 38.2143 42.6083 38.8995L45.4184 42.0195L47.9483 44.8295C48.2983 45.2195 48.7883 45.6595 48.8583 46.0095C48.9583 46.5495 49.1283 48.4995 48.5984 48.7695C48.2505 48.8245 47.8962 48.8245 47.5483 48.7695H45.4083C44.7083 48.7695 44.2083 48.8995 43.6983 48.4095C43.1884 47.9195 42.4683 47.0495 41.8683 46.4095L36.4783 40.4095L35.4184 39.2395C34.1284 37.7995 32.0084 39.9295 33.2983 41.3595L37.5384 46.0695C38.9384 47.6295 40.2683 49.3195 41.7783 50.7795C42.9783 51.9495 44.4683 51.7795 45.9983 51.7795C47.2383 51.7795 48.8083 52.0095 49.9983 51.4695C51.7683 50.6295 51.8883 48.9395 51.8883 47.2395C52.0446 45.9482 51.6852 44.6475 50.8883 43.6195C49.2483 41.6895 47.4983 39.8495 45.8083 37.9795C44.3783 36.3895 42.8083 33.8995 40.5183 33.7795C39.2383 33.7195 37.9384 33.7795 36.6583 33.7795C35.6583 33.7795 35.1984 32.9895 34.4984 32.2895C34.2484 32.0395 33.4984 31.5695 33.4384 31.2295C33.2384 30.5895 33.9984 30.7895 34.4384 30.6595C35.1841 30.4358 35.8309 29.9636 36.2711 29.3214C36.7114 28.6792 36.9186 27.9058 36.8584 27.1295C36.8584 24.4895 36.8584 21.8395 36.8584 19.1995C36.8584 17.8195 36.6283 16.4695 35.3384 15.6595C34.8634 15.3976 34.3685 15.1735 33.8584 14.9895L18.7383 8.73949C16.9283 7.98949 15.1184 7.18949 13.2884 6.46949C10.4584 5.31949 9.01835 7.73949 7.50835 9.66949C6.50835 10.8495 5.78835 11.9395 6.18835 13.5495C6.31835 14.0695 6.49835 14.5495 6.65835 15.0895L8.95835 22.6495L11.5283 31.0895C11.9883 32.5995 12.3083 34.8995 13.5283 35.9695C14.5283 36.8395 15.7984 36.7395 17.0384 36.7395H21.4883C22.514 36.8371 23.5484 36.7832 24.5584 36.5795C26.3784 36.0095 26.8584 34.3795 26.8584 32.7395V29.2395C26.8584 28.8417 26.7003 28.4601 26.419 28.1788C26.1377 27.8975 25.7562 27.7395 25.3584 27.7395C24.9605 27.7395 24.579 27.8975 24.2977 28.1788C24.0164 28.4601 23.8584 28.8417 23.8584 29.2395Z" fill="#050038"/>
</svg>
