<svg width="40" height="40" viewBox="0 0 40 40" fill="none" xmlns="http://www.w3.org/2000/svg">
<rect x="4.43146" y="17.709" width="16.3178" height="16.3178" rx="3" transform="rotate(-45 4.43146 17.709)" fill="#F9BB08"/>
<path d="M16.0134 34.3206H8.52355C7.75481 34.3206 7.01755 34.0153 6.47397 33.4717C5.93038 32.9281 5.625 32.1908 5.625 31.4221V23.9322C5.625 23.1635 5.93038 22.4262 6.47397 21.8827C7.01755 21.3391 7.75481 21.0337 8.52355 21.0337H16.0134C16.7822 21.0337 17.5194 21.3391 18.063 21.8827C18.6066 22.4262 18.912 23.1635 18.912 23.9322V31.4163C18.9127 31.7974 18.8383 32.175 18.693 32.5273C18.5477 32.8796 18.3343 33.1999 18.065 33.4696C17.7958 33.7394 17.476 33.9534 17.124 34.0995C16.7719 34.2455 16.3945 34.3206 16.0134 34.3206ZM8.52355 22.767C8.21605 22.767 7.92115 22.8892 7.70372 23.1066C7.48628 23.324 7.36413 23.6189 7.36413 23.9264V31.4163C7.36413 31.7238 7.48628 32.0187 7.70372 32.2361C7.92115 32.4536 8.21605 32.5757 8.52355 32.5757H16.0134C16.3209 32.5757 16.6158 32.4536 16.8332 32.2361C17.0507 32.0187 17.1728 31.7238 17.1728 31.4163V23.9322C17.1728 23.6247 17.0507 23.3298 16.8332 23.1124C16.6158 22.895 16.3209 22.7728 16.0134 22.7728L8.52355 22.767Z" fill="#050038"/>
<path d="M16.0134 18.9178H8.52355C7.75481 18.9178 7.01755 18.6124 6.47397 18.0688C5.93038 17.5252 5.625 16.7879 5.625 16.0192V8.52355C5.625 7.75481 5.93038 7.01755 6.47397 6.47397C7.01755 5.93038 7.75481 5.625 8.52355 5.625H16.0134C16.7822 5.625 17.5194 5.93038 18.063 6.47397C18.6066 7.01755 18.912 7.75481 18.912 8.52355V16.0134C18.9127 16.3945 18.8383 16.7721 18.693 17.1244C18.5477 17.4768 18.3343 17.797 18.065 18.0667C17.7958 18.3365 17.476 18.5505 17.124 18.6966C16.7719 18.8426 16.3945 18.9178 16.0134 18.9178ZM8.52355 7.36413C8.21605 7.36413 7.92115 7.48628 7.70372 7.70372C7.48628 7.92115 7.36413 8.21605 7.36413 8.52355V16.0134C7.36413 16.3209 7.48628 16.6158 7.70372 16.8332C7.92115 17.0507 8.21605 17.1728 8.52355 17.1728H16.0134C16.3209 17.1728 16.6158 17.0507 16.8332 16.8332C17.0507 16.6158 17.1728 16.3209 17.1728 16.0134V8.52355C17.1728 8.21605 17.0507 7.92115 16.8332 7.70372C16.6158 7.48628 16.3209 7.36413 16.0134 7.36413H8.52355Z" fill="#050038"/>
<path d="M31.4163 34.3206H23.9322C23.1635 34.3206 22.4262 34.0153 21.8827 33.4717C21.3391 32.9281 21.0337 32.1908 21.0337 31.4221V23.9322C21.0337 23.1635 21.3391 22.4262 21.8827 21.8827C22.4262 21.3391 23.1635 21.0337 23.9322 21.0337H31.4163C32.185 21.0337 32.9223 21.3391 33.4659 21.8827C34.0095 22.4262 34.3149 23.1635 34.3149 23.9322V31.4163C34.3156 31.7974 34.2412 32.175 34.0959 32.5273C33.9506 32.8796 33.7372 33.1999 33.4679 33.4696C33.1987 33.7394 32.8789 33.9534 32.5269 34.0995C32.1748 34.2455 31.7974 34.3206 31.4163 34.3206ZM23.9322 22.767C23.6247 22.767 23.3298 22.8892 23.1124 23.1066C22.895 23.324 22.7728 23.6189 22.7728 23.9264V31.4163C22.7728 31.7238 22.895 32.0187 23.1124 32.2361C23.3298 32.4536 23.6247 32.5757 23.9322 32.5757H31.4163C31.7238 32.5757 32.0187 32.4536 32.2361 32.2361C32.4536 32.0187 32.5757 31.7238 32.5757 31.4163V23.9322C32.5757 23.6247 32.4536 23.3298 32.2361 23.1124C32.0187 22.895 31.7238 22.7728 31.4163 22.7728L23.9322 22.767Z" fill="#050038"/>
<path d="M31.4163 18.9178H23.9322C23.1635 18.9178 22.4262 18.6124 21.8827 18.0688C21.3391 17.5252 21.0337 16.7879 21.0337 16.0192V8.52355C21.0337 7.75481 21.3391 7.01755 21.8827 6.47397C22.4262 5.93038 23.1635 5.625 23.9322 5.625H31.4163C32.185 5.625 32.9223 5.93038 33.4659 6.47397C34.0095 7.01755 34.3149 7.75481 34.3149 8.52355V16.0134C34.3156 16.3945 34.2412 16.7721 34.0959 17.1244C33.9506 17.4768 33.7372 17.797 33.4679 18.0667C33.1987 18.3365 32.8789 18.5505 32.5269 18.6966C32.1748 18.8426 31.7974 18.9178 31.4163 18.9178ZM23.9322 7.36413C23.6247 7.36413 23.3298 7.48628 23.1124 7.70372C22.895 7.92115 22.7728 8.21605 22.7728 8.52355V16.0134C22.7728 16.3209 22.895 16.6158 23.1124 16.8332C23.3298 17.0507 23.6247 17.1728 23.9322 17.1728H31.4163C31.7238 17.1728 32.0187 17.0507 32.2361 16.8332C32.4536 16.6158 32.5757 16.3209 32.5757 16.0134V8.52355C32.5757 8.21605 32.4536 7.92115 32.2361 7.70372C32.0187 7.48628 31.7238 7.36413 31.4163 7.36413H23.9322Z" fill="#050038"/>
</svg>
