<svg width="58" height="58" viewBox="0 0 58 58" fill="none" xmlns="http://www.w3.org/2000/svg">
<rect x="9.60855" y="33.6589" width="27.2593" height="27.2593" rx="3" transform="rotate(-45 9.60855 33.6589)" fill="#F9BB08"/>
<path d="M13.4997 42.1214C13.4084 40.9405 13.6956 39.7611 14.3199 38.7545C14.9441 37.7479 15.8728 36.9663 16.9713 36.5232C18.0873 36.1297 19.2695 35.9583 20.4513 36.0188C22.0663 36.0048 23.6806 36.0918 25.2847 36.2794C25.6184 36.2772 25.9378 36.1437 26.1738 35.9077C26.4098 35.6717 26.5433 35.3523 26.5455 35.0185C26.537 34.6868 26.4014 34.371 26.1668 34.1364C25.9322 33.9018 25.6164 33.7662 25.2847 33.7577C23.502 33.5519 21.7074 33.4677 19.9134 33.5055C18.3507 33.4846 16.803 33.8119 15.3826 34.4638C13.9827 35.1661 12.8194 36.2634 12.0365 37.6199C11.2537 38.9765 10.8856 40.5327 10.978 42.0962C10.9885 42.4273 11.1247 42.7419 11.3589 42.9761C11.5932 43.2104 11.9078 43.3466 12.2389 43.3571C12.5733 43.3571 12.894 43.2243 13.1304 42.9878C13.3669 42.7513 13.4997 42.4306 13.4997 42.0962V42.1214Z" fill="#050038"/>
<path d="M19.0055 49.6783C22.1792 50.3708 25.4251 50.6756 28.6722 50.5861C31.0931 50.5861 33.7997 50.2163 35.6658 48.5183C38.3809 46.047 37.5739 41.987 36.3047 39.0029C35.9304 38.0834 35.4835 37.1952 34.9681 36.3467C33.0103 33.3844 31.3839 30.2161 30.118 26.8986C28.6134 22.6116 27.9997 17.6522 30.3029 13.5754C31.0178 12.3159 31.9748 11.2103 33.1189 10.3224C33.2618 10.2047 32.9255 10.4568 33.2197 10.2467L33.5223 10.0366C33.682 9.92728 33.8418 9.818 34.0099 9.71714C34.1573 9.63647 34.3088 9.56352 34.4638 9.49858L32.6145 8.74206L36.8174 22.5528L43.4496 44.5508L44.971 49.5942C45.0498 49.8672 45.2157 50.1069 45.4433 50.2768C45.6709 50.4468 45.9478 50.5377 46.2319 50.5357H53.7971C54.1315 50.5357 54.4522 50.4028 54.6887 50.1664C54.9252 49.9299 55.058 49.6092 55.058 49.2748C55.058 48.9404 54.9252 48.6197 54.6887 48.3832C54.4522 48.1468 54.1315 48.0139 53.7971 48.0139H46.2319L47.4507 48.9386L43.2478 35.1279L36.5736 13.1215L35.0522 8.078C34.9972 7.89352 34.9015 7.72373 34.7721 7.58116C34.6428 7.4386 34.4831 7.32689 34.3048 7.25428C34.1265 7.18168 33.9342 7.15002 33.742 7.16165C33.5498 7.17328 33.3627 7.2279 33.1945 7.32148C27.7392 9.88525 25.6965 16.7108 26.4026 22.2502C26.8933 25.5281 27.9124 28.7047 29.4203 31.6563C30.4963 33.8838 31.858 35.918 33.0768 38.0615C34.2957 40.205 35.4977 43.0545 34.8084 45.3745C34.5954 46.0711 34.1389 46.6678 33.5223 47.0557C32.5256 47.6245 31.4075 47.9473 30.2609 47.9971C28.9244 48.1148 27.5794 47.9971 26.2345 47.9971C24.0316 48.0007 21.8361 47.741 19.6948 47.2238C18.1145 46.8371 17.442 49.2664 19.0223 49.6531L19.0055 49.6783Z" fill="#050038"/>
<path d="M18.3162 46.896C18.3134 47.7068 18.0616 48.4973 17.5949 49.1604C17.1282 49.8235 16.4692 50.3274 15.7069 50.6039C14.9446 50.8803 14.1158 50.916 13.3326 50.7062C12.5493 50.4963 11.8494 50.0511 11.3274 49.4305C10.8054 48.81 10.4866 48.0442 10.4139 47.2366C10.3413 46.4289 10.5184 45.6185 10.9213 44.9148C11.3242 44.2111 11.9334 43.6481 12.6667 43.3018C13.3999 42.9556 14.2218 42.8429 15.0212 42.9789C15.9408 43.1454 16.7734 43.628 17.3751 44.3432C17.9768 45.0584 18.3096 45.9614 18.3162 46.896C18.3162 48.5183 20.838 48.5267 20.838 46.896C20.8235 45.567 20.4071 44.2734 19.6434 43.1857C18.8797 42.0979 17.8045 41.2668 16.5594 40.8018C15.313 40.3504 13.9581 40.2921 12.6774 40.6348C11.3968 40.9775 10.2521 41.7047 9.39769 42.7183C8.52885 43.7451 8.00103 45.0168 7.88742 46.3571C7.77381 47.6974 8.08003 49.0398 8.76363 50.1982C9.44723 51.3566 10.4743 52.2737 11.7025 52.8221C12.9307 53.3706 14.2991 53.5233 15.618 53.2592C17.0839 52.954 18.4011 52.1563 19.3508 50.9987C20.3004 49.841 20.8253 48.3932 20.838 46.896C20.8632 45.2737 18.3415 45.2737 18.3162 46.896Z" fill="#050038"/>
</svg>
