<svg width="58" height="58" viewBox="0 0 58 58" fill="none" xmlns="http://www.w3.org/2000/svg">
<rect x="15" y="26.0581" width="21.9883" height="21.9883" rx="3" transform="rotate(-45 15 26.0581)" fill="#F9BB08"/>
<path d="M7 22.99V50.99C7.00518 51.3862 7.16488 51.7648 7.44507 52.0449C7.72526 52.3251 8.10379 52.4848 8.5 52.49H50.5C50.8962 52.4848 51.2747 52.3251 51.5549 52.0449C51.8351 51.7648 51.9948 51.3862 52 50.99V16.99C51.9948 16.5938 51.8351 16.2153 51.5549 15.9351C51.2747 15.6549 50.8962 15.4952 50.5 15.49H2.5L4 16.99V6.99001L2.5 8.51001H55.5L54 7.01001V18.01C54 18.4078 54.158 18.7894 54.4393 19.0707C54.7206 19.352 55.1022 19.51 55.5 19.51C55.8978 19.51 56.2794 19.352 56.5607 19.0707C56.842 18.7894 57 18.4078 57 18.01V7.01001C56.9948 6.6138 56.8351 6.23527 56.5549 5.95508C56.2747 5.67489 55.8962 5.51519 55.5 5.51001H2.5C2.10379 5.51519 1.72526 5.67489 1.44507 5.95508C1.16488 6.23527 1.00518 6.6138 1 7.01001V17.01C1.00518 17.4062 1.16488 17.7848 1.44507 18.0649C1.72526 18.3451 2.10379 18.5048 2.5 18.51H50.5L49 17.01V51.01L50.5 49.51H8.5L10 51.01V23.01C10 22.6122 9.84196 22.2307 9.56066 21.9494C9.27936 21.668 8.89782 21.51 8.5 21.51C8.10218 21.51 7.72064 21.668 7.43934 21.9494C7.15804 22.2307 7 22.6122 7 23.01V22.99Z" fill="#050038"/>
<path d="M39.5 28.51H19.5L21 30.01V23.01L19.5 24.51H39.5C39.8978 24.51 40.2794 24.352 40.5607 24.0707C40.842 23.7894 41 23.4078 41 23.01C41 22.6122 40.842 22.2307 40.5607 21.9494C40.2794 21.668 39.8978 21.51 39.5 21.51H19.5C19.1038 21.5152 18.7253 21.6749 18.4451 21.9551C18.1649 22.2353 18.0052 22.6138 18 23.01V30.01C18.0052 30.4062 18.1649 30.7848 18.4451 31.0649C18.7253 31.3451 19.1038 31.5048 19.5 31.51H39.5C39.8978 31.51 40.2794 31.352 40.5607 31.0707C40.842 30.7894 41 30.4078 41 30.01C41 29.6122 40.842 29.2307 40.5607 28.9493C40.2794 28.668 39.8978 28.51 39.5 28.51Z" fill="#050038"/>
</svg>
