<svg width="40" height="40" viewBox="0 0 40 40" fill="none" xmlns="http://www.w3.org/2000/svg">
<rect x="3.75" y="17.1635" width="16.3178" height="16.3178" rx="3" transform="rotate(-45 3.75 17.1635)" fill="#F9BB08"/>
<path d="M16.947 29.4121H24.7731C25.0037 29.4121 25.2249 29.3205 25.388 29.1574C25.551 28.9943 25.6426 28.7732 25.6426 28.5425C25.6426 28.3119 25.551 28.0907 25.388 27.9277C25.2249 27.7646 25.0037 27.673 24.7731 27.673H16.947C16.7164 27.673 16.4952 27.7646 16.3321 27.9277C16.169 28.0907 16.0774 28.3119 16.0774 28.5425C16.0774 28.7732 16.169 28.9943 16.3321 29.1574C16.4952 29.3205 16.7164 29.4121 16.947 29.4121Z" fill="#050038"/>
<path d="M26.7035 19.8817C25.1209 19.8817 23.1093 19.5513 22.2224 21.2208C21.8687 21.8875 22.1644 23.0469 21.1673 23.1281C20.9064 23.1281 20.6282 23.1281 20.3673 23.1281H7.03395C6.28613 23.1339 5.50352 23.1687 5.50352 22.2064C5.44555 19.3484 5.50352 16.4788 5.50352 13.6208V9.80056C5.50352 9.42375 5.46874 9.04114 5.82816 8.79186C6.08407 8.65632 6.37578 8.60365 6.66294 8.64114H20.06C20.6397 8.64114 21.7586 8.42664 22.2629 8.77447C22.7673 9.1223 22.5586 10.1368 22.5876 10.6933C22.5961 11.2978 22.8214 11.879 23.2226 12.3312C23.6237 12.7835 24.174 13.0765 24.7731 13.1571C25.4153 13.2073 26.0601 13.217 26.7035 13.1861C27.2484 13.1861 28.0716 13.0237 28.5992 13.2324C29.1267 13.4411 29.0745 14.1136 29.0745 14.6122V17.0237C29.0745 18.502 28.7383 20.4382 30.1354 21.418C31.0687 22.0788 32.5586 21.8469 33.3876 22.6759C33.776 23.0643 33.6195 23.9397 33.6195 24.4151C33.6195 25.1861 33.6195 25.9571 33.6195 26.7339C33.6195 27.5107 33.1267 27.6556 32.46 27.6556H30.576C30.3454 27.6556 30.1242 27.7472 29.9611 27.9103C29.798 28.0734 29.7064 28.2946 29.7064 28.5252C29.7064 28.7558 29.798 28.977 29.9611 29.1401C30.1242 29.3031 30.3454 29.3948 30.576 29.3948C32.3151 29.3948 34.5528 29.731 35.2137 27.6556C35.3658 26.9553 35.4088 26.2357 35.3412 25.5223C35.3412 24.7629 35.3412 23.9977 35.3412 23.2382C35.3197 22.7046 35.1401 22.1894 34.8253 21.758C34.5105 21.3266 34.0747 20.9984 33.5731 20.8151C32.9781 20.57 32.3633 20.3761 31.7354 20.2353C31.2195 20.1136 30.8658 19.9803 30.8137 19.4006C30.6919 17.9223 30.8137 16.3919 30.8137 14.9136C30.8759 14.2645 30.8048 13.6096 30.605 12.989C30.395 12.5093 30.0441 12.105 29.5989 11.8295C29.1536 11.5541 28.6351 11.4206 28.1122 11.4469C27.2774 11.4469 26.4484 11.4469 25.6195 11.4469C24.9296 11.4469 24.3209 11.4006 24.3035 10.5368C24.3035 9.55128 24.3963 8.57737 23.689 7.76578C23.443 7.49181 23.1417 7.27315 22.8049 7.12426C22.4681 6.97536 22.1036 6.89961 21.7354 6.90201C20.6803 6.90201 19.6253 6.90201 18.5702 6.90201H8.02526C7.11511 6.90201 5.9383 6.74549 5.12671 7.18606C3.76439 7.90491 3.76439 9.25563 3.76439 10.5658V20.7339C3.76439 21.8933 3.58468 23.2266 4.49482 24.1368C5.40497 25.0469 6.52381 24.873 7.63105 24.873H18.0195C19.0513 24.873 20.089 24.9078 21.1209 24.873C21.57 24.8749 22.0117 24.7592 22.4022 24.5375C22.7927 24.3158 23.1184 23.9958 23.347 23.6093C23.805 22.8093 23.4224 21.644 24.6397 21.6266C25.3296 21.6266 26.0137 21.6266 26.7035 21.6266C26.9341 21.6266 27.1553 21.535 27.3184 21.372C27.4815 21.2089 27.5731 20.9877 27.5731 20.7571C27.5731 20.5265 27.4815 20.3053 27.3184 20.1422C27.1553 19.9791 26.9341 19.8875 26.7035 19.8875V19.8817Z" fill="#050038"/>
<path d="M6.58178 29.4121H11.1441C11.3747 29.4121 11.5959 29.3205 11.759 29.1574C11.922 28.9943 12.0137 28.7732 12.0137 28.5425C12.0137 28.3119 11.922 28.0907 11.759 27.9277C11.5959 27.7646 11.3747 27.673 11.1441 27.673H6.58178C6.35162 27.6745 6.13133 27.7666 5.96858 27.9293C5.80583 28.0921 5.71373 28.3124 5.71221 28.5425C5.71666 28.7718 5.80971 28.9904 5.97183 29.1525C6.13395 29.3146 6.35255 29.4077 6.58178 29.4121Z" fill="#050038"/>
<path d="M16.0948 28.8673C16.0948 28.9484 16.0948 29.0296 16.0948 29.1108C16.0948 29.1513 16.0948 29.1919 16.0948 29.1108C16.0721 29.2402 16.0412 29.368 16.0021 29.4934C16.0021 29.5629 15.9557 29.6383 15.9267 29.7137C15.9267 29.6731 15.9963 29.5745 15.9267 29.7137C15.8571 29.8528 15.776 29.9803 15.689 30.1079C15.6021 30.2354 15.7586 30.0325 15.66 30.1426L15.5325 30.2818C15.4919 30.3224 15.2311 30.5542 15.3644 30.4499C15.2639 30.5262 15.1572 30.5941 15.0455 30.6528C15.005 30.6818 14.9586 30.6992 14.9122 30.7281C14.8195 30.7687 14.8658 30.7571 14.9122 30.7281L14.8079 30.7687C14.6846 30.8116 14.5588 30.8464 14.4311 30.8731C14.3847 30.8731 14.2108 30.9079 14.3847 30.8731C14.3209 30.8731 14.2513 30.8731 14.1818 30.8731C14.0466 30.8817 13.9111 30.8817 13.776 30.8731C13.6253 30.8731 13.9789 30.9195 13.7354 30.8731L13.5035 30.8151C13.4282 30.8151 13.3586 30.7687 13.2832 30.7455C13.1325 30.676 13.2079 30.7224 13.2832 30.7455C13.1675 30.6907 13.0552 30.6287 12.947 30.56C12.8925 30.5267 12.8403 30.4899 12.7905 30.4499C12.6745 30.3687 12.9238 30.589 12.7557 30.4499C12.5876 30.3108 12.5412 30.2412 12.4369 30.1253L12.3093 29.9339C12.2803 29.8818 12.1296 29.5687 12.1934 29.731C12.147 29.6093 12.1064 29.4818 12.0716 29.36L12.0369 29.2035C12.0369 29.0992 12.0369 29.105 12.0369 29.2035C12.034 29.1649 12.034 29.1262 12.0369 29.0876C12.0281 28.9641 12.0281 28.8401 12.0369 28.7166C12.0369 28.7166 12.0774 28.4383 12.0369 28.6296C12.0369 28.5774 12.0369 28.531 12.0658 28.4789C12.0948 28.4267 12.1354 28.2238 12.176 28.1021C12.2513 27.876 12.0948 28.2354 12.2108 28.0267C12.2513 27.9629 12.2803 27.8934 12.3209 27.8238L12.4253 27.6673C12.4253 27.6267 12.5586 27.505 12.4253 27.6267C12.5122 27.5339 12.5934 27.4412 12.6861 27.3542C12.6861 27.3542 12.8716 27.1977 12.7731 27.2731C12.6745 27.3484 12.8774 27.2035 12.8716 27.2035C12.9998 27.121 13.1334 27.0474 13.2716 26.9832C13.1209 27.0296 13.2369 26.9832 13.2716 26.9832L13.4919 26.9137L13.6426 26.8731C13.6426 26.8731 13.8919 26.8325 13.7644 26.8731C13.6369 26.9137 13.8919 26.8731 13.8861 26.8731H14.089H14.2919C14.5006 26.8731 14.1992 26.8383 14.3789 26.8731L14.8311 26.9948C15.0629 27.076 14.7441 26.9484 14.8716 26.9948L15.1093 27.1224L15.2369 27.2035L15.3586 27.2963C15.2832 27.2383 15.2832 27.2383 15.3586 27.2963L15.6253 27.5629C15.7934 27.731 15.5441 27.4296 15.6774 27.6267L15.805 27.818C15.8382 27.8875 15.875 27.9552 15.9151 28.0209C16.0021 28.1774 15.8861 27.9108 15.9499 28.0963C16.0137 28.2818 16.0368 28.3919 16.0716 28.5484C16.0716 28.5832 16.0716 28.7166 16.0716 28.5484C16.0776 28.6566 16.0776 28.7649 16.0716 28.8731C16.0716 29.1037 16.1632 29.3249 16.3263 29.488C16.4894 29.651 16.7106 29.7426 16.9412 29.7426C17.1718 29.7426 17.393 29.651 17.5561 29.488C17.7191 29.3249 17.8108 29.1037 17.8108 28.8731C17.8027 28.0945 17.5584 27.3367 17.1102 26.7001C16.6619 26.0634 16.0309 25.5779 15.3006 25.3079C14.5765 25.0475 13.7903 25.014 13.0466 25.2118C12.303 25.4096 11.6373 25.8294 11.1383 26.4151C10.7444 26.8796 10.4683 27.4322 10.3336 28.0261C10.1988 28.62 10.2094 29.2377 10.3643 29.8267C10.5192 30.4156 10.814 30.9585 11.2235 31.4093C11.633 31.86 12.1453 32.2053 12.7167 32.4158C13.2882 32.6263 13.902 32.6959 14.5061 32.6185C15.1102 32.5412 15.6867 32.3192 16.1867 31.9715C16.6866 31.6238 17.0953 31.1605 17.3781 30.6211C17.6608 30.0817 17.8093 29.4821 17.8108 28.8731C17.8108 28.6425 17.7191 28.4213 17.5561 28.2582C17.393 28.0951 17.1718 28.0035 16.9412 28.0035C16.7106 28.0035 16.4894 28.0951 16.3263 28.2582C16.1632 28.4213 16.0716 28.6425 16.0716 28.8731L16.0948 28.8673Z" fill="#050038"/>
<path d="M29.7238 28.8673C29.7238 28.9484 29.7238 29.0296 29.7238 29.1108C29.7238 29.1513 29.7238 29.1919 29.7238 29.1108C29.7011 29.2402 29.6701 29.368 29.631 29.4934C29.631 29.5629 29.5847 29.6383 29.5557 29.7137C29.5557 29.6731 29.6253 29.5745 29.5557 29.7137C29.4861 29.8528 29.405 29.9803 29.318 30.1079C29.2311 30.2354 29.3876 30.0325 29.289 30.1426L29.1615 30.2818C29.1209 30.3224 28.86 30.5542 28.9992 30.4499C28.9019 30.5303 28.7993 30.6039 28.6919 30.6702C28.6513 30.6992 28.605 30.7166 28.5586 30.7455C28.4658 30.7861 28.5122 30.7745 28.5586 30.7455L28.4542 30.7861C28.331 30.8289 28.2051 30.8638 28.0774 30.8905C28.031 30.8905 27.8571 30.9253 28.0311 30.8905C27.9673 30.8905 27.8977 30.8905 27.8339 30.8905C27.6988 30.8993 27.5633 30.8993 27.4282 30.8905C27.2774 30.8905 27.6253 30.9369 27.3818 30.8905L27.1499 30.8325C27.0745 30.8325 27.005 30.7861 26.9296 30.7629C26.7789 30.6934 26.8542 30.7397 26.9296 30.7629C26.8145 30.7068 26.7022 30.6449 26.5934 30.5774L26.3731 30.4731C26.2571 30.3919 26.5064 30.6122 26.3383 30.4731C26.1702 30.334 26.1238 30.2644 26.0195 30.1484L25.8919 29.9571C25.8629 29.905 25.7122 29.5919 25.776 29.7542C25.7296 29.6325 25.689 29.505 25.6542 29.3832C25.6195 29.2615 25.6542 29.2789 25.6542 29.2267C25.6542 29.1224 25.6542 29.1745 25.6542 29.2267C25.6514 29.1881 25.6514 29.1494 25.6542 29.1108C25.6455 28.9872 25.6455 28.8633 25.6542 28.7397C25.6542 28.7397 25.6948 28.4615 25.6542 28.6528C25.6542 28.6006 25.6542 28.5542 25.6832 28.5021C25.7122 28.4499 25.7528 28.247 25.7934 28.1253C25.8687 27.8992 25.7122 28.2586 25.8282 28.0499C25.8687 27.9861 25.8977 27.9166 25.9383 27.847L26.0426 27.6905C26.0426 27.6499 26.176 27.5282 26.0426 27.6499C26.1296 27.5571 26.2108 27.4644 26.3035 27.3774C26.3035 27.3774 26.489 27.2209 26.3905 27.2963C26.2919 27.3716 26.4948 27.2267 26.489 27.2267C26.6172 27.1442 26.7508 27.0706 26.889 27.0064C26.7383 27.0528 26.8542 27.0064 26.889 27.0064L27.1093 26.9369L27.26 26.8963C27.26 26.8963 27.5093 26.8557 27.3818 26.8963C27.2542 26.9369 27.5151 26.8963 27.5035 26.8963H27.7122H27.9093C28.118 26.8963 27.8166 26.8615 27.9963 26.8963C28.176 26.9311 28.2977 26.9716 28.4484 27.018C28.5992 27.0644 28.3615 26.9716 28.489 27.018C28.6166 27.0644 28.6513 27.0992 28.7267 27.1455L28.8542 27.2267L28.9818 27.3195C28.9006 27.2615 28.9006 27.2615 28.9818 27.3195L29.2484 27.5861C29.4166 27.7542 29.1673 27.4528 29.3006 27.6499L29.4282 27.8412C29.4687 27.9108 29.4977 27.9803 29.5383 28.0441C29.6253 28.2006 29.5383 27.9339 29.5731 28.1195C29.6079 28.305 29.66 28.4151 29.6948 28.5716C29.6948 28.6064 29.6948 28.7397 29.6948 28.5716C29.7007 28.6798 29.7007 28.7881 29.6948 28.8963C29.6948 29.1269 29.7864 29.3481 29.9495 29.5111C30.1126 29.6742 30.3338 29.7658 30.5644 29.7658C30.795 29.7658 31.0162 29.6742 31.1793 29.5111C31.3423 29.3481 31.4339 29.1269 31.4339 28.8963C31.4259 28.1177 31.1816 27.3599 30.7334 26.7233C30.2851 26.0866 29.6541 25.6011 28.9238 25.3311C28.1997 25.0707 27.4134 25.0372 26.6698 25.235C25.9262 25.4328 25.2605 25.8526 24.7615 26.4383C24.3676 26.9028 24.0915 27.4554 23.9568 28.0493C23.822 28.6432 23.8326 29.2609 23.9875 29.8499C24.1424 30.4388 24.4371 30.9817 24.8467 31.4325C25.2562 31.8832 25.7685 32.2285 26.3399 32.439C26.9114 32.6495 27.5252 32.7191 28.1293 32.6417C28.7334 32.5644 29.3099 32.3424 29.8098 31.9947C30.3098 31.6469 30.7185 31.1837 31.0013 30.6443C31.284 30.1049 31.4324 29.5053 31.4339 28.8963C31.4339 28.6656 31.3423 28.4445 31.1793 28.2814C31.0162 28.1183 30.795 28.0267 30.5644 28.0267C30.3338 28.0267 30.1126 28.1183 29.9495 28.2814C29.7864 28.4445 29.6948 28.6656 29.6948 28.8963L29.7238 28.8673Z" fill="#050038"/>
</svg>
