<svg width="58" height="58" viewBox="0 0 58 58" fill="none" xmlns="http://www.w3.org/2000/svg">
<rect x="16" y="30.5481" width="21.9883" height="21.9883" rx="3" transform="rotate(-45 16 30.5481)" fill="#F9BB08"/>
<path d="M29.5 24.9204V13.1504C29.5 11.4504 29.42 9.73044 29.5 8.04044C29.4961 7.71213 29.5568 7.38627 29.6788 7.08145C29.8008 6.77662 29.9817 6.49882 30.211 6.26388C30.4404 6.02895 30.7138 5.8415 31.0156 5.71222C31.3174 5.58294 31.6417 5.51438 31.97 5.51044C32.2983 5.5065 32.6242 5.56726 32.929 5.68926C33.2338 5.81126 33.5116 5.9921 33.7466 6.22146C33.9815 6.45082 34.1689 6.72421 34.2982 7.02601C34.4275 7.32782 34.4961 7.65213 34.5 7.98044C34.73 12.1204 34.5 16.3304 34.5 20.4804C34.5 21.9404 34.39 23.4804 34.5 24.9004C34.5 24.4404 34.57 24.5304 34.42 24.9504C34.27 25.3704 34.15 25.8204 34.02 26.2504L32.87 30.0004C32.71 30.5204 32.56 31.8904 32.16 32.2804C31.76 32.6704 31.58 31.4204 31.5 31.0904L29.5 24.5204C28.93 22.6804 26.03 23.4704 26.6 25.3204L28.6 31.8804C28.7761 33.025 29.3626 34.0664 30.25 34.8104C30.6221 35.0514 31.0397 35.2135 31.477 35.2865C31.9142 35.3596 32.3619 35.3422 32.7921 35.2353C33.2224 35.1285 33.6261 34.9345 33.9784 34.6653C34.3306 34.3961 34.6239 34.0575 34.84 33.6704C35.233 32.7781 35.541 31.8506 35.76 30.9004L37 26.9004C37.3993 25.6062 37.5785 24.254 37.53 22.9004C37.53 17.9904 37.6 13.0804 37.53 8.18044C37.5431 7.45817 37.4139 6.74038 37.1496 6.06807C36.8853 5.39575 36.4912 4.78207 35.9898 4.26206C35.4884 3.74205 34.8894 3.3259 34.2272 3.03737C33.5649 2.74884 32.8523 2.59357 32.13 2.58044C31.4077 2.56731 30.69 2.69656 30.0176 2.96083C29.3453 3.2251 28.7316 3.6192 28.2116 4.12064C27.6916 4.62208 27.2755 5.22103 26.9869 5.88329C26.6984 6.54556 26.5431 7.25817 26.53 7.98044C26.53 8.51044 26.53 9.05044 26.53 9.58044V24.9204C26.581 25.278 26.7592 25.6052 27.032 25.8418C27.3048 26.0785 27.6538 26.2088 28.015 26.2088C28.3762 26.2088 28.7252 26.0785 28.998 25.8418C29.2708 25.6052 29.4491 25.278 29.5 24.9204Z" fill="#050038"/>
<path d="M48 46.4204H18L19.5 47.9204V23.9204L18 25.4204H48L46.5 23.9204V47.9204C46.5 48.3182 46.658 48.6998 46.9393 48.9811C47.2206 49.2624 47.6022 49.4204 48 49.4204C48.3978 49.4204 48.7794 49.2624 49.0607 48.9811C49.342 48.6998 49.5 48.3182 49.5 47.9204V23.9204C49.4948 23.5242 49.3351 23.1457 49.0549 22.8655C48.7747 22.5853 48.3962 22.4256 48 22.4204H18C17.6038 22.4256 17.2253 22.5853 16.9451 22.8655C16.6649 23.1457 16.5052 23.5242 16.5 23.9204V47.9204C16.5052 48.3166 16.6649 48.6952 16.9451 48.9753C17.2253 49.2555 17.6038 49.4152 18 49.4204H48C48.3978 49.4204 48.7794 49.2624 49.0607 48.9811C49.342 48.6998 49.5 48.3182 49.5 47.9204C49.5 47.5226 49.342 47.1411 49.0607 46.8597C48.7794 46.5784 48.3978 46.4204 48 46.4204Z" fill="#050038"/>
<path d="M3.5 43.9204V53.9204C3.50518 54.3166 3.66488 54.6952 3.94507 54.9753C4.22526 55.2555 4.60379 55.4152 5 55.4204H53C53.3962 55.4152 53.7747 55.2555 54.0549 54.9753C54.3351 54.6952 54.4948 54.3166 54.5 53.9204V18.9204C54.4948 18.5242 54.3351 18.1457 54.0549 17.8655C53.7747 17.5853 53.3962 17.4256 53 17.4204H40C39.6022 17.4204 39.2206 17.5784 38.9393 17.8598C38.658 18.1411 38.5 18.5226 38.5 18.9204C38.5 19.3182 38.658 19.6998 38.9393 19.9811C39.2206 20.2624 39.6022 20.4204 40 20.4204H53L51.5 18.9204V53.9204L53 52.4204H5L6.5 53.9204V43.9204C6.5 43.5226 6.34196 43.1411 6.06066 42.8597C5.77936 42.5784 5.39782 42.4204 5 42.4204C4.60218 42.4204 4.22064 42.5784 3.93934 42.8597C3.65804 43.1411 3.5 43.5226 3.5 43.9204Z" fill="#050038"/>
<path d="M6.5 33.9204V18.9204L5 20.4204H24C24.3978 20.4204 24.7794 20.2624 25.0607 19.9811C25.342 19.6998 25.5 19.3182 25.5 18.9204C25.5 18.5226 25.342 18.1411 25.0607 17.8598C24.7794 17.5784 24.3978 17.4204 24 17.4204H5C4.60379 17.4256 4.22526 17.5853 3.94507 17.8655C3.66488 18.1457 3.50518 18.5242 3.5 18.9204V33.9204C3.5 34.3182 3.65804 34.6998 3.93934 34.9811C4.22064 35.2624 4.60218 35.4204 5 35.4204C5.39782 35.4204 5.77936 35.2624 6.06066 34.9811C6.34196 34.6998 6.5 34.3182 6.5 33.9204Z" fill="#050038"/>
<path d="M10.25 28.4204H14.25C14.6478 28.4204 15.0294 28.2624 15.3107 27.9811C15.592 27.6998 15.75 27.3182 15.75 26.9204C15.75 26.5226 15.592 26.1411 15.3107 25.8598C15.0294 25.5784 14.6478 25.4204 14.25 25.4204H10.25C9.85218 25.4204 9.47064 25.5784 9.18934 25.8598C8.90804 26.1411 8.75 26.5226 8.75 26.9204C8.75 27.3182 8.90804 27.6998 9.18934 27.9811C9.47064 28.2624 9.85218 28.4204 10.25 28.4204Z" fill="#050038"/>
<path d="M10.5 37.4204H14.5C14.8978 37.4204 15.2794 37.2624 15.5607 36.9811C15.842 36.6998 16 36.3182 16 35.9204C16 35.5226 15.842 35.1411 15.5607 34.8597C15.2794 34.5784 14.8978 34.4204 14.5 34.4204H10.5C10.1022 34.4204 9.72064 34.5784 9.43934 34.8597C9.15804 35.1411 9 35.5226 9 35.9204C9 36.3182 9.15804 36.6998 9.43934 36.9811C9.72064 37.2624 10.1022 37.4204 10.5 37.4204Z" fill="#050038"/>
<path d="M10.25 46.4204H14.25C14.6478 46.4204 15.0294 46.2624 15.3107 45.9811C15.592 45.6998 15.75 45.3182 15.75 44.9204C15.75 44.5226 15.592 44.1411 15.3107 43.8597C15.0294 43.5784 14.6478 43.4204 14.25 43.4204H10.25C9.85218 43.4204 9.47064 43.5784 9.18934 43.8597C8.90804 44.1411 8.75 44.5226 8.75 44.9204C8.75 45.3182 8.90804 45.6998 9.18934 45.9811C9.47064 46.2624 9.85218 46.4204 10.25 46.4204Z" fill="#050038"/>
</svg>
