<svg width="58" height="58" viewBox="0 0 58 58" fill="none" xmlns="http://www.w3.org/2000/svg">
<rect x="13" y="28.0962" width="21.9883" height="21.9883" rx="3" transform="rotate(-45 13 28.0962)" fill="#F9BB08"/>
<path d="M50.5593 39.4404L51.8956 38.1041C52.4135 37.698 52.8569 37.205 53.206 36.6471C53.3944 35.7982 53.4323 34.9228 53.3181 34.0607V21.0598C53.3136 20.7182 53.1759 20.3918 52.9344 20.1503C52.6928 19.9087 52.3665 19.771 52.0249 19.7666H48.0505C47.7089 19.771 47.3825 19.9087 47.141 20.1503C46.8994 20.3918 46.7617 20.7182 46.7573 21.0598V43.2942L48.0505 42.001H43.2915L44.5847 43.2942V11.5332C44.5802 11.1916 44.4425 10.8653 44.201 10.6237C43.9594 10.3821 43.6331 10.2445 43.2915 10.24H36.9376C36.596 10.2445 36.2696 10.3821 36.0281 10.6237C35.7865 10.8653 35.6488 11.1916 35.6444 11.5332V24.2324L36.9376 22.9392H21.0571L22.3503 24.2324V11.5332C22.3414 11.1946 22.2018 10.8726 21.9607 10.6348C21.7196 10.3969 21.3958 10.2616 21.0571 10.2572H15.505C15.162 10.2572 14.833 10.3935 14.5905 10.636C14.348 10.8785 14.2118 11.2075 14.2118 11.5504C14.2118 11.8934 14.348 12.2223 14.5905 12.4649C14.833 12.7074 15.162 12.8436 15.505 12.8436H21.0571L19.7639 11.5504V24.2324C19.7684 24.574 19.906 24.9003 20.1476 25.1419C20.3892 25.3835 20.7155 25.5211 21.0571 25.5256H36.9376C37.2792 25.5211 37.6055 25.3835 37.8471 25.1419C38.0886 24.9003 38.2263 24.574 38.2308 24.2324V11.5332L36.9376 12.8436H43.2915L41.9983 11.5504V43.2942C42.0028 43.6357 42.1404 43.9621 42.382 44.2036C42.6236 44.4452 42.9499 44.5829 43.2915 44.5874H48.0505C48.392 44.5829 48.7184 44.4452 48.9599 44.2036C49.2015 43.9621 49.3392 43.6357 49.3437 43.2942V21.0598L48.0505 22.3271H52.0249L50.7317 21.0339V36.1212L51.111 35.2591L48.7229 37.6386C48.6029 37.7591 48.5078 37.9022 48.4431 38.0595C48.3784 38.2168 48.3452 38.3854 48.3456 38.5555C48.346 38.7256 48.38 38.894 48.4454 39.051C48.5109 39.208 48.6067 39.3506 48.7272 39.4706C48.9707 39.713 49.3006 39.8487 49.6441 39.8479C49.8143 39.8475 49.9826 39.8136 50.1396 39.7481C50.2967 39.6826 50.4393 39.5869 50.5593 39.4663V39.4404Z" fill="#050038"/>
<path d="M7.44402 18.5596L6.09909 19.8959C5.58118 20.302 5.13778 20.795 4.78865 21.3529C4.60313 22.2023 4.56811 23.0777 4.68519 23.9393V36.9833C4.68966 37.3249 4.82734 37.6513 5.0689 37.8928C5.31046 38.1344 5.6368 38.2721 5.97839 38.2765H9.9442C10.2858 38.2721 10.6121 38.1344 10.8537 37.8928C11.0953 37.6513 11.2329 37.3249 11.2374 36.9833V14.7058L9.9442 15.999H14.7118L13.4186 14.7058V46.4668C13.4231 46.8084 13.5607 47.1347 13.8023 47.3763C14.0439 47.6179 14.3702 47.7555 14.7118 47.76H21.0571C21.3987 47.7555 21.725 47.6179 21.9666 47.3763C22.2081 47.1347 22.3458 46.8084 22.3503 46.4668V33.7676L21.0571 35.0608H36.9376L35.6444 33.7676V46.4668C35.6488 46.8084 35.7865 47.1347 36.0281 47.3763C36.2696 47.6179 36.596 47.7555 36.9376 47.76H42.4983C42.8413 47.76 43.1702 47.6238 43.4127 47.3812C43.6553 47.1387 43.7915 46.8098 43.7915 46.4668C43.7915 46.1238 43.6553 45.7949 43.4127 45.5524C43.1702 45.3098 42.8413 45.1736 42.4983 45.1736H36.9376L38.2308 46.4668V33.7676C38.2263 33.426 38.0886 33.0997 37.8471 32.8581C37.6055 32.6165 37.2792 32.4789 36.9376 32.4744H21.0571C20.7155 32.4789 20.3892 32.6165 20.1476 32.8581C19.906 33.0997 19.7684 33.426 19.7639 33.7676V46.4668L21.0571 45.1736H14.7118L16.005 46.4668V14.7058C16.0005 14.3643 15.8628 14.0379 15.6213 13.7964C15.3797 13.5548 15.0534 13.4171 14.7118 13.4126H9.9442C9.60261 13.4171 9.27627 13.5548 9.03471 13.7964C8.79315 14.0379 8.65547 14.3643 8.651 14.7058V36.9833L9.9442 35.6901H5.97839L7.26297 36.9833V21.8529L6.88363 22.7668L9.26311 20.3873C9.49155 20.1422 9.61591 19.8179 9.60999 19.4829C9.60408 19.1479 9.46836 18.8282 9.23143 18.5913C8.99449 18.3543 8.67484 18.2186 8.33981 18.2127C8.00478 18.2068 7.68054 18.3311 7.43539 18.5596H7.44402Z" fill="#050038"/>
</svg>
