<svg width="58" height="58" viewBox="0 0 58 58" fill="none" xmlns="http://www.w3.org/2000/svg">
<rect x="13.0116" y="37" width="21.9883" height="21.9883" rx="3" transform="rotate(-45 13.0116 37)" fill="#F9BB08"/>
<path d="M8.98684 38.9894V50.9894C8.99202 51.3856 9.15172 51.7641 9.43191 52.0443C9.7121 52.3245 10.0906 52.4842 10.4868 52.4894H21.4868C21.8831 52.4842 22.2616 52.3245 22.5418 52.0443C22.822 51.7641 22.9817 51.3856 22.9868 50.9894V37.9894L21.4868 39.4894H35.4868L33.9868 37.9894V50.9894C33.992 51.3856 34.1517 51.7641 34.4319 52.0443C34.7121 52.3245 35.0906 52.4842 35.4868 52.4894H46.4868C46.8831 52.4842 47.2616 52.3245 47.5418 52.0443C47.822 51.7641 47.9817 51.3856 47.9868 50.9894V28.9894C47.9883 28.7282 47.9206 28.4712 47.7906 28.2447C47.6607 28.0181 47.4731 27.83 47.2468 27.6994L29.2468 17.6994C29.0172 17.5619 28.7545 17.4893 28.4868 17.4893C28.2192 17.4893 27.9565 17.5619 27.7268 17.6994L12.8568 29.0694L10.7268 30.6994H12.2468L5.24684 25.6994V28.2894L26.2168 12.5594L29.2168 10.2894H27.7268L35.7268 15.0894C36.0703 15.2909 36.4798 15.3478 36.8651 15.2475C37.2505 15.1471 37.5803 14.8978 37.7818 14.5544C37.9834 14.2109 38.0403 13.8015 37.9399 13.4161C37.8396 13.0307 37.5903 12.7009 37.2468 12.4994L29.2468 7.69937C29.0179 7.5598 28.755 7.48596 28.4868 7.48596C28.2187 7.48596 27.9558 7.5598 27.7268 7.69937L6.72684 23.4194L3.72684 25.6994C3.50786 25.8371 3.32739 26.0282 3.20231 26.2547C3.07723 26.4812 3.01163 26.7356 3.01163 26.9944C3.01163 27.2531 3.07723 27.5076 3.20231 27.7341C3.32739 27.9605 3.50786 28.1516 3.72684 28.2894L10.7268 33.2894C10.9565 33.4268 11.2192 33.4994 11.4868 33.4994C11.7545 33.4994 12.0172 33.4268 12.2468 33.2894L27.1168 21.9094L29.2468 20.2894H27.7268L45.7268 30.2894L44.9868 28.9894V50.9894L46.4868 49.4894H35.4868L36.9868 50.9894V37.9894C36.9817 37.5932 36.822 37.2146 36.5418 36.9344C36.2616 36.6542 35.8831 36.4945 35.4868 36.4894H21.4868C21.0906 36.4945 20.7121 36.6542 20.4319 36.9344C20.1517 37.2146 19.992 37.5932 19.9868 37.9894V50.9894L21.4868 49.4894H10.4868L11.9868 50.9894V38.9894C11.9868 38.5915 11.8288 38.21 11.5475 37.9287C11.2662 37.6474 10.8847 37.4894 10.4868 37.4894C10.089 37.4894 9.70749 37.6474 9.42618 37.9287C9.14488 38.21 8.98684 38.5915 8.98684 38.9894Z" fill="black"/>
<path d="M37.9868 13.7893V9.37932C37.9868 9.30932 37.9868 9.23932 37.9868 9.16932C37.9868 9.38932 37.9868 9.41932 37.9868 9.24932C37.9868 9.07932 38.0468 8.97932 38.0868 8.84932C38.1268 8.71932 38.0868 8.71932 38.1568 8.64932L38.0868 8.81932C38.0868 8.73932 38.2268 8.52932 38.2768 8.45932C38.3077 8.39908 38.3445 8.34212 38.3868 8.28932C38.4802 8.15599 38.4602 8.17599 38.3268 8.34932C38.3268 8.26932 38.5568 8.09932 38.6068 8.04932C38.7542 7.912 38.8724 7.7464 38.9544 7.5624C39.0364 7.3784 39.0805 7.17977 39.084 6.97837C39.0876 6.77696 39.0505 6.5769 38.9751 6.39013C38.8997 6.20335 38.7874 6.03368 38.6449 5.89124C38.5025 5.74881 38.3328 5.63652 38.146 5.56108C37.9593 5.48563 37.7592 5.44858 37.5578 5.45214C37.3564 5.45569 37.1578 5.49978 36.9738 5.58176C36.7898 5.66374 36.6242 5.78195 36.4868 5.92932C35.5357 6.87091 34.9964 8.15098 34.9868 9.48932V13.7893C34.9895 14.1863 35.1483 14.5663 35.4291 14.8471C35.7098 15.1278 36.0898 15.2867 36.4868 15.2893C36.8823 15.2816 37.2594 15.1211 37.539 14.8415C37.8187 14.5618 37.9792 14.1847 37.9868 13.7893Z" fill="black"/>
<path d="M41.3669 8.04934C41.6092 8.31715 41.7888 8.63564 41.8926 8.98161C41.9964 9.32758 42.0218 9.69233 41.9669 10.0493L41.8769 12.8693L41.7169 17.7993C41.7167 18.0616 41.7848 18.3195 41.9146 18.5474C42.0443 18.7754 42.2312 18.9656 42.4569 19.0993L52.7269 25.2593C53.0703 25.4609 53.4798 25.5178 53.8652 25.4174C54.2505 25.3171 54.5803 25.0678 54.7819 24.7243C54.9834 24.3809 55.0403 23.9714 54.94 23.586C54.8396 23.2006 54.5903 22.8709 54.2469 22.6693L43.9869 16.5593L44.7269 17.8493L44.9069 12.4293C44.9769 10.1093 45.3169 7.76934 43.4969 5.94934C43.2125 5.68438 42.8364 5.54013 42.4478 5.54699C42.0592 5.55384 41.6884 5.71127 41.4136 5.98609C41.1388 6.26092 40.9814 6.63169 40.9745 7.02029C40.9677 7.40889 41.1119 7.78499 41.3769 8.06934L41.3669 8.04934Z" fill="black"/>
</svg>
