<svg width="40" height="40" viewBox="0 0 40 40" fill="none" xmlns="http://www.w3.org/2000/svg">
<rect x="13.125" y="23.4135" width="16.3178" height="16.3178" rx="3" transform="rotate(-45 13.125 23.4135)" fill="#F9BB08"/>
<path d="M32.2464 35.1902H19.5275C19.0094 35.1902 18.5125 34.9844 18.1461 34.618C17.7797 34.2516 17.5739 33.7547 17.5739 33.2366V20.5177C17.5724 20.4619 17.5491 20.4088 17.5091 20.3698C17.469 20.3308 17.4153 20.309 17.3594 20.3091H13.7014C13.6455 20.309 13.5918 20.3308 13.5518 20.3698C13.5117 20.4088 13.4885 20.4619 13.4869 20.5177V33.2366C13.4869 33.7547 13.2811 34.2516 12.9147 34.618C12.5484 34.9844 12.0515 35.1902 11.5333 35.1902H9.79419C9.27653 35.1887 8.7805 34.9824 8.41446 34.6163C8.04841 34.2503 7.84209 33.7543 7.84057 33.2366V19.4395H9.5797V33.2366C9.5797 33.2935 9.6023 33.348 9.64252 33.3883C9.68275 33.4285 9.7373 33.4511 9.79419 33.4511H11.5333C11.5617 33.4519 11.59 33.4469 11.6163 33.4364C11.6427 33.4259 11.6667 33.4101 11.6868 33.39C11.7068 33.37 11.7226 33.346 11.7331 33.3196C11.7436 33.2932 11.7486 33.265 11.7478 33.2366V20.5177C11.7493 20.0006 11.9559 19.5052 12.3221 19.1401C12.6883 18.775 13.1843 18.5699 13.7014 18.5699H17.3594C17.8765 18.5699 18.3726 18.775 18.7388 19.1401C19.105 19.5052 19.3115 20.0006 19.313 20.5177V33.2366C19.3122 33.265 19.3172 33.2932 19.3277 33.3196C19.3382 33.346 19.354 33.37 19.3741 33.39C19.3942 33.4101 19.4181 33.4259 19.4445 33.4364C19.4709 33.4469 19.4991 33.4519 19.5275 33.4511H32.2464C32.2743 33.4511 32.3019 33.4455 32.3276 33.4347C32.3533 33.4238 32.3766 33.4079 32.396 33.3879C32.4155 33.3679 32.4307 33.3442 32.4409 33.3182C32.451 33.2922 32.4558 33.2645 32.4551 33.2366V27.6366C32.4551 27.5807 32.4333 27.527 32.3943 27.4869C32.3553 27.4469 32.3022 27.4236 32.2464 27.4221H25.3478C24.8317 27.4206 24.3371 27.2149 23.9722 26.8499C23.6072 26.4849 23.4015 25.9904 23.4 25.4743V20.5177C23.4015 20.0016 23.6072 19.5071 23.9722 19.1421C24.3371 18.7772 24.8317 18.5715 25.3478 18.5699H29.0058C29.5229 18.5699 30.019 18.775 30.3852 19.1401C30.7514 19.5052 30.9579 20.0006 30.9594 20.5177V22.883C30.9609 22.9394 30.9839 22.9931 31.0239 23.033C31.0638 23.0729 31.1175 23.096 31.1739 23.0975H32.2464C32.3022 23.0959 32.3553 23.0727 32.3943 23.0326C32.4333 22.9926 32.4551 22.9389 32.4551 22.883V20.5177C32.4566 20.0006 32.6631 19.5052 33.0293 19.1401C33.3955 18.775 33.8916 18.5699 34.4087 18.5699C34.4516 18.5696 34.4933 18.5564 34.5287 18.5321C34.564 18.5078 34.5912 18.4734 34.6068 18.4335C34.6224 18.3935 34.6256 18.3499 34.6162 18.308C34.6067 18.2662 34.5849 18.2282 34.5536 18.1989L23.0116 7.70616C22.9746 7.67652 22.9286 7.66038 22.8812 7.66038C22.8337 7.66038 22.7877 7.67652 22.7507 7.70616L17.371 11.2888C17.0774 11.4854 16.7359 11.5985 16.383 11.6159C16.0301 11.6334 15.6791 11.5545 15.3676 11.3877C15.0561 11.2209 14.7958 10.9726 14.6146 10.6692C14.4335 10.3658 14.3382 10.0189 14.3391 9.66558V7.57862C14.3391 7.52174 14.3165 7.46718 14.2763 7.42695C14.2361 7.38673 14.1815 7.36413 14.1246 7.36413H13.0522C13.0243 7.36412 12.9966 7.3697 12.9709 7.38055C12.9452 7.3914 12.922 7.40729 12.9025 7.42729C12.883 7.44729 12.8678 7.47098 12.8577 7.49698C12.8475 7.52297 12.8427 7.55073 12.8435 7.57862V13.6946C12.8432 14.0087 12.7672 14.3182 12.6219 14.5967C12.4766 14.8753 12.2662 15.1146 12.0087 15.2946L5.99709 19.5033L4.99998 18.0888L11.0116 13.8801C11.0405 13.8614 11.0643 13.8356 11.0805 13.8051C11.0967 13.7747 11.1049 13.7406 11.1043 13.7062V7.57862C11.1043 7.06149 11.3094 6.56546 11.6745 6.19925C12.0396 5.83304 12.535 5.62653 13.0522 5.625H14.1246C14.6428 5.625 15.1397 5.83083 15.506 6.1972C15.8724 6.56358 16.0782 7.06049 16.0782 7.57862V9.64819C16.0769 9.68718 16.0865 9.72578 16.106 9.75959C16.1254 9.79341 16.154 9.82109 16.1884 9.83949C16.2217 9.85941 16.2597 9.86993 16.2985 9.86993C16.3373 9.86993 16.3754 9.85941 16.4087 9.83949L21.7884 6.25109C22.1502 6.0093 22.5825 5.89562 23.0165 5.92819C23.4504 5.96077 23.8609 6.13771 24.1826 6.4308L35.7246 16.9293C36.0158 17.1948 36.2198 17.5422 36.31 17.9257C36.4001 18.3093 36.3722 18.7111 36.2299 19.0785C36.0876 19.4459 35.8375 19.7617 35.5125 19.9844C35.1875 20.2071 34.8027 20.3263 34.4087 20.3264C34.3528 20.3264 34.2991 20.3482 34.259 20.3872C34.219 20.4262 34.1957 20.4793 34.1942 20.5351V22.9004C34.1942 23.4175 33.9892 23.9135 33.624 24.2797C33.2589 24.6459 32.7635 24.8524 32.2464 24.854H31.1739C30.6558 24.854 30.1589 24.6482 29.7925 24.2818C29.4261 23.9154 29.2203 23.4185 29.2203 22.9004V20.5177C29.2203 20.4898 29.2147 20.4622 29.2039 20.4365C29.193 20.4108 29.1771 20.3875 29.1571 20.3681C29.1371 20.3486 29.1134 20.3334 29.0874 20.3232C29.0614 20.3131 29.0337 20.3083 29.0058 20.3091H25.3478C25.2925 20.3091 25.2394 20.331 25.2002 20.3702C25.1611 20.4093 25.1391 20.4624 25.1391 20.5177V25.4743C25.1391 25.5296 25.1611 25.5827 25.2002 25.6218C25.2394 25.661 25.2925 25.683 25.3478 25.683H32.2464C32.763 25.686 33.2576 25.893 33.6224 26.2589C33.9872 26.6248 34.1927 27.1199 34.1942 27.6366V33.2366C34.1942 33.7537 33.9892 34.2498 33.624 34.616C33.2589 34.9822 32.7635 35.1887 32.2464 35.1902Z" fill="#0F0D33"/>
</svg>
