<svg width="58" height="58" viewBox="0 0 58 58" fill="none" xmlns="http://www.w3.org/2000/svg">
<path d="M19.8345 29.6128C18.6629 28.4412 18.6629 26.5417 19.8345 25.3701L31.1399 14.0647C32.3115 12.8931 34.211 12.8931 35.3826 14.0647L46.688 25.3701C47.8596 26.5417 47.8596 28.4412 46.688 29.6128L35.3825 40.9182C34.211 42.0898 32.3115 42.0898 31.1399 40.9182L19.8345 29.6128Z" fill="#F9BB08"/>
<path d="M14.2168 31.3595L21.3668 32.0195L25.3168 32.3795C25.5617 32.3643 25.8076 32.3845 26.0468 32.4395C25.6868 32.2695 25.9568 32.4395 26.0468 32.6095C26.4054 33.3196 26.8378 33.99 27.3368 34.6095L29.5268 38.0595L34.7268 46.2995C35.7268 47.8395 36.6368 49.4395 37.6768 50.9395C38.5068 52.1295 39.6768 52.3095 40.9568 52.4795C42.2368 52.6495 43.8268 52.8795 45.2668 53.0395C45.9944 53.1063 46.7266 52.9774 47.3877 52.6662C48.0487 52.355 48.6146 51.8728 49.0268 51.2695C49.7168 50.2695 49.6868 48.6795 49.8468 47.5095C50.1428 46.2375 50.2904 44.9355 50.2868 43.6295C50.1243 42.7414 49.6662 41.9343 48.9868 41.3395L37.6268 28.8395L35.4368 26.4195C35.2561 26.1889 35.0589 25.9717 34.8468 25.7695C34.6468 25.6195 34.7168 25.5595 34.7368 25.7695C34.7925 24.8369 34.957 23.914 35.2268 23.0195L36.0668 18.2895C36.4468 16.1595 37.6168 13.0395 36.0668 11.1895C35.2668 10.2395 34.3868 9.34954 33.5568 8.42954C32.8286 7.43803 31.9555 6.56158 30.9668 5.82954C29.8568 5.18954 28.1968 5.23954 26.9668 5.06954C25.2168 4.81954 23.3068 4.74954 22.5568 6.74954C21.9968 8.23954 22.7868 9.34954 23.5568 10.5195L26.0468 14.3195C26.5768 15.1295 26.4968 15.1595 26.2268 16.1295C25.7335 17.5029 25.3261 18.9056 25.0068 20.3295C24.9842 20.4696 24.9473 20.607 24.8968 20.7395C25.0068 20.4995 24.8968 20.7395 24.6468 20.9295C24.3585 21.2162 24.0194 21.4468 23.6468 21.6095C23.1149 21.6647 22.5787 21.6647 22.0468 21.6095H19.5268C18.6368 21.6095 18.0668 21.8495 17.5268 21.1895L14.5268 17.9595C13.7068 17.0295 12.9768 15.9595 11.6668 15.7095C9.57679 15.3395 8.41679 17.0095 8.18679 18.8495L7.72679 22.5295C7.48679 24.4395 10.4868 24.4195 10.7268 22.5295C10.8868 21.3295 11.0268 20.1295 11.1868 18.9295C11.1868 18.8495 11.1868 18.4995 11.2568 18.4395C11.2361 18.4554 11.2193 18.4758 11.2077 18.4993C11.1961 18.5227 11.1901 18.5484 11.1901 18.5745C11.1901 18.6006 11.1961 18.6264 11.2077 18.6498C11.2193 18.6732 11.2361 18.6937 11.2568 18.7095C11.4922 19.03 11.753 19.331 12.0368 19.6095L14.9368 22.8795C15.7768 23.8795 16.5168 24.6495 17.9368 24.7095C19.1168 24.7595 20.3168 24.7095 21.4968 24.7095C22.6768 24.7095 24.1568 24.8995 25.1968 24.3395C26.3903 23.7631 27.3401 22.7814 27.8768 21.5695C28.2668 20.4195 28.5468 19.2295 28.8768 18.0695C29.2068 16.9095 29.8768 15.4295 29.4168 14.1295C28.9413 13.1037 28.3472 12.1371 27.6468 11.2495L26.4568 9.43954C26.2018 8.94631 25.8968 8.48054 25.5468 8.04954C25.3768 7.88954 25.2068 7.90954 25.3268 7.89954C26.0002 7.93589 26.6693 8.02956 27.3268 8.17954C28.1668 8.29954 29.2568 8.17954 29.8968 8.79954C30.8968 9.72954 31.7668 10.8695 32.6868 11.8795C33.0047 12.3005 33.3522 12.6981 33.7268 13.0695C33.8177 13.1558 33.9014 13.2494 33.9768 13.3495C33.9768 13.3495 33.9768 13.0295 33.9768 13.2395C33.8843 14.1495 33.7272 15.0518 33.5068 15.9395L32.0168 24.3095C31.8362 24.8844 31.7965 25.4943 31.9009 26.0877C32.0053 26.6812 32.2509 27.2408 32.6168 27.7195C32.8768 28.0295 33.1668 28.3295 33.4468 28.6295L44.5868 40.9595L46.6468 43.2295C46.8094 43.4567 46.9973 43.6647 47.2068 43.8495C47.3968 43.9695 47.4168 44.2295 47.3568 43.7895C47.3467 44.2283 47.2863 44.6645 47.1768 45.0895L46.8468 47.4295C46.7668 47.9895 46.6968 48.5595 46.6068 49.1195C46.5168 49.6795 46.5568 49.7495 46.0568 49.9795C45.2368 50.3395 43.8368 49.8595 42.9768 49.7495L40.8668 49.4695L40.2268 49.3895C39.8768 49.3895 40.2268 49.3895 40.2268 49.4395C39.2868 48.1695 38.5068 46.7395 37.6568 45.4395L28.9168 31.6295C28.6083 31.0538 28.2061 30.5333 27.7268 30.0895C26.8478 29.5496 25.8274 29.2849 24.7968 29.3295L16.2368 28.5495L14.2368 28.3595C12.3168 28.1895 12.3268 31.1895 14.2368 31.3595H14.2168Z" fill="#050038"/>
</svg>
