<svg width="58" height="58" viewBox="0 0 58 58" fill="none" xmlns="http://www.w3.org/2000/svg">
<rect x="15.5855" y="28.5481" width="21.9883" height="21.9883" rx="3" transform="rotate(-45 15.5855 28.5481)" fill="#F9BB08"/>
<path d="M48.6382 45.2843L44.7774 39.6134L42.4655 36.2428C42.1176 35.7327 41.6125 35.3426 42.2186 34.8925C43.2831 34.2732 44.4103 33.7442 45.5855 33.3123C46.82 32.7322 48.0882 32.1821 49.3115 31.582C52.1734 30.1717 52.0163 27.0912 49.435 25.5809C40.1199 20.0399 30.5242 14.839 21.0857 9.46811L14.711 5.84748C13.8164 5.28273 12.883 4.7683 11.9165 4.30721C11.3516 4.07541 10.7311 3.97207 10.1105 4.00646C9.48985 4.04085 8.88848 4.21189 8.36023 4.50426C7.83198 4.79663 7.39335 5.2012 7.08363 5.68174C6.77391 6.16227 6.60277 6.70377 6.58553 7.25772C6.62351 7.71269 6.70232 8.16421 6.82122 8.60796L7.70783 13.2388L13.8019 45.0943C14.0376 46.3745 14.1049 47.7548 15.2273 48.7149C18.1452 51.2154 21.3438 48.0148 23.5547 46.3945L25.3616 45.0643C25.7378 44.711 26.1598 44.3988 26.6186 44.1341C27.2134 43.8941 27.3593 44.3342 27.7409 44.8543L33.2514 51.6154L34.6431 53.3457C35.9 54.896 38.818 53.4058 37.5498 51.8355L33.3861 46.6646L30.8609 43.524C30.326 42.7053 29.6032 41.9964 28.7398 41.4437C25.7432 39.9534 22.8252 43.054 20.7602 44.6142L19.0319 45.8844C18.7513 46.0845 18.336 46.5546 17.9881 46.6446C17.6402 46.7346 17.4719 46.3945 17.3708 46.0045C16.473 42.4238 15.9792 38.7232 15.2946 35.1026L11.9277 17.5095L10.6595 10.6583L10.233 8.41793C10.1122 8.06025 10.0406 7.69081 10.0198 7.31773C10.0759 7.00768 10.3452 6.98768 10.7605 7.1277C11.1579 7.31065 11.5339 7.52843 11.8828 7.77781L17.0342 10.6983L46.5058 27.4612C47.1006 27.8013 48.683 28.3114 47.7964 28.9415C46.8013 29.5217 45.745 30.0141 44.6428 30.4118C43.3746 31.0019 42.0951 31.582 40.8382 32.1921C40.1025 32.4928 39.4907 32.991 39.0882 33.6168C38.6858 34.2427 38.5128 34.9649 38.5936 35.6827C38.7946 36.5415 39.2045 37.3507 39.7944 38.0531L44.654 45.1443L45.7763 46.7946C46.8986 48.4449 49.8166 46.9346 48.683 45.2843H48.6382Z" fill="#050038"/>
</svg>
