<svg width="58" height="58" viewBox="0 0 58 58" fill="none" xmlns="http://www.w3.org/2000/svg">
<path d="M17.5096 26.1517C16.338 24.9801 16.338 23.0806 17.5096 21.9091L28.8151 10.6036C29.9866 9.43205 31.8861 9.43205 33.0577 10.6036L44.3632 21.9091C45.5347 23.0806 45.5347 24.9801 44.3632 26.1517L33.0577 37.4572C31.8861 38.6287 29.9866 38.6287 28.8151 37.4572L17.5096 26.1517Z" fill="#F9BB08"/>
<path d="M33.0132 44.7027L39.7532 51.4427C40.7532 52.4427 41.7532 53.4427 42.7532 54.4427C43.1078 54.7982 43.5317 55.0769 43.9987 55.2615C44.4656 55.446 44.9655 55.5326 45.4673 55.5157C45.9691 55.4988 46.4621 55.3789 46.9155 55.1633C47.369 54.9478 47.7733 54.6412 48.1032 54.2627C49.4432 52.9627 50.7432 51.6227 52.1032 50.2627C53.6832 48.6827 54.2832 46.5627 52.6132 44.7327C50.3332 42.2327 47.8032 39.9227 45.4132 37.5327C44.5432 36.6627 43.7132 35.7527 42.8032 34.9227C42.3339 34.4757 41.7532 34.1628 41.1217 34.0168C40.4902 33.8708 39.8311 33.897 39.2132 34.0927C38.0832 34.4427 37.7532 35.3727 36.8332 35.9127C36.1132 36.3327 35.4232 35.2227 34.9632 34.7627C34.5032 34.3027 33.4532 33.6527 33.7632 32.9527C34.0732 32.2527 35.0132 31.5927 35.4832 31.0827L43.6532 22.2327C45.4332 20.3027 48.4832 18.0527 47.6532 15.1227C47.2132 13.4227 46.6732 11.7427 46.2132 10.0927C45.8132 8.75273 45.5532 6.99273 44.7032 5.84273C44.292 5.27636 43.7213 4.84542 43.0641 4.60496C42.4068 4.36449 41.6928 4.32542 41.0132 4.49273C40.0132 4.74273 39.3132 5.98273 38.4132 5.19273C37.8032 4.66273 37.3032 4.02273 36.6832 3.49273C35.8522 2.83191 34.8017 2.51034 33.7432 2.59273C32.0632 2.59273 29.7432 2.18273 28.1332 2.94273C27.4178 3.36645 26.7705 3.89575 26.2132 4.51273L18.7932 11.5127L9.73318 20.0927L6.63318 23.0127C6.05891 23.4903 5.53607 24.0266 5.07318 24.6127C4.07318 26.0727 4.46318 28.3627 4.46318 30.0427C4.46318 31.8927 4.23318 33.6427 5.60318 35.1127C6.77318 36.3527 8.00318 37.5827 9.24318 38.7427C10.6732 40.0927 12.2432 39.9227 14.1032 39.9227C15.9632 39.9227 18.1032 40.3127 19.6432 39.3927C20.2716 38.9361 20.8365 38.3981 21.3232 37.7927L36.8132 21.3327L39.4632 18.5127C39.7701 18.25 40.018 17.9253 40.1903 17.5599C40.3627 17.1945 40.4557 16.7967 40.4632 16.3927C40.4632 14.8427 40.4632 13.2927 40.4632 11.7427C40.4632 11.3449 40.3051 10.9634 40.0238 10.6821C39.7425 10.4008 39.361 10.2427 38.9632 10.2427C38.5654 10.2427 38.1838 10.4008 37.9025 10.6821C37.6212 10.9634 37.4632 11.3449 37.4632 11.7427V16.8227L37.9032 15.7627L19.6832 35.1427C19.2303 35.6841 18.7391 36.192 18.2132 36.6627C17.4832 37.2227 15.9232 36.9027 15.0432 36.9027C13.9932 36.9027 12.2032 37.2927 11.3232 36.6027C10.0916 35.5512 8.94474 34.4043 7.89318 33.1727C7.09318 32.3027 7.42318 30.8927 7.42318 29.7727V27.1527C7.36763 26.8049 7.44241 26.4488 7.63318 26.1527C8.03013 25.6994 8.46872 25.2842 8.94318 24.9127L11.9232 22.0927L20.2132 14.3127L27.4932 7.43273C28.0291 6.85743 28.6038 6.3195 29.2132 5.82273C29.9632 5.31273 31.2932 5.59273 32.1432 5.59273C32.8552 5.53272 33.5711 5.53272 34.2832 5.59273C34.9332 5.71273 35.3632 6.36273 35.8132 6.81273C36.3624 7.45778 37.0446 7.97632 37.8132 8.33273C38.5007 8.59179 39.2511 8.63367 39.9632 8.45273C40.6432 8.27273 41.0932 7.59273 41.7032 7.45273C42.6432 7.19273 42.8932 9.45273 43.0632 9.99273L44.6232 15.1927C44.8532 15.9627 45.0432 16.3427 44.5132 16.9727C43.7132 17.9027 42.8432 18.7827 42.0132 19.6827L34.3732 27.9527C32.5332 29.9527 29.1732 32.5927 31.5132 35.5127C32.4349 36.7839 33.5885 37.8696 34.9132 38.7127C35.5191 39.0164 36.1996 39.1392 36.8735 39.0665C37.5473 38.9938 38.186 38.7287 38.7132 38.3027C39.2632 37.8727 39.9332 36.6627 40.7132 37.1127C41.4512 37.6853 42.1221 38.3395 42.7132 39.0627L46.7132 43.0627L50.0532 46.3927C50.2526 46.5522 50.4337 46.7333 50.5932 46.9327C50.9432 47.5227 50.3932 47.8727 50.0032 48.2527L46.2132 51.9627C45.8532 52.3327 45.5632 52.7727 45.0132 52.4427C44.7779 52.2525 44.5634 52.038 44.3732 51.8027L37.0132 44.4627L35.1332 42.5827C34.8488 42.3178 34.4727 42.1735 34.0841 42.1804C33.6955 42.1872 33.3248 42.3447 33.0499 42.6195C32.7751 42.8943 32.6177 43.2651 32.6108 43.6537C32.604 44.0423 32.7482 44.4184 33.0132 44.7027Z" fill="black"/>
</svg>
