<svg width="58" height="58" viewBox="0 0 58 58" fill="none" xmlns="http://www.w3.org/2000/svg">
<rect x="16.7615" y="34.5481" width="21.9883" height="21.9883" rx="3" transform="rotate(-45 16.7615 34.5481)" fill="#F9BB08"/>
<path d="M20.5559 31.639C20.5399 30.3275 20.7986 29.0272 21.3153 27.8216C21.8319 26.616 22.5952 25.5319 23.5559 24.639C25.5722 22.9414 28.0763 21.9293 30.7059 21.749C35.8659 21.249 42.3059 22.869 44.0959 28.369C44.9559 31.019 44.6859 34.179 44.5859 36.929C44.4459 40.489 43.8459 44.109 41.8959 47.149C40.2365 49.8034 37.814 51.8947 34.9459 53.149C32.3459 54.149 30.0359 53.299 27.8259 51.779C24.6559 49.6116 22.3565 46.391 21.3359 42.689C20.3359 39.079 20.5859 35.359 20.5959 31.689C20.5959 31.2912 20.4379 30.9097 20.1566 30.6284C19.8753 30.3471 19.4938 30.189 19.0959 30.189C18.6981 30.189 18.3166 30.3471 18.0353 30.6284C17.754 30.9097 17.5959 31.2912 17.5959 31.689C17.5959 35.509 17.4159 39.349 18.3359 43.099C19.335 47.0474 21.5663 50.5747 24.7059 53.169C27.2059 55.239 30.4159 57.089 33.7759 56.579C37.1359 56.069 40.4059 53.659 42.6559 51.109C45.3397 47.9456 46.9812 44.0306 47.3559 39.899C47.5675 37.9599 47.6543 36.0093 47.6159 34.059C47.6782 32.3541 47.5844 30.6469 47.3359 28.959C45.9859 21.979 39.0759 18.629 32.5559 18.639C28.7505 18.5404 25.0241 19.7355 21.9859 22.029C20.5868 23.2046 19.4669 24.6769 18.7075 26.3391C17.9482 28.0013 17.5685 29.8118 17.5959 31.639C17.6538 31.9898 17.8344 32.3086 18.1054 32.5386C18.3765 32.7686 18.7204 32.8949 19.0759 32.8949C19.4314 32.8949 19.7754 32.7686 20.0464 32.5386C20.3175 32.3086 20.4981 31.9898 20.5559 31.639Z" fill="#050038"/>
<path d="M26.0459 37.639C27.9789 37.639 29.5459 36.7436 29.5459 35.639C29.5459 34.5345 27.9789 33.639 26.0459 33.639C24.1129 33.639 22.5459 34.5345 22.5459 35.639C22.5459 36.7436 24.1129 37.639 26.0459 37.639Z" fill="#050038"/>
<path d="M32.5459 48.639C34.4789 48.639 36.0459 48.1913 36.0459 47.639C36.0459 47.0868 34.4789 46.639 32.5459 46.639C30.6129 46.639 29.0459 47.0868 29.0459 47.639C29.0459 48.1913 30.6129 48.639 32.5459 48.639Z" fill="#050038"/>
<path d="M39.0459 37.639C40.9789 37.639 42.5459 36.7436 42.5459 35.639C42.5459 34.5345 40.9789 33.639 39.0459 33.639C37.1129 33.639 35.5459 34.5345 35.5459 35.639C35.5459 36.7436 37.1129 37.639 39.0459 37.639Z" fill="#050038"/>
<path d="M29.8259 39.479L28.8259 43.479C28.7972 43.5901 28.794 43.7061 28.8166 43.8186C28.8391 43.931 28.8868 44.0369 28.9561 44.1283C29.0253 44.2196 29.1144 44.2942 29.2165 44.3463C29.3187 44.3983 29.4313 44.4266 29.5459 44.429H35.5459C35.6608 44.4263 35.7735 44.3978 35.876 44.3458C35.9784 44.2938 36.0679 44.2195 36.1379 44.1284C36.2079 44.0373 36.2566 43.9317 36.2805 43.8194C36.3044 43.707 36.3028 43.5907 36.2759 43.479L35.2759 39.479C35.2242 39.2867 35.0982 39.1229 34.9257 39.0235C34.7532 38.9241 34.5482 38.8973 34.3559 38.949C34.1637 39.0007 33.9998 39.1267 33.9004 39.2993C33.801 39.4718 33.7742 39.6767 33.8259 39.869L34.8259 43.869L35.5459 42.929H29.5459L30.2759 43.869L31.2759 39.869C31.3277 39.6767 31.3009 39.4718 31.2015 39.2993C31.1021 39.1267 30.9382 39.0007 30.7459 38.949C30.5536 38.8973 30.3487 38.9241 30.1762 39.0235C30.0036 39.1229 29.8777 39.2867 29.8259 39.479Z" fill="#050038"/>
<path d="M22.5459 37.639H19.1759C18.9786 37.6377 18.7829 37.6756 18.6003 37.7505C18.4178 37.8254 18.2519 37.9359 18.1123 38.0754C17.9728 38.215 17.8623 38.3808 17.7874 38.5634C17.7125 38.746 17.6746 38.9417 17.6759 39.139C17.6836 39.5344 17.8441 39.9115 18.1238 40.1912C18.4034 40.4708 18.7805 40.6313 19.1759 40.639H22.5459C22.9452 40.6319 23.3272 40.4749 23.6159 40.199C23.8213 39.9869 23.9599 39.7191 24.0146 39.429C24.0694 39.1389 24.0379 38.8391 23.924 38.5666C23.8102 38.2942 23.6189 38.0612 23.374 37.8963C23.1291 37.7314 22.8412 37.642 22.5459 37.639Z" fill="#050038"/>
<path d="M45.8859 37.639H43.0459C42.6481 37.639 42.2666 37.7971 41.9853 38.0784C41.704 38.3597 41.5459 38.7412 41.5459 39.139C41.5459 39.5368 41.704 39.9184 41.9853 40.1997C42.2666 40.481 42.6481 40.639 43.0459 40.639H45.8859C46.2956 40.6395 46.6896 40.4819 46.9859 40.199C47.2627 39.9136 47.4174 39.5316 47.4174 39.134C47.4174 38.7364 47.2627 38.3545 46.9859 38.069C46.6941 37.7993 46.3133 37.6463 45.9159 37.639H45.8859Z" fill="#050038"/>
<path d="M41.9259 49.129L38.6059 47.579L38.1359 47.359C37.7837 47.1706 37.3747 47.1173 36.9859 47.209C36.6122 47.3247 36.2985 47.5819 36.1117 47.9256C35.9249 48.2694 35.8798 48.6725 35.9859 49.049C36.0335 49.2382 36.1192 49.4156 36.2379 49.5703C36.3566 49.7251 36.5056 49.854 36.6759 49.949L39.9859 51.479L40.4559 51.699C40.8082 51.8874 41.2171 51.9407 41.6059 51.849C41.9889 51.7438 42.3145 51.491 42.5113 51.1461C42.7081 50.8011 42.7601 50.3922 42.6559 50.009C42.6084 49.8199 42.5226 49.6425 42.404 49.4877C42.2853 49.3329 42.1362 49.2041 41.9659 49.109L41.9259 49.129Z" fill="#050038"/>
<path d="M34.0359 55.139V51.639C34.0325 51.2409 33.879 50.8588 33.6059 50.569C33.3942 50.3604 33.1257 50.2188 32.8338 50.1621C32.542 50.1055 32.24 50.1362 31.9656 50.2504C31.6911 50.3647 31.4565 50.5574 31.2912 50.8044C31.1258 51.0514 31.037 51.3418 31.0359 51.639V55.139C31.0446 55.535 31.2016 55.9133 31.476 56.199C31.7605 56.4751 32.1395 56.6324 32.5359 56.639C32.9322 56.6339 33.3107 56.4742 33.5909 56.194C33.8711 55.9138 34.0308 55.5352 34.0359 55.139Z" fill="#050038"/>
<path d="M26.5359 47.559L23.7959 49.079L23.4059 49.299C23.0684 49.4988 22.8212 49.8212 22.7159 50.199C22.6628 50.391 22.6487 50.5917 22.6744 50.7892C22.7002 50.9867 22.7653 51.1771 22.8659 51.349C23.07 51.6883 23.3984 51.9345 23.7812 52.0354C24.1641 52.1362 24.5712 52.0837 24.9159 51.889L27.6559 50.369L28.0459 50.149C28.3834 49.9493 28.6306 49.6268 28.7359 49.249C28.7891 49.057 28.8032 48.8564 28.7774 48.6588C28.7516 48.4613 28.6865 48.2709 28.5859 48.099C28.3818 47.7598 28.0534 47.5135 27.6706 47.4127C27.2877 47.3118 26.8807 47.3643 26.5359 47.559Z" fill="#050038"/>
<path d="M39.9259 21.089V16.139L38.4259 17.639H44.4259L42.9259 16.139V25.669C42.9259 26.0668 43.084 26.4484 43.3653 26.7297C43.6466 27.011 44.0281 27.169 44.4259 27.169C44.8238 27.169 45.2053 27.011 45.4866 26.7297C45.7679 26.4484 45.9259 26.0668 45.9259 25.669V16.139C45.9233 15.742 45.7644 15.362 45.4837 15.0813C45.203 14.8005 44.8229 14.6416 44.4259 14.639H38.4259C38.0297 14.6442 37.6512 14.8039 37.371 15.0841C37.0908 15.3643 36.9311 15.7428 36.9259 16.139V21.089C36.9259 21.4868 37.084 21.8684 37.3653 22.1497C37.6466 22.431 38.0281 22.589 38.4259 22.589C38.8238 22.589 39.2053 22.431 39.4866 22.1497C39.7679 21.8684 39.9259 21.4868 39.9259 21.089Z" fill="#050038"/>
<path d="M43.9359 11.139H39.1559C38.5429 11.139 38.0459 11.636 38.0459 12.249V15.029C38.0459 15.6421 38.5429 16.139 39.1559 16.139H43.9359C44.549 16.139 45.0459 15.6421 45.0459 15.029V12.249C45.0459 11.636 44.549 11.139 43.9359 11.139Z" fill="#050038"/>
<path d="M43.4059 5.32903L40.5359 3.60903C40.3749 3.51129 40.1908 3.45823 40.0024 3.4553C39.8141 3.45237 39.6283 3.49969 39.4644 3.59237C39.3004 3.68506 39.164 3.81977 39.0694 3.98264C38.9748 4.14551 38.9253 4.33066 38.9259 4.51903V11.639H43.9259V6.23903C43.9246 6.05548 43.8761 5.87537 43.785 5.716C43.6939 5.55663 43.5634 5.42337 43.4059 5.32903ZM43.1559 5.64903C43.0759 5.84903 42.3859 5.76903 41.6159 5.46903C40.8459 5.16903 40.2859 4.73903 40.3759 4.52903C40.4659 4.31903 41.1459 4.39903 41.9159 4.70903C42.6859 5.01903 43.2459 5.47903 43.1559 5.64903Z" fill="#050038"/>
<path d="M15.7759 20.159C15.1359 18.229 8.56593 7.45903 10.4959 6.81903C12.4259 6.17903 22.1259 15.909 22.7659 17.819C23.4059 19.729 25.8559 20.669 23.9259 21.309C21.9959 21.949 16.4159 22.089 15.7759 20.159Z" fill="#050038"/>
<path d="M30.6959 15.209C30.0559 13.279 28.8959 0.719027 26.9859 1.35903C25.0759 1.99903 23.0859 15.599 23.7259 17.529C24.3659 19.459 22.9559 21.659 24.8859 21.019C26.8159 20.379 31.3359 17.139 30.6959 15.209Z" fill="#050038"/>
<path d="M24.0459 22.639C25.7028 22.639 27.0459 21.2959 27.0459 19.639C27.0459 17.9822 25.7028 16.639 24.0459 16.639C22.3891 16.639 21.0459 17.9822 21.0459 19.639C21.0459 21.2959 22.3891 22.639 24.0459 22.639Z" fill="#050038"/>
</svg>
