<svg width="58" height="58" viewBox="0 0 58 58" fill="none" xmlns="http://www.w3.org/2000/svg">
<rect x="10" y="25.4814" width="29.2007" height="29.2007" rx="3" transform="rotate(-45 10 25.4814)" fill="#F9BB08"/>
<path d="M31.1707 55.6349V44.5489L29.785 45.9346H35.328C35.5406 45.9316 35.7497 45.8803 35.9396 45.7847C36.1295 45.689 36.2952 45.5515 36.4242 45.3825C36.5532 45.2134 36.6421 45.0173 36.6843 44.8089C36.7264 44.6005 36.7207 44.3852 36.6675 44.1794L34.4595 37.5555L33.4895 39.2553C39.4575 37.6109 44.2522 32.2065 45.8689 26.3679C46.2917 24.3283 46.5542 22.2587 46.6541 20.1782C46.7285 19.5653 46.7502 18.9471 46.7188 18.3305C46.6202 15.5674 45.6246 12.9115 43.8826 10.7643C40.5107 6.67175 34.7921 5.66477 29.7757 5.63705C29.4082 5.63705 29.0557 5.78305 28.7958 6.04293C28.536 6.30281 28.39 6.65528 28.39 7.0228C28.39 7.39033 28.536 7.7428 28.7958 8.00268C29.0557 8.26255 29.4082 8.40855 29.7757 8.40855C33.8036 8.40855 38.3766 9.046 41.3329 12.1039C42.1783 12.9844 42.8408 14.0237 43.2822 15.1618C43.6104 16.0754 43.8124 17.0296 43.8826 17.9979C43.9196 18.6564 43.9196 19.3165 43.8826 19.9749C43.8826 20.4184 43.8826 19.6886 43.8826 19.9103C43.8674 21.3161 43.7407 22.7186 43.5039 24.1045C42.8136 27.99 40.7314 31.491 37.6468 33.9525C36.5424 34.8061 35.3426 35.5284 34.0715 36.1051C33.9345 36.1834 33.7888 36.2454 33.6373 36.2898L33.1662 36.4746C33.0276 36.5208 32.8798 36.5762 32.732 36.6132C32.3894 36.724 32.1026 36.9623 31.9306 37.2786C31.7587 37.595 31.7149 37.9653 31.8082 38.313L34.0254 44.9461L35.3557 43.1909H29.8127C29.4466 43.1956 29.0969 43.3432 28.8381 43.602C28.5792 43.8609 28.4317 44.2106 28.4269 44.5766V55.6626C28.4269 56.0301 28.5729 56.3826 28.8328 56.6425C29.0927 56.9024 29.4451 57.0483 29.8127 57.0483C30.1802 57.0483 30.5327 56.9024 30.7925 56.6425C31.0524 56.3826 31.1984 56.0301 31.1984 55.6626L31.1707 55.6349Z" fill="#050038"/>
<path d="M25.6831 44.9554L27.9003 38.3223C27.9916 37.9684 27.9414 37.5929 27.7603 37.2755C27.5791 36.9581 27.2814 36.7238 26.9303 36.6224L26.607 36.5208L26.2282 36.3822C26.1173 36.3822 25.5353 36.1051 25.8587 36.2436C24.7581 35.7697 23.7087 35.1847 22.7269 34.4976C19.7148 32.4065 17.5234 29.3334 16.528 25.8043C16.0104 23.86 15.7434 21.8576 15.7335 19.8456C15.7335 20.5477 15.7335 19.8456 15.7335 19.6516C15.715 19.3039 15.715 18.9554 15.7335 18.6077C15.725 17.6986 15.8622 16.7941 16.14 15.9286C16.438 14.8164 16.9529 13.774 17.655 12.8614C20.4727 9.1661 25.5815 8.43627 29.9051 8.40855C30.2726 8.40855 30.6251 8.26255 30.8849 8.00268C31.1448 7.7428 31.2908 7.39033 31.2908 7.0228C31.2908 6.65528 31.1448 6.30281 30.8849 6.04293C30.6251 5.78305 30.2726 5.63705 29.9051 5.63705C25.2305 5.63705 20.1494 6.56089 16.6481 9.85897C14.5534 11.9268 13.2687 14.6765 13.0266 17.6099C12.9528 18.3718 12.9528 19.1391 13.0266 19.901C13.1652 21.3884 13.156 22.8388 13.4146 24.3909C14.1269 28.8483 16.423 32.8993 19.8815 35.8002C21.729 37.381 23.879 38.5692 26.2005 39.2923L25.2212 37.5924L23.0133 44.2163C22.4497 45.9162 25.1288 46.646 25.6831 44.9554Z" fill="#050038"/>
</svg>
