<svg width="58" height="58" viewBox="0 0 58 58" fill="none" xmlns="http://www.w3.org/2000/svg">
<rect x="6.04167" y="21.2039" width="26.5692" height="26.5692" rx="3" transform="rotate(-45 6.04167 21.2039)" fill="#F9BB08"/>
<path d="M33.3458 50.7794L40.3478 48.0223C43.1217 46.9296 45.8788 45.9461 47.1902 42.9788C48.6612 39.667 47.6104 36.2542 45.0971 33.8417L38.7928 27.7391C36.9435 25.9487 35.1278 23.7296 32.5557 23.0235C31.4219 22.7213 30.2346 22.6785 29.0821 22.8982C27.9295 23.118 26.8413 23.5946 25.8983 24.2927C25.1538 24.9 24.4595 25.5662 23.822 26.2849L17.4336 32.9087C15.5003 34.9093 13.6174 36.7922 13.4661 39.7846C13.4142 40.9376 13.6205 42.0876 14.0698 43.1507C14.5192 44.2138 15.2003 45.1631 16.0635 45.9293C17.1917 46.8271 18.4814 47.5005 19.8629 47.913L27.9745 50.8299C28.1632 50.8786 28.3605 50.8835 28.5514 50.8442C28.7423 50.8049 28.9216 50.7225 29.0758 50.6033C29.2299 50.484 29.3547 50.3311 29.4406 50.1562C29.5266 49.9813 29.5714 49.7891 29.5716 49.5942V43.8783C29.5683 43.6029 29.4767 43.3358 29.3102 43.1164C29.1438 42.897 28.9113 42.7368 28.647 42.6594L25.2846 41.4406C24.0574 41.0035 22.9058 40.4655 22.8133 38.9693C22.7293 37.7672 23.5867 37.0443 24.3348 36.2626L27.4786 33.0096C28.193 32.2783 28.9748 31.1771 30.0003 30.9249C31.4041 30.5887 32.253 31.5217 33.1525 32.3875L36.3887 35.5229C37.0612 36.1617 38.0699 36.8846 38.3977 37.7841C39.0365 39.4652 37.7168 40.6168 36.3971 41.1464L32.6817 42.609C31.1939 43.1974 31.8412 45.6435 33.3542 45.0467C36.2038 43.9203 40.3142 43.0965 40.9699 39.5661C41.1136 38.6686 41.0236 37.7493 40.7085 36.8968C40.3934 36.0442 39.8639 35.2873 39.171 34.6991L35.5565 31.2107C34.4386 30.1348 33.3878 28.8991 31.8244 28.4956C29.7397 27.9661 27.9661 28.8571 26.5539 30.3197L23.0067 33.9846C21.9728 35.0522 20.8128 36.0609 20.4261 37.5655C20.1221 38.7892 20.2874 40.0823 20.8896 41.1901C21.4917 42.2979 22.4869 43.14 23.6791 43.5504C25.0997 44.0884 26.5455 44.5759 27.9745 45.0887L27.0499 43.8783V49.5942L28.647 48.3754L22.3426 46.1142C20.031 45.2736 17.4336 44.7188 16.3829 42.1971C16.0512 41.4 15.9214 40.5334 16.005 39.6741C16.0886 38.8149 16.383 37.9895 16.862 37.2713C17.3023 36.6897 17.7916 36.1469 18.3246 35.649L24.2087 29.5548C25.7133 27.9997 27.2432 25.8814 29.4707 25.4107C32.2867 24.8223 34.0435 26.68 35.8423 28.4284L42.029 34.3797C43.7102 35.9768 45.4417 37.431 45.3913 39.9696C45.3545 40.9468 45.0443 41.8942 44.496 42.704C43.9477 43.5138 43.1833 44.1536 42.2896 44.5507C41.449 44.9122 40.6084 45.198 39.8351 45.5258L32.6733 48.3501C31.1855 48.9385 31.8328 51.3762 33.3458 50.7794Z" fill="#050038"/>
<path d="M24.3768 18.4423H21.107C21.0229 18.4423 20.7287 18.3751 21.0229 18.4423C20.9598 18.4206 20.8952 18.4037 20.8296 18.3919C20.5942 18.3499 20.9893 18.5096 20.7707 18.3919C20.5522 18.2742 20.4177 18.1481 20.6194 18.3246C20.5678 18.2842 20.52 18.2392 20.4765 18.1901C20.4765 18.1901 20.2748 17.9464 20.3841 18.0977C20.4933 18.249 20.3841 18.0977 20.3841 18.0304C20.3841 17.9632 20.3 17.8875 20.2664 17.8119C20.3336 18.0472 20.2664 17.8707 20.2664 17.8119C20.2664 17.7362 20.2243 17.4588 20.2664 17.753C20.2664 17.5177 20.2664 17.2907 20.2664 17.0554V14.6597C20.2664 14.5588 20.2664 14.458 20.2664 14.3571C20.2664 14.3571 20.2664 14.0209 20.2664 14.2226C20.2664 14.4243 20.3168 14.0713 20.3168 14.0461C20.3168 14.0209 20.2159 14.189 20.3168 14.0461C20.361 13.9789 20.4003 13.9087 20.4345 13.8359C20.5774 13.6762 20.4345 13.7687 20.4345 13.8359L20.5606 13.7014C20.604 13.6524 20.6519 13.6074 20.7035 13.567C20.653 13.609 20.5017 13.7435 20.7035 13.567L20.8716 13.4745H20.7959H20.9388C21.2414 13.4745 21.0145 13.4745 20.9388 13.4745H24.3768C24.4861 13.4745 24.7046 13.5501 24.4609 13.4745L24.6542 13.5249C24.9316 13.567 24.5365 13.4325 24.6542 13.5249C24.7719 13.6174 25.0745 13.8191 24.8475 13.6174C24.9434 13.7006 25.0333 13.7905 25.1165 13.8864C25.0577 13.8023 24.9484 13.7099 25.1165 13.8864C25.1664 13.9706 25.2113 14.0576 25.251 14.147C25.0913 13.7855 25.3099 14.4664 25.251 14.2478C25.1922 14.0293 25.251 14.3655 25.251 14.3907C25.2552 14.4719 25.2552 14.5533 25.251 14.6345V17.2319C25.251 17.3328 25.251 17.442 25.251 17.5429C25.251 17.6438 25.251 17.6942 25.251 17.7699C25.251 17.6606 25.251 17.5093 25.251 17.7699C25.251 17.8791 25.1586 18.0388 25.251 17.8371C25.251 17.9128 25.1838 17.98 25.1417 18.0557C25.0997 18.1313 25.0325 18.1986 25.1417 18.0557C25.0913 18.1229 25.0325 18.1733 24.982 18.2322C24.9316 18.291 24.8391 18.333 24.982 18.2322L24.7719 18.3583L24.6458 18.4255C24.7803 18.3667 24.8055 18.3583 24.713 18.3835C24.6468 18.3925 24.5819 18.4095 24.5197 18.4339C24.4272 18.4339 24.4609 18.4339 24.6122 18.4339H24.3768C24.0424 18.4339 23.7217 18.5668 23.4852 18.8032C23.2488 19.0397 23.1159 19.3604 23.1159 19.6948C23.1159 20.0292 23.2488 20.3499 23.4852 20.5864C23.7217 20.8228 24.0424 20.9557 24.3768 20.9557C25.269 20.9339 26.1179 20.567 26.745 19.9321C27.3722 19.2971 27.7285 18.4437 27.7391 17.5513C27.7391 16.7864 27.7391 16.013 27.7391 15.2481C27.7391 14.9371 27.7391 14.6345 27.7391 14.3235C27.7351 13.4915 27.4374 12.6878 26.8986 12.0539C26.5863 11.7084 26.2068 11.4303 25.7833 11.2366C25.3598 11.043 24.9012 10.9378 24.4357 10.9275H21.149C20.3562 10.9277 19.588 11.2025 18.975 11.7051C18.362 12.2078 17.9421 12.9073 17.7867 13.6846C17.6955 14.5473 17.6758 15.4161 17.7278 16.282C17.6078 17.2932 17.7617 18.318 18.1733 19.2493C18.4106 19.6811 18.7399 20.0556 19.1379 20.3461C19.5359 20.6366 19.9929 20.8361 20.4765 20.9304C20.9113 20.9864 21.3496 21.0089 21.7878 20.9977H24.3768C24.7105 20.9955 25.03 20.8619 25.2659 20.6259C25.5019 20.39 25.6355 20.0705 25.6377 19.7368C25.64 19.3986 25.5089 19.0731 25.2729 18.8308C25.0369 18.5885 24.715 18.4489 24.3768 18.4423Z" fill="#050038"/>
<path d="M45.5174 32.2278H48.7536C49.5628 32.2103 50.3409 31.9133 50.9559 31.3873C51.2962 31.0937 51.5742 30.7349 51.7734 30.3321C51.9727 29.9293 52.0891 29.4906 52.1159 29.042C52.1159 28.773 52.1159 28.4957 52.1159 28.2015C52.1159 27.3609 52.1159 26.5203 52.1159 25.6797C52.1207 24.901 51.8603 24.1438 51.3776 23.5327C50.8948 22.9216 50.2184 22.493 49.4597 22.3174C48.5906 22.201 47.7119 22.1729 46.8371 22.2333C45.8334 22.1269 44.8189 22.2624 43.8783 22.6284C43.0859 23.0436 42.4839 23.748 42.1971 24.5954C42.0728 25.041 42.0189 25.5033 42.0374 25.9655V28.7899C42.0327 29.6932 42.382 30.5625 43.0105 31.2114C43.639 31.8604 44.4966 32.2373 45.3997 32.2615C45.7328 32.2571 46.0509 32.1229 46.2865 31.8873C46.522 31.6518 46.6562 31.3336 46.6606 31.0006C46.6521 30.6689 46.5165 30.3531 46.2819 30.1184C46.0472 29.8838 45.7314 29.7482 45.3997 29.7397C45.3997 29.7397 45.0551 29.7397 45.2568 29.7397C45.4586 29.7397 45.2568 29.7397 45.1812 29.7397C45.1055 29.7397 44.8954 29.6388 45.1812 29.7397L45.0046 29.6473L44.8449 29.5464C45.0383 29.6557 44.929 29.622 44.8449 29.5464C44.7932 29.4836 44.7371 29.4246 44.6768 29.3699C44.7693 29.5464 44.5844 29.3026 44.6768 29.3699C44.6427 29.2971 44.6033 29.2269 44.5591 29.1597C44.6012 29.4119 44.4667 29.0336 44.5591 29.1597C44.5591 29.0925 44.5591 29.0252 44.5591 28.9664C44.5591 29.2354 44.5591 28.9075 44.5591 28.9664C44.5591 28.8739 44.5591 28.7899 44.5591 28.7058V25.6041C44.5591 25.5284 44.5591 25.4612 44.5591 25.3855C44.5591 25.8058 44.6432 25.0913 44.5591 25.2931C44.4751 25.4948 44.6096 25.2006 44.6264 25.1838C44.6569 25.1259 44.6906 25.0698 44.7272 25.0157C44.6432 25.1081 44.618 25.2174 44.7272 25.0157L44.9374 24.8139C44.7272 25.0073 44.9962 24.8139 45.0887 24.7467L45.1728 24.7046C45.0383 24.7551 45.013 24.7719 45.0971 24.7046C45.1808 24.6973 45.263 24.6775 45.3409 24.6458C45.1223 24.6962 45.2904 24.6458 45.4165 24.6458H45.4922C45.7948 24.6458 46.1058 24.6458 46.4084 24.6458C47.1397 24.6458 47.8794 24.6458 48.6107 24.6458H48.8545C48.7536 24.6458 48.5939 24.6458 48.8545 24.6458H48.989C48.8293 24.6038 48.989 24.6458 49.0562 24.6458L49.2664 24.7719C49.0899 24.6626 49.2075 24.7719 49.3084 24.8223L49.4345 24.9652C49.4345 24.9232 49.3084 24.7551 49.4345 24.9652C49.4703 25.0184 49.5012 25.0747 49.527 25.1333C49.5404 25.2168 49.563 25.2985 49.5942 25.3771C49.5942 25.1081 49.6699 25.4948 49.5942 25.3771V25.5116C49.5942 26.2261 49.5942 26.9322 49.5942 27.6467V28.6133C49.5942 28.7142 49.5942 28.8151 49.5942 28.9244C49.5942 28.647 49.5942 28.9664 49.5354 29.0757C49.6026 28.8235 49.5354 29.0084 49.5354 29.0757L49.4261 29.4203C49.5606 29.1933 49.4681 29.3699 49.4261 29.4203L49.2496 29.58C49.4513 29.4035 49.3 29.58 49.2496 29.58C49.1991 29.58 48.9301 29.7145 49.0983 29.6641C49.2664 29.6136 49.0478 29.6641 49.0142 29.6641H48.8629H45.5174C45.183 29.6641 44.8623 29.7969 44.6258 30.0334C44.3894 30.2698 44.2565 30.5905 44.2565 30.9249C44.2565 31.2593 44.3894 31.58 44.6258 31.8165C44.8623 32.053 45.183 32.1858 45.5174 32.1858V32.2278Z" fill="#050038"/>
<path d="M12.6087 32.2278H15.8281C16.6375 32.2117 17.4161 31.9145 18.0304 31.3872C18.3819 31.0908 18.6702 30.7267 18.8782 30.3166C19.0861 29.9065 19.2094 29.4587 19.2409 29C19.2409 28.731 19.2409 28.4536 19.2409 28.1594V25.6377C19.2441 24.8593 18.9832 24.1029 18.5006 23.4921C18.0181 22.8813 17.3426 22.4523 16.5846 22.2754C15.7155 22.1591 14.8368 22.1309 13.962 22.1913C12.9584 22.0849 11.9438 22.2204 11.0032 22.5864C10.2086 22.9988 9.60567 23.7042 9.32203 24.5533C9.22506 25.0061 9.19953 25.4712 9.24638 25.9319C9.24638 26.8733 9.24638 27.8148 9.24638 28.7562C9.23949 29.6602 9.5881 30.5308 10.217 31.1802C10.846 31.8295 11.7049 32.2058 12.6087 32.2278C12.9431 32.2278 13.2638 32.095 13.5003 31.8585C13.7367 31.6221 13.8696 31.3014 13.8696 30.967C13.8631 30.6346 13.7282 30.3176 13.4931 30.0825C13.258 29.8475 12.9411 29.7125 12.6087 29.7061C12.6087 29.7061 12.2725 29.7061 12.4742 29.7061C12.6759 29.7061 12.4322 29.7061 12.3901 29.7061C12.3481 29.7061 12.1128 29.6052 12.3901 29.7061L12.2136 29.6136L12.0455 29.5128C12.2472 29.622 12.138 29.5884 12.0455 29.5128C11.9938 29.4499 11.9376 29.3909 11.8774 29.3362C11.9699 29.5128 11.7765 29.269 11.8774 29.3362C11.8432 29.2635 11.8039 29.1932 11.7597 29.1261C11.8101 29.3783 11.6757 29 11.7597 29.1261C11.7479 29.0604 11.731 28.9958 11.7093 28.9328C11.7093 29.2017 11.7093 28.9832 11.7093 28.9328V26.327C11.7093 26.0832 11.7093 25.8478 11.7093 25.6041C11.7093 25.5284 11.7093 25.4612 11.7093 25.3855C11.7093 25.8058 11.8017 25.0913 11.7093 25.293C11.6168 25.4948 11.7597 25.2006 11.7681 25.1838L11.8774 25.0157C11.7933 25.1081 11.7681 25.2174 11.8774 25.0157L12.0791 24.8139C11.8774 25.0072 12.1464 24.8139 12.2304 24.7467L12.3229 24.7046C12.18 24.7551 12.1632 24.7719 12.2472 24.7046C12.3657 24.7336 12.489 24.7365 12.6087 24.713C12.3901 24.7635 12.5583 24.713 12.6759 24.713H12.7516C13.0626 24.713 13.3736 24.713 13.6762 24.713C14.4075 24.713 15.1388 24.713 15.8701 24.713H16.1223C16.013 24.713 15.8617 24.713 16.1223 24.713H16.2484C16.0971 24.671 16.2484 24.713 16.3241 24.713L16.5258 24.8391C16.3577 24.7299 16.4754 24.8391 16.5678 24.8896L16.7023 25.0325C16.6603 24.9904 16.5678 24.8223 16.7023 25.0325L16.7948 25.2006C16.8082 25.284 16.8308 25.3658 16.862 25.4443C16.862 25.1754 16.9377 25.562 16.862 25.4443C16.8578 25.4891 16.8578 25.5341 16.862 25.5788C16.862 26.2933 16.862 26.9994 16.862 27.7139V28.6806C16.862 28.7814 16.862 28.8823 16.862 28.9916C16.862 28.7142 16.862 29.0336 16.7948 29.1429C16.862 28.8907 16.7948 29.0756 16.7948 29.1429L16.6687 29.353C16.8116 29.1261 16.7191 29.3026 16.6687 29.353C16.6183 29.4035 16.5594 29.4623 16.4922 29.5128C16.7023 29.3362 16.5426 29.5128 16.4922 29.5128C16.4417 29.5128 16.1728 29.6472 16.3325 29.5968H16.2484H16.1055H12.6087C12.2743 29.5968 11.9536 29.7297 11.7171 29.9661C11.4807 30.2026 11.3478 30.5233 11.3478 30.8577C11.3478 31.1921 11.4807 31.5128 11.7171 31.7493C11.9536 31.9857 12.2743 32.1185 12.6087 32.1185V32.2278Z" fill="#050038"/>
<path d="M35.1867 20.9641H38.4061C39.2151 20.9458 39.993 20.6489 40.6084 20.1235C40.9613 19.8289 41.2501 19.465 41.4568 19.0544C41.6636 18.6438 41.7839 18.1952 41.8104 17.7362C41.8104 17.4672 41.8104 17.1899 41.8104 16.8957C41.8104 16.0551 41.8104 15.2145 41.8104 14.3739C41.8152 13.5952 41.5548 12.838 41.072 12.2269C40.5893 11.6158 39.9129 11.1872 39.1542 11.0116C38.2851 10.8952 37.4064 10.8671 36.5316 10.9275C35.5272 10.8198 34.5116 10.9583 33.5727 11.331C32.777 11.742 32.1737 12.448 31.8916 13.298C31.7672 13.7407 31.7133 14.2002 31.7319 14.6597V17.4841C31.7271 18.3882 32.0762 19.2584 32.7044 19.9087C33.3327 20.559 34.1904 20.9377 35.0942 20.9641C35.4286 20.9641 35.7493 20.8312 35.9858 20.5948C36.2222 20.3583 36.3551 20.0376 36.3551 19.7032C36.3551 19.3688 36.2222 19.0481 35.9858 18.8116C35.7493 18.5752 35.4286 18.4423 35.0942 18.4423C35.0942 18.4423 34.7496 18.4003 34.9513 18.4423C35.153 18.4844 34.9513 18.4423 34.8757 18.4423C34.8 18.4423 34.5899 18.333 34.8757 18.4423L34.6991 18.3499L34.5394 18.249C34.7328 18.3583 34.6235 18.333 34.5394 18.249C34.4899 18.1868 34.4335 18.1304 34.3713 18.0809C34.4638 18.249 34.2788 18.0136 34.3713 18.0809C34.2788 17.9128 34.2956 17.9296 34.2536 17.8623C34.3041 18.1229 34.2116 17.7951 34.2536 17.8623C34.2536 17.8035 34.2536 17.7278 34.2536 17.669C34.2536 17.938 34.2536 17.6101 34.2536 17.669C34.2536 17.5849 34.2536 17.5009 34.2536 17.4084V14.3319C34.2536 14.2646 34.2536 14.189 34.2536 14.1217C34.2536 14.542 34.3377 13.8191 34.2536 14.0293C34.1696 14.2394 34.3041 13.9368 34.3209 13.9116C34.3514 13.8537 34.3851 13.7976 34.4217 13.7435C34.3461 13.8359 34.3125 13.9452 34.4217 13.7435L34.6319 13.5417C34.4217 13.7351 34.6907 13.5417 34.7832 13.4745L34.8672 13.4325C34.7328 13.4913 34.7075 13.4997 34.8 13.4745C34.8805 13.4599 34.9593 13.4374 35.0354 13.4072C34.8168 13.4661 34.9849 13.4072 35.111 13.4072H38.6667C38.5658 13.4072 38.4061 13.4072 38.6667 13.4072C38.7675 13.4072 38.9861 13.4829 38.8012 13.4072C38.6162 13.3316 38.8012 13.4072 38.8684 13.4493C38.942 13.485 39.0124 13.5272 39.0785 13.5754C38.902 13.4661 39.0197 13.5249 39.1206 13.6258L39.2467 13.7603C39.2807 13.8145 39.3115 13.8707 39.3391 13.9284C39.3537 14.0089 39.3762 14.0877 39.4064 14.1638C39.4064 13.9032 39.482 14.2899 39.4064 14.1638V14.2983C39.4064 15.0128 39.4064 15.7272 39.4064 16.4333V17.4C39.4064 17.5093 39.4064 17.6101 39.4064 17.711C39.4064 17.442 39.4064 17.753 39.3475 17.8623C39.4148 17.6186 39.3475 17.7951 39.3475 17.8623L39.2214 18.0641C39.3559 17.8455 39.2635 18.0136 39.2214 18.0641L39.0449 18.2322C39.2467 18.0472 39.0954 18.1901 39.0449 18.2322C38.9945 18.2742 38.7255 18.3583 38.8936 18.3162C39.0617 18.2742 38.8936 18.3162 38.8096 18.3162H38.6583C38.8096 18.3162 38.8432 18.3162 38.7423 18.3162H35.38C35.0456 18.3162 34.7249 18.4491 34.4884 18.6855C34.252 18.922 34.1191 19.2427 34.1191 19.5771C34.1191 19.9115 34.252 20.2322 34.4884 20.4687C34.7249 20.7051 35.0456 20.838 35.38 20.838L35.1867 20.9641Z" fill="#050038"/>
</svg>
