<svg width="58" height="58" viewBox="0 0 58 58" fill="none" xmlns="http://www.w3.org/2000/svg">
<rect x="8.5" y="31.7981" width="21.9883" height="21.9883" rx="3" transform="rotate(-45 8.5 31.7981)" fill="#F9BB08"/>
<path d="M52.5 40.75L52.34 50.25L53.84 48.75H3.97L5.5 50.25V31.87L4 33.37H27.59C27.9878 33.37 28.3694 33.212 28.6507 32.9307C28.932 32.6494 29.09 32.2678 29.09 31.87C29.09 31.4722 28.932 31.0906 28.6507 30.8093C28.3694 30.528 27.9878 30.37 27.59 30.37H3.97C3.57904 30.3828 3.20807 30.5459 2.93428 30.8253C2.66048 31.1047 2.50494 31.4789 2.5 31.87V50.25C2.50518 50.6462 2.66488 51.0247 2.94507 51.3049C3.22526 51.5851 3.60379 51.7448 4 51.75H53.84C54.2362 51.7448 54.6147 51.5851 54.8949 51.3049C55.1751 51.0247 55.3348 50.6462 55.34 50.25L55.5 40.75C55.5 38.82 52.5 38.82 52.5 40.75Z" fill="#050038"/>
<path d="M5.5 21.38V13.5L4 15H9.25C9.64621 14.9948 10.0247 14.8351 10.3049 14.5549C10.5851 14.2747 10.7448 13.8962 10.75 13.5V8.25L9.25 9.75H17.75L16.22 8.25V13.5C16.2252 13.8962 16.3849 14.2747 16.6651 14.5549C16.9453 14.8351 17.3238 14.9948 17.72 15H22.97C23.3654 14.9923 23.7425 14.8318 24.0222 14.5522C24.3018 14.2725 24.4623 13.8954 24.47 13.5V7.75L23 9.25H30L28.5 7.75V13.75C28.5052 14.1462 28.6649 14.5247 28.9451 14.8049C29.2253 15.0851 29.6038 15.2448 30 15.25C36.72 14.94 43.42 15 50.14 15H53.84L52.34 13.5V31.87L53.84 30.37H48.59C48.1922 30.37 47.8106 30.528 47.5293 30.8093C47.248 31.0906 47.09 31.4722 47.09 31.87C47.09 32.2678 47.248 32.6494 47.5293 32.9307C47.8106 33.212 48.1922 33.37 48.59 33.37H53.84C54.2362 33.3648 54.6147 33.2051 54.8949 32.9249C55.1751 32.6447 55.3348 32.2662 55.34 31.87V13.5C55.3348 13.1038 55.1751 12.7253 54.8949 12.4451C54.6147 12.1649 54.2362 12.0052 53.84 12C47.72 12 41.58 11.87 35.45 12C33.64 12 31.82 12.17 30 12.25L31.5 13.75V7.75C31.4948 7.35379 31.3351 6.97526 31.0549 6.69507C30.7747 6.41488 30.3962 6.25518 30 6.25H23C22.6038 6.25518 22.2253 6.41488 21.9451 6.69507C21.6649 6.97526 21.5052 7.35379 21.5 7.75V13.5L23 12H17.72L19.22 13.5V8.25C19.2148 7.85379 19.0551 7.47526 18.7749 7.19507C18.4947 6.91488 18.1162 6.75518 17.72 6.75H9.22C8.82379 6.75518 8.44526 6.91488 8.16507 7.19507C7.88488 7.47526 7.72518 7.85379 7.72 8.25V13.5L9.22 12H3.97C3.57904 12.0128 3.20807 12.1759 2.93428 12.4553C2.66048 12.7347 2.50494 13.1089 2.5 13.5V21.38C2.5 21.7778 2.65804 22.1594 2.93934 22.4407C3.22064 22.722 3.60218 22.88 4 22.88C4.39782 22.88 4.77936 22.722 5.06066 22.4407C5.34196 22.1594 5.5 21.7778 5.5 21.38Z" fill="#050038"/>
<path d="M47.09 31.88C47.0865 33.7287 46.5138 35.5315 45.4497 37.0433C44.3856 38.5551 42.8817 39.7025 41.1426 40.3295C39.4034 40.9566 37.5134 41.0328 35.7294 40.5479C33.9454 40.063 32.354 39.0404 31.1715 37.6193C29.9891 36.1981 29.273 34.4473 29.1206 32.6049C28.9682 30.7625 29.3869 28.9178 30.3198 27.3217C31.2526 25.7256 32.6544 24.4554 34.3345 23.684C36.0146 22.9126 37.8915 22.6772 39.71 23.01C41.7767 23.4058 43.642 24.5063 44.9878 26.1239C46.3337 27.7414 47.0766 29.7758 47.09 31.88C47.09 33.8 50.09 33.81 50.09 31.88C50.0927 29.4087 49.3324 26.9969 47.9129 24.9739C46.4934 22.951 44.484 21.4156 42.1591 20.5776C39.8343 19.7396 37.3074 19.6399 34.9237 20.2919C32.54 20.944 30.4157 22.3161 28.8411 24.2208C27.2666 26.1255 26.3184 28.4699 26.1263 30.9337C25.9342 33.3975 26.5074 35.8606 27.7677 37.9864C29.028 40.1121 30.9139 41.797 33.1677 42.8106C35.4215 43.8243 37.9333 44.1175 40.36 43.65C43.0808 43.0915 45.529 41.62 47.2987 39.4792C49.0683 37.3385 50.0532 34.6573 50.09 31.88C50.09 31.683 50.0512 31.488 49.9758 31.306C49.9004 31.124 49.7899 30.9586 49.6507 30.8193C49.5114 30.68 49.346 30.5696 49.164 30.4942C48.982 30.4188 48.787 30.38 48.59 30.38C48.393 30.38 48.198 30.4188 48.016 30.4942C47.834 30.5696 47.6686 30.68 47.5293 30.8193C47.39 30.9586 47.2796 31.124 47.2042 31.306C47.1288 31.488 47.09 31.683 47.09 31.88Z" fill="#050038"/>
</svg>
