<svg width="58" height="58" viewBox="0 0 58 58" fill="none" xmlns="http://www.w3.org/2000/svg">
<rect x="9" y="25.1471" width="24.2497" height="24.2497" rx="3" transform="rotate(-45 9 25.1471)" fill="#F9BB08"/>
<path d="M47.9232 40.5514C49.7893 36.3281 50.6536 31.5548 48.9642 27.1252C48.3092 25.2017 47.197 23.4659 45.7231 22.0671L45.4285 24.385L52.3036 20.4563C52.545 20.3028 52.7376 20.0836 52.8587 19.8244C52.9798 19.5652 53.0244 19.2769 52.9873 18.9932C52.9501 18.7095 52.8328 18.4424 52.6491 18.2231C52.4653 18.0038 52.2228 17.8416 51.95 17.7554L29.5861 9.16142C28.59 8.69217 27.5629 8.29182 26.512 7.96318C25.6477 7.74711 24.5476 8.41498 23.7914 8.75873L11.1018 14.3374L0.720339 18.8947C0.500649 19.0264 0.318828 19.2128 0.19259 19.4357C0.0663511 19.6586 0 19.9104 0 20.1666C0 20.4227 0.0663511 20.6745 0.19259 20.8974C0.318828 21.1203 0.500649 21.3067 0.720339 21.4385L12.5063 27.3315L11.7795 26.0546V40.7871C11.7818 41.1093 11.8883 41.4221 12.083 41.6788C12.2777 41.9354 12.5502 42.1222 12.8599 42.2113L23.8503 44.7845C24.8465 45.1654 25.9329 45.244 26.9736 45.0104L33.0041 43.0461L38.1997 41.3175C38.5225 41.2216 38.804 41.0207 38.9997 40.7468C39.1954 40.4728 39.2941 40.1413 39.2801 39.8049V26.0546C39.2801 25.2002 38.2979 24.2573 37.414 24.6305L27.1406 28.9127C26.8459 29.0404 25.8539 29.2565 25.6673 29.5315C25.8834 29.2172 26.787 29.7181 26.0602 29.4431C25.6771 29.2958 25.2646 29.2172 24.8718 29.0994L19.5386 27.577C19.1739 27.5102 18.7974 27.5824 18.4833 27.7794C18.1692 27.9764 17.9403 28.284 17.8417 28.6414C17.7431 28.9988 17.7819 29.3802 17.9506 29.7104C18.1193 30.0406 18.4055 30.2957 18.7529 30.4253L24.1842 32.0164C24.8859 32.3226 25.6494 32.4605 26.4138 32.4191C26.8556 32.2754 27.2857 32.0981 27.7004 31.8887L38.1997 27.4788L36.3336 26.0546V39.8049L37.414 38.3808L26.8263 41.9166C26.5433 41.9935 26.2647 42.0853 25.9914 42.1916C25.2941 42.5059 26.0798 42.0246 26.4039 42.3095C26.178 42.113 25.4218 42.0836 25.1173 42.0148L18.6547 40.5121L13.6456 39.363L14.726 40.7871V26.0546C14.7274 25.7981 14.661 25.5458 14.5333 25.3232C14.4056 25.1007 14.2214 24.9159 13.9992 24.7877L2.21323 18.8947V21.4385L23.7324 11.9606L26.7673 10.6347L25.628 10.782L47.9919 19.3858L51.1643 20.6036L50.8107 17.9125L43.9356 21.8412C43.7438 21.9566 43.5806 22.114 43.4584 22.3015C43.3361 22.4891 43.2578 22.7018 43.2295 22.9239C43.2011 23.1459 43.2234 23.3715 43.2947 23.5837C43.3659 23.796 43.4843 23.9893 43.6409 24.1493C44.712 25.1243 45.5366 26.3394 46.0472 27.6949C47.5892 31.3878 46.9606 35.4932 45.3695 39.0585C44.6133 40.7773 47.1472 42.28 47.9232 40.5514Z" fill="#050038"/>
</svg>
