<svg width="40" height="40" viewBox="0 0 40 40" fill="none" xmlns="http://www.w3.org/2000/svg">
<rect x="5.71429" y="26.5385" width="16.3178" height="16.3178" rx="3" transform="rotate(-45 5.71429 26.5385)" fill="#F9BB08"/>
<path d="M24.2767 37.349C25.2899 37.349 26.2616 36.9465 26.978 36.2301C27.6945 35.5136 28.097 34.5419 28.097 33.5287C28.097 32.5155 27.6945 31.5438 26.978 30.8274C26.2616 30.1109 25.2899 29.7084 24.2767 29.7084C22.3231 29.6505 20.352 29.7084 18.3926 29.7084L19.2622 30.578V27.4476L18.6245 28.2881C20.2987 27.8713 21.7625 26.8565 22.7401 25.4349C23.7176 24.0133 24.1414 22.2832 23.9314 20.5708C23.7214 18.8584 22.8923 17.2819 21.6002 16.1386C20.3082 14.9953 18.6425 14.3641 16.9173 14.3641C15.192 14.3641 13.5263 14.9953 12.2343 16.1386C10.9422 17.2819 10.1131 18.8584 9.90312 20.5708C9.69315 22.2832 10.1169 24.0133 11.0945 25.4349C12.072 26.8565 13.5359 27.8713 15.21 28.2881L14.5723 27.4476V30.578L15.4419 29.7084C13.4825 29.7084 11.5173 29.6505 9.55784 29.7084C9.05615 29.7054 8.55877 29.8012 8.09411 29.9904C7.62944 30.1795 7.20659 30.4584 6.84969 30.811C6.49279 31.1636 6.20883 31.583 6.01403 32.0453C5.81923 32.5077 5.7174 33.0038 5.71436 33.5055C5.71131 34.0072 5.80711 34.5046 5.99629 34.9693C6.18546 35.4339 6.4643 35.8568 6.8169 36.2137C7.16949 36.5706 7.58893 36.8545 8.05126 37.0493C8.5136 37.2441 9.00977 37.346 9.51146 37.349C10.6303 37.3838 10.6303 35.6447 9.51146 35.6099C9.13464 35.6055 8.76592 35.5 8.4438 35.3044C8.12169 35.1088 7.858 34.8303 7.6803 34.498C7.50259 34.1657 7.41738 33.7918 7.43357 33.4153C7.44976 33.0388 7.56675 32.6735 7.77233 32.3577C8.35204 31.465 9.31436 31.4476 10.2651 31.4476H15.4013C15.631 31.4446 15.8504 31.352 16.0129 31.1896C16.1753 31.0271 16.2679 30.8077 16.2709 30.578V27.4476C16.2679 27.2624 16.2062 27.0829 16.0947 26.935C15.9833 26.7871 15.8278 26.6783 15.6506 26.6244C14.3821 26.3199 13.2694 25.5606 12.5234 24.4903C11.7775 23.4201 11.4501 22.1134 11.6034 20.8179C11.7568 19.5224 12.3801 18.3282 13.3552 17.4616C14.3303 16.5951 15.5895 16.1164 16.8941 16.1164C18.1986 16.1164 19.4578 16.5951 20.4329 17.4616C21.4081 18.3282 22.0314 19.5224 22.1847 20.8179C22.338 22.1134 22.0106 23.4201 21.2647 24.4903C20.5187 25.5606 19.406 26.3199 18.1375 26.6244C17.9557 26.6766 17.7955 26.786 17.6807 26.9364C17.5659 27.0867 17.5025 27.27 17.4999 27.4592V30.5896C17.5029 30.8193 17.5954 31.0387 17.7579 31.2011C17.9203 31.3636 18.1397 31.4562 18.3694 31.4592H23.5057C24.3868 31.4592 25.2448 31.4592 25.8767 32.207C26.1208 32.5137 26.2745 32.8825 26.3203 33.2718C26.3661 33.6612 26.3022 34.0556 26.1358 34.4105C25.9695 34.7655 25.7073 35.067 25.3788 35.2809C25.0503 35.4949 24.6686 35.6128 24.2767 35.6215C23.1578 35.6621 23.152 37.4012 24.2767 37.3606V37.349Z" fill="#050038"/>
<path d="M21.0593 15.1519L20.4216 16.4737L20.3288 16.665C20.2125 16.8731 20.1813 17.1183 20.2419 17.349C20.3089 17.567 20.4589 17.7499 20.6595 17.8583C20.8601 17.9667 21.0953 17.992 21.3144 17.9287C21.5318 17.8675 21.7168 17.724 21.8303 17.5287L22.4738 16.207L22.5607 16.0157C22.6746 15.8131 22.7077 15.575 22.6535 15.349C22.6233 15.2385 22.5716 15.135 22.5013 15.0445C22.431 14.954 22.3435 14.8783 22.2438 14.8217C22.1442 14.7651 22.0343 14.7288 21.9205 14.7149C21.8068 14.7009 21.6914 14.7095 21.581 14.7403C21.362 14.8014 21.1751 14.9447 21.0593 15.1403V15.1519Z" fill="#050038"/>
<path d="M17.1984 11.9984L15.8013 14.4505L15.6042 14.7984C15.5376 14.8972 15.492 15.0087 15.4702 15.1258C15.4485 15.243 15.4511 15.3634 15.4778 15.4796C15.5046 15.5958 15.5549 15.7052 15.6257 15.801C15.6965 15.8969 15.7863 15.9772 15.8894 16.037C15.9925 16.0967 16.1069 16.1346 16.2253 16.1483C16.3437 16.162 16.4636 16.1512 16.5777 16.1166C16.6917 16.082 16.7975 16.0243 16.8883 15.9471C16.9791 15.8699 17.0531 15.7749 17.1057 15.6679L18.5028 13.2215L18.6999 12.8795C18.7577 12.7809 18.7956 12.6719 18.8113 12.5587C18.827 12.4455 18.8203 12.3303 18.7915 12.2196C18.7627 12.109 18.7124 12.0051 18.6435 11.914C18.5745 11.8228 18.4883 11.7461 18.3897 11.6882C18.2911 11.6304 18.1821 11.5925 18.0689 11.5768C17.9557 11.561 17.8405 11.5678 17.7298 11.5966C17.6192 11.6254 17.5153 11.6757 17.4242 11.7446C17.333 11.8135 17.2563 11.8998 17.1984 11.9984Z" fill="#050038"/>
<path d="M12.7868 9.35486L26.7404 20.723L28.7231 22.3404C28.8466 22.4565 29.0011 22.5345 29.1679 22.565C29.3347 22.5954 29.5068 22.5772 29.6635 22.5123C29.8202 22.4474 29.9548 22.3387 30.0512 22.1992C30.1476 22.0597 30.2018 21.8954 30.2071 21.7259V13.8302C30.2274 13.5941 30.1844 13.3568 30.0825 13.1428C29.9806 12.9289 29.8235 12.7459 29.6274 12.6128C26.5259 10.3114 23.3781 8.0737 20.2477 5.75486L16.7694 3.23891C16.5696 3.12605 16.3336 3.09561 16.1116 3.15407C15.8897 3.21253 15.6993 3.35528 15.581 3.55196L12.6303 8.2766C12.0564 9.23312 13.5694 10.1259 14.1491 9.17515L17.1057 4.45631L15.8883 4.76935L27.268 13.0244L28.897 14.2128L28.468 13.4592V21.7259L29.952 21.1056L16.0042 9.74326L14.0158 8.12007C13.1578 7.42442 11.9173 8.65341 12.7868 9.35486Z" fill="#050038"/>
<path d="M25.2042 15.5113H25.4071H25.6158C25.7665 15.5113 25.6158 15.5113 25.5462 15.5113L25.726 15.5403C25.9995 15.5858 26.2704 15.6458 26.5375 15.72L26.9665 15.8534L27.1868 15.9345L27.3317 15.9925C27.1752 15.9229 27.4303 16.0331 27.3317 15.9925C27.7115 16.1569 28.0778 16.3508 28.4274 16.5722C28.7656 16.792 29.0753 17.0529 29.3491 17.349C30.1042 18.0722 30.697 18.9476 31.0883 19.9171C31.7438 21.6249 32.057 23.445 32.01 25.2737C32.01 25.5043 32.1016 25.7255 32.2647 25.8885C32.4278 26.0516 32.649 26.1432 32.8796 26.1432C33.1102 26.1432 33.3314 26.0516 33.4944 25.8885C33.6575 25.7255 33.7491 25.5043 33.7491 25.2737C33.7491 22.1548 33.0999 18.8563 30.9375 16.4853C29.7311 15.1738 28.1399 14.2787 26.3926 13.9287C26.0115 13.8445 25.6233 13.796 25.2332 13.7838C25.0026 13.7838 24.7814 13.8754 24.6183 14.0385C24.4552 14.2016 24.3636 14.4228 24.3636 14.6534C24.3636 14.884 24.4552 15.1052 24.6183 15.2683C24.7814 15.4313 25.0026 15.5229 25.2332 15.5229L25.2042 15.5113Z" fill="#050038"/>
</svg>
