<svg width="58" height="58" viewBox="0 0 58 58" fill="none" xmlns="http://www.w3.org/2000/svg">
<rect x="10" y="28.5481" width="21.9883" height="21.9883" rx="3" transform="rotate(-45 10 28.5481)" fill="#F9BB08"/>
<path d="M32.6416 54.68V37.56C32.6364 37.1638 32.4767 36.7853 32.1965 36.5051C31.9163 36.2249 31.5378 36.0652 31.1416 36.06H15.1416L16.5916 37.16L10.9216 12.82L10.1216 9.35C10.0309 9.03473 9.84073 8.75725 9.57939 8.55899C9.31804 8.36073 8.99958 8.25234 8.67155 8.25H2.25155C2.02207 8.25517 1.7967 8.31192 1.59212 8.41602C1.38755 8.52013 1.20902 8.66893 1.06977 8.8514C0.930512 9.03387 0.834098 9.24534 0.787669 9.47013C0.741239 9.69493 0.745984 9.92729 0.801552 10.15L3.34155 25.35L7.34155 49.47L8.27155 55.08C8.59155 56.98 11.4816 56.17 11.1716 54.28L8.65155 39.07L4.65155 14.95L3.75155 9.34L2.25155 11.24H8.67155L7.22155 10.14L12.8416 34.49L13.6416 37.96C13.7322 38.2753 13.9224 38.5528 14.1837 38.751C14.4451 38.9493 14.7635 39.0577 15.0916 39.06H31.1416L29.6416 37.56V54.68C29.6416 55.0778 29.7996 55.4594 30.0809 55.7407C30.3622 56.022 30.7437 56.18 31.1416 56.18C31.5394 56.18 31.9209 56.022 32.2022 55.7407C32.4835 55.4594 32.6416 55.0778 32.6416 54.68Z" fill="#050038"/>
<path d="M43.3416 54.68V19.37C43.3364 18.9738 43.1767 18.5953 42.8965 18.3151C42.6163 18.0349 42.2378 17.8752 41.8416 17.87H31.1416L32.4416 20.13L41.0016 4.13001L39.7516 4.82001H48.3116L47.0116 4.08001L54.5016 20.08L55.7516 17.87H46.1216C45.7237 17.87 45.3422 18.028 45.0609 18.3093C44.7796 18.5907 44.6216 18.9722 44.6216 19.37C44.6216 19.7678 44.7796 20.1494 45.0609 20.4307C45.3422 20.712 45.7237 20.87 46.1216 20.87H55.7516C56.0141 20.8652 56.2709 20.7926 56.497 20.6591C56.723 20.5255 56.9107 20.3357 57.0416 20.1082C57.1725 19.8806 57.2422 19.6229 57.244 19.3604C57.2457 19.0978 57.1794 18.8393 57.0516 18.61L49.5616 2.61001C49.435 2.37438 49.2477 2.17689 49.0191 2.03799C48.7906 1.89908 48.529 1.82382 48.2616 1.82001H39.7516C39.4893 1.81982 39.2314 1.88796 39.0035 2.01772C38.7755 2.14748 38.5853 2.33438 38.4516 2.56001L29.8916 18.56C29.7637 18.7893 29.6974 19.0478 29.6992 19.3104C29.7009 19.5729 29.7706 19.8306 29.9016 20.0582C30.0325 20.2857 30.2201 20.4755 30.4462 20.6091C30.6723 20.7426 30.9291 20.8152 31.1916 20.82H41.8916L40.3916 19.32V54.68C40.3916 55.0778 40.5496 55.4594 40.8309 55.7407C41.1122 56.022 41.4937 56.18 41.8916 56.18C42.2894 56.18 42.6709 56.022 42.9522 55.7407C43.2335 55.4594 43.3916 55.0778 43.3916 54.68H43.3416Z" fill="#050038"/>
<path d="M32.6416 37.56V32.21C32.6364 31.8138 32.4767 31.4353 32.1965 31.1551C31.9163 30.8749 31.5378 30.7152 31.1416 30.71H17.2316C16.8354 30.7152 16.4568 30.8749 16.1766 31.1551C15.8964 31.4353 15.7367 31.8138 15.7316 32.21V37.56C15.7316 37.9578 15.8896 38.3394 16.1709 38.6207C16.4522 38.902 16.8337 39.06 17.2316 39.06C17.6294 39.06 18.0109 38.902 18.2922 38.6207C18.5735 38.3394 18.7316 37.9578 18.7316 37.56V32.21L17.2316 33.71H31.1416L29.6416 32.21V37.56C29.6416 37.9578 29.7996 38.3394 30.0809 38.6207C30.3622 38.902 30.7437 39.06 31.1416 39.06C31.5394 39.06 31.9209 38.902 32.2022 38.6207C32.4835 38.3394 32.6416 37.9578 32.6416 37.56Z" fill="#050038"/>
</svg>
