<svg width="58" height="58" viewBox="0 0 58 58" fill="none" xmlns="http://www.w3.org/2000/svg">
<rect x="6.42563" y="25.6781" width="23.6608" height="23.6608" rx="3" transform="rotate(-45 6.42563 25.6781)" fill="#F9BB08"/>
<path d="M23.2194 49.765H12.3591C11.2445 49.765 10.1754 49.3222 9.38725 48.534C8.59905 47.7458 8.15625 46.6767 8.15625 45.5621V34.7018C8.15625 33.5871 8.59905 32.5181 9.38725 31.7299C10.1754 30.9417 11.2445 30.4989 12.3591 30.4989H23.2194C24.3341 30.4989 25.4031 30.9417 26.1913 31.7299C26.9795 32.5181 27.4223 33.5871 27.4223 34.7018V45.5537C27.4234 46.1063 27.3155 46.6537 27.1048 47.1646C26.8941 47.6755 26.5847 48.1398 26.1943 48.531C25.8039 48.9222 25.3402 49.2325 24.8298 49.4442C24.3193 49.656 23.7721 49.765 23.2194 49.765ZM12.3591 33.0122C11.9133 33.0122 11.4857 33.1893 11.1704 33.5046C10.8551 33.8199 10.678 34.2475 10.678 34.6934V45.5537C10.678 45.9995 10.8551 46.4271 11.1704 46.7424C11.4857 47.0577 11.9133 47.2348 12.3591 47.2348H23.2194C23.6653 47.2348 24.0929 47.0577 24.4082 46.7424C24.7235 46.4271 24.9006 45.9995 24.9006 45.5537V34.7018C24.9006 34.2559 24.7235 33.8283 24.4082 33.513C24.0929 33.1977 23.6653 33.0206 23.2194 33.0206L12.3591 33.0122Z" fill="#050038"/>
<path d="M23.2194 27.4307H12.3591C11.2445 27.4307 10.1754 26.9879 9.38725 26.1997C8.59905 25.4115 8.15625 24.3425 8.15625 23.2278V12.3591C8.15625 11.2445 8.59905 10.1754 9.38725 9.38725C10.1754 8.59905 11.2445 8.15625 12.3591 8.15625H23.2194C24.3341 8.15625 25.4031 8.59905 26.1913 9.38725C26.9795 10.1754 27.4223 11.2445 27.4223 12.3591V23.2194C27.4234 23.7721 27.3155 24.3195 27.1048 24.8304C26.8941 25.3413 26.5847 25.8056 26.1943 26.1968C25.8039 26.5879 25.3402 26.8983 24.8298 27.11C24.3193 27.3218 23.7721 27.4307 23.2194 27.4307ZM12.3591 10.678C11.9133 10.678 11.4857 10.8551 11.1704 11.1704C10.8551 11.4857 10.678 11.9133 10.678 12.3591V23.2194C10.678 23.6653 10.8551 24.0929 11.1704 24.4082C11.4857 24.7235 11.9133 24.9006 12.3591 24.9006H23.2194C23.6653 24.9006 24.0929 24.7235 24.4082 24.4082C24.7235 24.0929 24.9006 23.6653 24.9006 23.2194V12.3591C24.9006 11.9133 24.7235 11.4857 24.4082 11.1704C24.0929 10.8551 23.6653 10.678 23.2194 10.678H12.3591Z" fill="#050038"/>
<path d="M45.5537 49.765H34.7018C33.5871 49.765 32.5181 49.3222 31.7299 48.534C30.9417 47.7458 30.4989 46.6767 30.4989 45.5621V34.7018C30.4989 33.5871 30.9417 32.5181 31.7299 31.7299C32.5181 30.9417 33.5871 30.4989 34.7018 30.4989H45.5537C46.6683 30.4989 47.7374 30.9417 48.5256 31.7299C49.3137 32.5181 49.7566 33.5871 49.7566 34.7018V45.5537C49.7577 46.1063 49.6498 46.6537 49.439 47.1646C49.2283 47.6755 48.9189 48.1398 48.5285 48.531C48.1381 48.9222 47.6744 49.2325 47.164 49.4442C46.6535 49.656 46.1063 49.765 45.5537 49.765ZM34.7018 33.0122C34.2559 33.0122 33.8283 33.1893 33.513 33.5046C33.1977 33.8199 33.0206 34.2475 33.0206 34.6934V45.5537C33.0206 45.9995 33.1977 46.4271 33.513 46.7424C33.8283 47.0577 34.2559 47.2348 34.7018 47.2348H45.5537C45.9995 47.2348 46.4271 47.0577 46.7424 46.7424C47.0577 46.4271 47.2348 45.9995 47.2348 45.5537V34.7018C47.2348 34.2559 47.0577 33.8283 46.7424 33.513C46.4271 33.1977 45.9995 33.0206 45.5537 33.0206L34.7018 33.0122Z" fill="#050038"/>
<path d="M45.5537 27.4307H34.7018C33.5871 27.4307 32.5181 26.9879 31.7299 26.1997C30.9417 25.4115 30.4989 24.3425 30.4989 23.2278V12.3591C30.4989 11.2445 30.9417 10.1754 31.7299 9.38725C32.5181 8.59905 33.5871 8.15625 34.7018 8.15625H45.5537C46.6683 8.15625 47.7374 8.59905 48.5256 9.38725C49.3137 10.1754 49.7566 11.2445 49.7566 12.3591V23.2194C49.7577 23.7721 49.6498 24.3195 49.439 24.8304C49.2283 25.3413 48.9189 25.8056 48.5285 26.1968C48.1381 26.5879 47.6744 26.8983 47.164 27.11C46.6535 27.3218 46.1063 27.4307 45.5537 27.4307ZM34.7018 10.678C34.2559 10.678 33.8283 10.8551 33.513 11.1704C33.1977 11.4857 33.0206 11.9133 33.0206 12.3591V23.2194C33.0206 23.6653 33.1977 24.0929 33.513 24.4082C33.8283 24.7235 34.2559 24.9006 34.7018 24.9006H45.5537C45.9995 24.9006 46.4271 24.7235 46.7424 24.4082C47.0577 24.0929 47.2348 23.6653 47.2348 23.2194V12.3591C47.2348 11.9133 47.0577 11.4857 46.7424 11.1704C46.4271 10.8551 45.9995 10.678 45.5537 10.678H34.7018Z" fill="#050038"/>
</svg>
