<svg width="58" height="58" viewBox="0 0 58 58" fill="none" xmlns="http://www.w3.org/2000/svg">
<rect x="15" y="30.5481" width="21.9883" height="21.9883" rx="3" transform="rotate(-45 15 30.5481)" fill="#F9BB08"/>
<path d="M48.4878 50.6192C47.4878 48.1992 46.7478 45.2992 45.1978 43.1992C44.8062 42.6165 44.3002 42.1195 43.7106 41.7384C43.121 41.3573 42.4601 41.1 41.768 40.9821C41.0759 40.8643 40.3671 40.8884 39.6846 41.0529C39.0021 41.2174 38.3602 41.519 37.7978 41.9392C35.9678 43.1392 34.9178 44.8492 33.4578 46.3992C32.3078 47.6192 30.7278 48.7992 28.9578 48.5192C28.1573 48.3719 27.417 47.9946 26.8274 47.4334C26.2378 46.8722 25.8244 46.1515 25.6378 45.3592C25.4527 44.1216 25.4024 42.8676 25.4878 41.6192V38.0192L24.7478 39.3192C26.6533 38.603 28.499 37.7369 30.2678 36.7292C33.2528 34.7598 35.5713 31.9323 36.9178 28.6192C38.7678 24.2492 38.4878 19.6192 38.4878 15.0092C38.4826 14.613 38.3229 14.2345 38.0427 13.9543C37.7625 13.6741 37.384 13.5144 36.9878 13.5092H31.9878L33.4878 15.0092V7.00922C33.4826 6.613 33.3229 6.23447 33.0427 5.95428C32.7625 5.67409 32.384 5.5144 31.9878 5.50922H25.9878C25.5916 5.5144 25.213 5.67409 24.9328 5.95428C24.6527 6.23447 24.493 6.613 24.4878 7.00922V15.0092L25.9878 13.5092H21.9878L23.4878 15.0092V7.00922C23.4826 6.613 23.3229 6.23447 23.0427 5.95428C22.7625 5.67409 22.384 5.5144 21.9878 5.50922H15.9878C15.5916 5.5144 15.213 5.67409 14.9328 5.95428C14.6527 6.23447 14.493 6.613 14.4878 7.00922V15.0092L15.9878 13.5092H10.9878C10.5916 13.5144 10.213 13.6741 9.93284 13.9543C9.65265 14.2345 9.49295 14.613 9.48777 15.0092C9.48777 17.5992 9.35777 20.2292 9.58777 22.7992C10.0278 27.7992 11.8078 33.4892 16.2278 36.3092C17.8678 37.3092 19.3678 34.7492 17.7478 33.7192C13.7478 31.1892 12.5678 25.2992 12.4878 20.9492C12.4878 18.9492 12.4878 16.9492 12.4878 15.0092L10.9878 16.5092H15.9878C16.384 16.504 16.7625 16.3443 17.0427 16.0641C17.3229 15.784 17.4826 15.4054 17.4878 15.0092V7.00922L15.9878 8.50922H21.9878L20.4878 7.04922V15.0492C20.493 15.4454 20.6527 15.824 20.9328 16.1041C21.213 16.3843 21.5916 16.544 21.9878 16.5492H25.9878C26.384 16.544 26.7625 16.3843 27.0427 16.1041C27.3229 15.824 27.4826 15.4454 27.4878 15.0492V7.04922L25.9878 8.54922H31.9878L30.4878 7.04922V15.0492C30.493 15.4454 30.6527 15.824 30.9328 16.1041C31.213 16.3843 31.5916 16.544 31.9878 16.5492H36.9878L35.4878 15.0492C35.4878 19.0992 35.8378 23.2692 34.3278 27.1192C33.161 30.265 30.947 32.9133 28.0578 34.6192C26.4874 35.4277 24.8751 36.1521 23.2278 36.7892C23.0039 36.9149 22.8175 37.0978 22.6875 37.3192C22.5574 37.5406 22.4885 37.7925 22.4878 38.0492C22.4878 40.1892 22.4378 42.3292 22.4878 44.4592C22.4969 46.2873 23.2001 48.0437 24.4551 49.373C25.7101 50.7022 27.4232 51.5051 29.2478 51.6192C31.2708 51.5989 33.2111 50.8128 34.6778 49.4192C35.5148 48.6604 36.266 47.812 36.9178 46.8892C37.1578 46.5792 36.7478 47.0692 37.0978 46.6692C38.1578 45.4192 40.0978 43.3092 41.6878 44.0592C43.0878 44.7092 43.6278 46.6792 44.1378 47.9892C44.6478 49.2992 45.0778 50.3192 45.5378 51.4892C46.2478 53.2592 49.1478 52.4892 48.4378 50.6892L48.4878 50.6192Z" fill="#050038"/>
</svg>
