<svg width="58" height="58" viewBox="0 0 58 58" fill="none" xmlns="http://www.w3.org/2000/svg">
<rect x="17.9519" y="22.5481" width="21.9883" height="21.9883" rx="3" transform="rotate(-45 17.9519 22.5481)" fill="#F9BB08"/>
<path d="M27.1519 18.74L21.9519 31.02L21.2019 32.74C21.0165 33.0884 20.9692 33.4938 21.0692 33.8755C21.1693 34.2573 21.4095 34.5873 21.7419 34.8C22.0876 34.9978 22.497 35.052 22.8823 34.9511C23.2675 34.8501 23.5977 34.6019 23.8019 34.26L29.0519 21.99L29.8019 20.26C29.9891 19.9136 30.0375 19.509 29.9372 19.1282C29.8369 18.7475 29.5954 18.4192 29.2619 18.21C28.9174 18.0113 28.5089 17.9555 28.1238 18.0546C27.7387 18.1537 27.4077 18.3998 27.2019 18.74H27.1519Z" fill="black"/>
<path d="M30.3919 27.57C30.6519 27.78 30.9119 28 31.1519 28.23L31.9119 28.99L32.2519 29.38L32.4419 29.62C32.2019 29.29 32.6619 29.88 32.4419 29.62C32.6954 29.9569 32.9195 30.3149 33.1119 30.69C33.1119 30.77 33.1819 30.85 33.2319 30.93C33.2819 31.01 33.0919 30.55 33.1719 30.8C33.1719 30.8 33.1719 30.87 33.1719 30.91C33.2391 31.1103 33.2959 31.3139 33.3419 31.52C33.4319 31.85 33.3419 31.11 33.3419 31.46C33.3419 31.55 33.3419 31.65 33.3419 31.74C33.332 31.8331 33.332 31.9269 33.3419 32.02C33.3419 32.02 33.4319 31.61 33.3419 31.79C33.3374 31.8433 33.3374 31.8968 33.3419 31.95C33.3 32.0356 33.2697 32.1264 33.2519 32.22C33.2519 32.05 33.4319 31.86 33.2519 32.08C33.2502 32.1167 33.2502 32.1534 33.2519 32.19C33.1861 32.2703 33.1291 32.3575 33.0819 32.45C33.1819 32.16 33.2919 32.2 33.1719 32.32L33.0119 32.5L32.7119 32.77C32.5719 32.9 33.0419 32.55 32.7919 32.7L32.5919 32.84C32.4419 32.94 32.2819 33.02 32.1219 33.11C31.9619 33.2 31.4919 33.46 31.8519 33.25C31.4674 33.4371 31.0609 33.5748 30.6419 33.66C30.1019 33.81 29.5519 33.93 29.0019 34.03C28.6197 34.1397 28.2957 34.3949 28.0994 34.7407C27.9031 35.0866 27.8501 35.4956 27.9519 35.88C28.0681 36.258 28.3244 36.5773 28.6684 36.7725C29.0123 36.9677 29.4178 37.024 29.8019 36.93C32.5619 36.42 36.3919 35.1 36.3719 31.68C36.3719 29.62 34.9319 27.77 33.5319 26.38C33.1983 26.0228 32.8408 25.6887 32.4619 25.38C32.1758 25.1085 31.7964 24.9572 31.4019 24.9572C31.0075 24.9572 30.628 25.1085 30.3419 25.38C30.0658 25.6638 29.9113 26.0441 29.9113 26.44C29.9113 26.8359 30.0658 27.2162 30.3419 27.5L30.3919 27.57Z" fill="black"/>
<path d="M21.6919 22.8C22.6065 23.4336 23.6204 23.9102 24.6919 24.21C27.0284 24.9156 29.5331 24.8242 31.8119 23.95C32.2065 23.8527 32.5472 23.6043 32.7604 23.2582C32.9736 22.9122 33.0424 22.4963 32.9519 22.1C32.84 21.7192 32.5844 21.3968 32.2392 21.2009C31.8941 21.005 31.4862 20.9509 31.1019 21.05C30.5231 21.2821 29.9238 21.4595 29.3119 21.58C29.3119 21.58 28.8319 21.66 29.1419 21.58H28.7319C28.4652 21.58 28.1952 21.58 27.9219 21.58C27.6619 21.58 27.4119 21.58 27.1519 21.58C27.0719 21.58 26.6919 21.58 27.0619 21.58H26.7719C26.332 21.5063 25.8977 21.4027 25.4719 21.27C25.3019 21.21 25.1319 21.16 24.9619 21.09L24.6919 20.99C24.4019 20.88 24.9819 21.13 24.6919 20.99C24.4019 20.85 24.1519 20.74 23.8919 20.6C23.6614 20.4718 23.4378 20.3316 23.2219 20.18C23.052 20.079 22.8638 20.0126 22.6681 19.9846C22.4724 19.9565 22.2732 19.9675 22.0817 20.0167C21.8903 20.066 21.7105 20.1526 21.5526 20.2716C21.3948 20.3905 21.262 20.5395 21.1619 20.71C20.9742 21.0579 20.9255 21.4641 21.0257 21.8465C21.126 22.2289 21.3676 22.559 21.7019 22.77L21.6919 22.8Z" fill="black"/>
<path d="M34.6919 21.8C34.8209 21.8671 34.9446 21.944 35.0619 22.03L34.7519 21.8C34.9401 21.9399 35.1083 22.1047 35.2519 22.29L35.0119 21.99C35.1297 22.1307 35.2242 22.2894 35.2919 22.46L35.1419 22.1C35.1991 22.2525 35.2426 22.4098 35.2719 22.57L35.2119 22.17C35.2319 22.3394 35.2319 22.5106 35.2119 22.68L35.2719 22.28C35.2379 22.5074 35.174 22.7293 35.0819 22.94L35.2319 22.58L35.1519 22.74C34.9637 23.0959 34.9104 23.5079 35.0019 23.9C35.1135 24.2746 35.3591 24.595 35.6919 24.8C36.0445 24.9986 36.4604 25.0523 36.8519 24.95C37.2297 24.8447 37.5522 24.5975 37.7519 24.26C38.0389 23.7049 38.2026 23.0943 38.2319 22.47C38.2292 21.9297 38.1062 21.3968 37.8719 20.91C37.7006 20.5682 37.478 20.2545 37.2119 19.98C36.9862 19.7525 36.7383 19.5481 36.4719 19.37C36.3898 19.3095 36.3029 19.256 36.2119 19.21C35.8603 19.0091 35.4447 18.9518 35.0519 19.05C34.6773 19.1616 34.3569 19.4072 34.1519 19.74C33.9515 20.085 33.8957 20.4954 33.9969 20.8814C34.0981 21.2674 34.348 21.5977 34.6919 21.8Z" fill="black"/>
<path d="M11.9519 35.5V6.5L10.4519 8H14.4519C14.8497 8 15.2313 7.84196 15.5126 7.56066C15.7939 7.27935 15.9519 6.89782 15.9519 6.5C15.9519 6.10218 15.7939 5.72064 15.5126 5.43934C15.2313 5.15804 14.8497 5 14.4519 5H10.4519C10.0557 5.00518 9.67716 5.16488 9.39697 5.44507C9.11678 5.72526 8.95708 6.10379 8.9519 6.5V35.5C8.9519 35.8978 9.10994 36.2794 9.39124 36.5607C9.67255 36.842 10.0541 37 10.4519 37C10.8497 37 11.2313 36.842 11.5126 36.5607C11.7939 36.2794 11.9519 35.8978 11.9519 35.5Z" fill="black"/>
<path d="M22.4519 8H46.4519L44.9519 6.5V44.5L46.4519 43H10.4519C10.0557 43.0052 9.67716 43.1649 9.39697 43.4451C9.11678 43.7253 8.95708 44.1038 8.9519 44.5V48.5C8.95708 48.8962 9.11678 49.2747 9.39697 49.5549C9.67716 49.8351 10.0557 49.9948 10.4519 50H46.4519L44.9519 48.5V53.5L46.4519 52H10.4519C10.0541 52 9.67255 52.158 9.39124 52.4393C9.10994 52.7206 8.9519 53.1022 8.9519 53.5C8.9519 53.8978 9.10994 54.2794 9.39124 54.5607C9.67255 54.842 10.0541 55 10.4519 55H46.4519C46.8481 54.9948 47.2266 54.8351 47.5068 54.5549C47.787 54.2747 47.9467 53.8962 47.9519 53.5V48.5C47.9467 48.1038 47.787 47.7253 47.5068 47.4451C47.2266 47.1649 46.8481 47.0052 46.4519 47H10.4519L11.9519 48.5V44.5L10.4519 46H46.4519C46.8481 45.9948 47.2266 45.8351 47.5068 45.5549C47.787 45.2747 47.9467 44.8962 47.9519 44.5V6.5C47.9467 6.10379 47.787 5.72526 47.5068 5.44507C47.2266 5.16488 46.8481 5.00518 46.4519 5H22.4519C22.0541 5 21.6725 5.15804 21.3912 5.43934C21.1099 5.72064 20.9519 6.10218 20.9519 6.5C20.9519 6.89782 21.1099 7.27935 21.3912 7.56066C21.6725 7.84196 22.0541 8 22.4519 8Z" fill="black"/>
<path d="M20.9519 4.5V14.5L23.2119 13.21L19.6219 11.41L19.2119 11.21C18.9341 11.0813 18.6285 11.0239 18.323 11.0431C18.0174 11.0623 17.7214 11.1575 17.4619 11.32L15.4619 12.32L13.7219 13.19L15.9519 14.5V5.76V4.5L14.4519 6H22.4519C22.8497 6 23.2313 5.84196 23.5126 5.56066C23.7939 5.27935 23.9519 4.89782 23.9519 4.5C23.9519 4.10218 23.7939 3.72064 23.5126 3.43934C23.2313 3.15804 22.8497 3 22.4519 3H14.4519C14.0557 3.00518 13.6772 3.16488 13.397 3.44507C13.1168 3.72526 12.9571 4.10379 12.9519 4.5V13.24V14.5C12.9567 14.7625 13.0293 15.0193 13.1629 15.2454C13.2964 15.4715 13.4862 15.6591 13.7138 15.79C13.9413 15.9209 14.199 15.9907 14.4615 15.9924C14.7241 15.9942 14.9826 15.9279 15.2119 15.8L19.2119 13.8H17.6919L21.6919 15.8C21.9216 15.9249 22.1796 15.9888 22.441 15.9856C22.7025 15.9825 22.9588 15.9123 23.1854 15.782C23.4121 15.6516 23.6015 15.4653 23.7357 15.2409C23.8699 15.0164 23.9443 14.7614 23.9519 14.5V4.5C23.9519 4.10218 23.7939 3.72064 23.5126 3.43934C23.2313 3.15804 22.8497 3 22.4519 3C22.0541 3 21.6725 3.15804 21.3912 3.43934C21.1099 3.72064 20.9519 4.10218 20.9519 4.5Z" fill="black"/>
</svg>
