<svg width="17" height="16" viewBox="0 0 17 16" fill="none" xmlns="http://www.w3.org/2000/svg">
<g clip-path="url(#clip0_79_106)">
<path d="M8.21868 8.65334C10.3284 8.65334 12.0387 6.94306 12.0387 4.83334C12.0387 2.72361 10.3284 1.01334 8.21868 1.01334C6.10895 1.01334 4.39868 2.72361 4.39868 4.83334C4.39868 6.94306 6.10895 8.65334 8.21868 8.65334Z" stroke="#050038" stroke-width="1.5" stroke-miterlimit="10"/>
<path d="M1.21869 15.6533L1.46536 14.2867C1.75675 12.7083 2.59185 11.2819 3.82556 10.2552C5.05928 9.22854 6.61366 8.66647 8.21869 8.66666C9.82563 8.66705 11.3815 9.231 12.6155 10.2603C13.8495 11.2897 14.6834 12.7192 14.972 14.3L15.2187 15.6667" stroke="#050038" stroke-width="1.5" stroke-miterlimit="10"/>
</g>
<defs>
<clipPath id="clip0_79_106">
<rect width="16" height="16" fill="white" transform="translate(0.218689)"/>
</clipPath>
</defs>
</svg>
