<svg width="58" height="58" viewBox="0 0 58 58" fill="none" xmlns="http://www.w3.org/2000/svg">
<rect x="7.43289" y="30.0374" width="30.9519" height="30.9519" rx="3" transform="rotate(-45 7.43289 30.0374)" fill="#F9BB08"/>
<path d="M24.0208 44.5133C24.0208 43.589 24.0208 42.6647 24.0208 41.7404C24.0182 41.4781 23.945 41.2205 23.808 40.9912C23.671 40.762 23.4745 40.5683 23.2365 40.4279C22.8791 40.1876 23.5046 40.6774 23.1174 40.3539C22.889 40.1506 22.6607 39.9565 22.4522 39.7439L22.2437 39.5128C22.2437 39.5128 22.0154 39.2448 22.1445 39.4019L22.0353 39.2725L21.8168 38.9675C21.1215 38.0028 20.6296 36.9237 20.3674 35.7879C19.8945 33.7729 19.7871 31.6985 20.0497 29.6505C20.0497 29.2828 19.8928 28.9301 19.6135 28.6701C19.3343 28.4101 18.9555 28.264 18.5606 28.264C18.168 28.2711 17.7936 28.4195 17.516 28.678C17.2384 28.9365 17.079 29.285 17.0714 29.6505C16.7239 33.0889 17.0714 36.7584 18.8882 39.8178C19.5707 41.0355 20.5624 42.0794 21.7771 42.8588L21.0425 41.6665V44.5133C21.0425 44.881 21.1994 45.2337 21.4786 45.4937C21.7579 45.7537 22.1367 45.8998 22.5316 45.8998C22.9266 45.8998 23.3054 45.7537 23.5846 45.4937C23.8639 45.2337 24.0208 44.881 24.0208 44.5133Z" fill="#050038"/>
<path d="M32.4593 29.1883C31.814 29.1883 31.8538 28.4581 32.3799 28.264C32.6794 28.2224 32.9839 28.2224 33.2834 28.264H36.9268C37.9792 28.264 37.9196 28.7724 37.9196 29.6505V32.4234C37.9809 33.4786 37.9377 34.5367 37.7905 35.5845C37.4806 37.0416 36.7573 38.3948 35.6958 39.5036C35.3816 39.8269 35.0503 40.1354 34.703 40.4279C34.6236 40.5018 34.5342 40.5573 34.4548 40.622C34.3754 40.6867 34.8718 40.1691 34.5541 40.548C34.2759 40.799 34.0826 41.1203 33.9981 41.4723C33.9387 42.1367 33.9387 42.8045 33.9981 43.4688V50.0499C34.0059 50.2561 34.0624 50.4581 34.1636 50.6417C34.2647 50.8252 34.408 50.9858 34.5834 51.112C34.7587 51.2382 34.9617 51.3268 35.178 51.3717C35.3943 51.4166 35.6185 51.4166 35.8348 51.3716C39.546 50.3274 42.9678 48.5421 45.8618 46.1401C49.7559 42.7833 52.3919 38.3528 53.3828 33.4987C54.3737 28.6447 53.6674 23.6227 51.3675 19.1699C49.0676 14.717 45.2953 11.0678 40.6042 8.75765C35.913 6.44753 30.55 5.59821 25.3023 6.33433C20.0546 7.07045 15.1985 9.35325 11.4467 12.8477C7.69485 16.3422 5.24486 20.8643 4.45627 25.7503C3.66768 30.6364 4.58201 35.6292 7.06508 39.9959C9.54815 44.3627 13.4692 47.8734 18.2528 50.0129C19.9703 50.7893 21.4793 48.3954 19.7519 47.619C16.0345 46.0124 12.8776 43.4645 10.642 40.2665C8.40646 37.0684 7.18248 33.3492 7.10999 29.5341C7.0375 25.719 8.11942 21.9618 10.2321 18.6921C12.3447 15.4225 15.4029 12.7722 19.0569 11.0442C22.5814 9.37537 26.5265 8.62863 30.4711 8.8837C34.4157 9.13876 38.212 10.386 41.4549 12.4925C44.6978 14.5989 47.2656 17.4855 48.8845 20.8443C50.5033 24.203 51.1125 27.908 50.6469 31.5638C50.1111 35.8592 48.1184 39.8838 44.9583 43.0529C42.225 45.7021 38.8065 47.6531 35.0306 48.7189L36.9268 50.0591V41.6664L36.1922 42.868C37.9106 41.6167 39.2485 39.9695 40.0739 38.0894C41.0667 35.8064 40.8979 33.3662 40.8979 30.9538C40.8979 28.8371 41.0667 26.3322 38.2968 25.602C37.3853 25.4589 36.4583 25.4216 35.5369 25.4911C34.5442 25.4911 33.5514 25.4911 32.5586 25.4911C31.6371 25.4789 30.748 25.8079 30.0871 26.406C29.4262 27.004 29.0475 27.822 29.0343 28.68C29.0211 29.538 29.3746 30.3657 30.0169 30.981C30.6592 31.5964 31.5378 31.949 32.4593 31.9612C34.3655 32.1091 34.3555 29.3362 32.4593 29.1883Z" fill="#050038"/>
<path d="M23.2266 30.353C23.2266 30.353 23.4152 30.7504 23.3358 30.5656C23.2564 30.3807 23.4053 30.7597 23.4053 30.7504C23.4053 30.7412 23.5344 31.0554 23.5046 31.1664V30.9907V31.1756C23.4997 31.231 23.4997 31.2866 23.5046 31.342C23.4351 31.1294 23.5641 31.0647 23.5046 31.2126C23.3854 31.5083 23.5046 31.2126 23.5046 31.1571C23.4689 31.2064 23.439 31.2591 23.4152 31.3142C23.2762 31.5546 23.4152 31.1848 23.4847 31.2311C23.4196 31.3057 23.3464 31.3738 23.2663 31.4344C23.0975 31.6285 23.5145 31.2865 23.3656 31.3789L23.1968 31.4806C23.1044 31.5461 23.0045 31.6019 22.899 31.647C23.167 31.5638 22.9586 31.647 22.899 31.647C22.899 31.7302 22.6309 31.7302 22.899 31.647C22.8263 31.6516 22.7533 31.6516 22.6806 31.647C22.3629 31.647 22.7898 31.647 22.7699 31.647C22.7501 31.647 22.5614 31.5915 22.5118 31.5915C22.7699 31.7487 22.4622 31.5915 22.5118 31.5915C22.5118 31.5915 22.343 31.5268 22.3331 31.4899C22.482 31.61 22.5019 31.6193 22.3828 31.4899L22.3033 31.4159C22.0849 31.2311 22.4026 31.6008 22.3033 31.3605L22.1445 31.0924L20.7943 28.9203L20.149 27.8758C20.0894 27.7834 19.9703 27.4599 19.8512 27.4044L19.9108 27.5154C19.9108 27.7002 19.9108 27.691 19.9108 27.5154V27.6263C19.9278 27.5196 19.9543 27.4145 19.9902 27.312L20.0497 27.1456C19.9703 27.3212 19.9703 27.312 20.0497 27.1456L20.1689 26.9608C20.3476 26.6927 19.9703 27.1364 20.2185 26.9608L20.3774 26.8129C20.5858 26.6095 20.1689 26.9053 20.427 26.8129L20.6653 26.6835H20.566L20.7248 26.628C20.8118 26.6008 20.9017 26.5822 20.9929 26.5726H20.8142H21.0425C21.3403 26.5726 21.0425 26.5726 20.9829 26.5726C20.9234 26.5726 21.251 26.6373 21.3503 26.665C21.2808 26.665 21.0524 26.5726 21.3503 26.665C21.4198 26.665 21.4198 26.665 21.2708 26.6095C21.3801 26.7297 21.3701 26.7112 21.2708 26.6095C21.4855 26.8997 21.81 27.1035 22.1793 27.1801C22.5486 27.2568 22.9354 27.2005 23.262 27.0228C23.5887 26.845 23.831 26.5587 23.9404 26.2215C24.0499 25.8843 24.0183 25.521 23.8521 25.2046C22.3232 23.0047 18.7294 23.6425 17.4983 25.7684C17.205 26.2223 17.037 26.7367 17.0093 27.2657C16.9816 27.7947 17.095 28.3219 17.3395 28.8001C17.5182 29.0959 17.7167 29.3917 17.8954 29.7244L19.5831 32.4511C19.8068 32.8603 20.1021 33.2321 20.4568 33.5511C20.9131 33.9412 21.4723 34.2117 22.0774 34.3351C22.6826 34.4585 23.312 34.4304 23.9017 34.2535C24.8416 33.9592 25.6328 33.354 26.1255 32.5528C26.3886 31.9723 26.4998 31.3418 26.4497 30.7135C26.3996 30.0851 26.1898 29.4768 25.8376 28.9388C25.6331 28.6245 25.3053 28.3967 24.9236 28.3036C24.5419 28.2104 24.1362 28.2592 23.7925 28.4397C23.4606 28.6347 23.2207 28.9398 23.1212 29.2933C23.0217 29.6467 23.07 30.0222 23.2564 30.3437L23.2266 30.353Z" fill="#050038"/>
<path d="M23.8223 25.2507C23.8223 25.2507 23.6932 24.9641 23.6535 24.9549C23.6138 24.9456 23.7826 25.2876 23.7031 25.0566L23.6436 24.8809C23.6436 24.77 23.5939 24.6591 23.5542 24.5482C23.5145 24.4373 23.5542 24.9272 23.5542 24.6591C23.5493 24.5822 23.5493 24.505 23.5542 24.428C23.5542 24.3726 23.5542 24.3079 23.5542 24.2432C23.5542 24.1785 23.455 24.6037 23.5542 24.3541C23.5542 24.3079 23.5542 24.2524 23.5542 24.2062C23.6237 23.9659 23.3954 24.4188 23.5542 24.2986C23.5998 24.2489 23.6367 24.1927 23.6634 24.1323C23.6634 24.3264 23.455 24.3356 23.584 24.2339C23.6652 24.1803 23.7516 24.1339 23.8421 24.0953H23.7627L24.0208 24.0121C24.6066 23.7071 23.7726 24.1415 24.0208 24.0121C23.8322 24.123 24.1003 24.0121 24.14 24.0121C24.4378 23.9012 24.0407 24.0121 24.0506 24.0121C24.153 24.003 24.256 24.003 24.3584 24.0121C24.3584 24.0121 23.9811 23.9289 24.269 24.0121L24.4676 24.0583C24.7654 24.123 24.1598 23.9844 24.5271 24.0583C24.8945 24.1323 24.5271 24.1877 24.5271 24.0583L24.6761 24.197C24.9143 24.4003 24.547 23.9566 24.6761 24.2432L24.7753 24.4003C25.5596 25.6666 26.3141 26.9514 27.1282 28.19V28.2362C27.1778 28.3194 27.1977 28.458 27.0686 28.0975C27.1481 28.3378 27.0686 27.774 27.0686 28.0143C27.0583 28.0911 27.0583 28.1687 27.0686 28.2454C27.0686 28.1068 27.1282 27.9404 27.0686 28.19C27.0046 28.3133 26.9579 28.4438 26.9297 28.5782C27.0389 28.3563 26.9297 28.3378 26.9297 28.5782L26.8204 28.7815C26.7609 28.8832 26.7013 28.9941 26.6318 29.0958L26.4134 29.4008L26.9991 28.8185C26.9991 28.8185 26.8602 28.8739 26.8502 28.8924C26.8403 28.9109 27.1679 28.7908 26.9594 28.8924L26.602 28.9941C26.5396 28.9844 26.4759 28.9844 26.4134 28.9941C26.4134 28.9941 26.7609 28.9941 26.5226 28.9941H26.0858C26.0163 28.9941 25.8277 28.9479 26.0858 28.9941C26.0858 28.9941 25.6589 28.8647 25.8773 28.9941C26.0957 29.1235 25.5795 28.7908 25.8277 28.9941C25.8277 28.9941 26.0362 29.2991 25.8872 29.0588C25.7966 28.8863 25.6688 28.7331 25.5117 28.6088C25.3546 28.4844 25.1716 28.3915 24.9742 28.336C24.7768 28.2805 24.5692 28.2635 24.3644 28.286C24.1596 28.3086 23.9621 28.3703 23.784 28.4672C23.606 28.5641 23.4514 28.6941 23.3298 28.8492C23.2082 29.0043 23.1223 29.181 23.0774 29.3684C23.0326 29.5558 23.0297 29.7498 23.0691 29.9383C23.1084 30.1267 23.1891 30.3056 23.306 30.4637C23.6512 30.9324 24.1229 31.3082 24.6736 31.5532C25.2244 31.7982 25.8347 31.9038 26.4432 31.8594C27.0346 31.8386 27.6169 31.7164 28.1607 31.499C28.5982 31.3345 28.9696 31.0469 29.223 30.6763C29.7626 29.9642 30.1038 29.1384 30.2157 28.2731C30.2337 27.6834 30.057 27.1027 29.7094 26.6094L27.843 23.6054C27.6742 23.3281 27.5154 23.0416 27.3168 22.7735C26.9202 22.2205 26.3539 21.7915 25.6916 21.5425C25.0292 21.2936 24.3017 21.2362 23.6039 21.3778C23.4671 21.4038 23.3339 21.4442 23.2068 21.498L22.7997 21.6551C22.7302 21.6551 22.5019 21.7753 22.7997 21.6551C23.0976 21.535 22.4622 21.7938 22.343 21.8585C22.1518 21.9651 21.9722 22.0889 21.807 22.2282C21.3287 22.6057 20.9829 23.1079 20.8142 23.6701C20.5796 24.7236 20.7743 25.8207 21.3602 26.748C21.5748 27.0382 21.8993 27.242 22.2687 27.3186C22.638 27.3953 23.0247 27.3391 23.3514 27.1613C23.678 26.9835 23.9204 26.6973 24.0298 26.36C24.1392 26.0228 24.1077 25.6595 23.9414 25.3431L23.8223 25.2507Z" fill="#050038"/>
<path d="M29.4215 23.4485L25.8872 15.065C25.8277 14.9356 25.7681 14.8062 25.7184 14.6768V14.5936C25.6907 14.521 25.6675 14.4469 25.649 14.3718C25.649 14.4735 25.649 14.5104 25.649 14.3071C25.649 14.5104 25.649 14.1777 25.7085 14.1222C25.7681 14.0668 25.6092 14.2978 25.7582 14.0668C25.6887 14.1777 25.7582 14.0668 25.8177 14.0113C25.649 14.1592 26.2446 13.771 25.917 13.9281C25.5894 14.0853 26.2049 13.8449 26.0858 13.9281C26.0858 13.9281 26.0858 13.9281 26.2545 13.9281C26.4233 13.9281 26.4928 13.9928 26.3638 13.9281C26.5921 14.0668 26.2347 13.8634 26.3638 13.9281C26.5524 14.0575 26.3638 13.9281 26.5226 14.0853C26.6814 14.2424 26.5822 14.1592 26.5226 14.039L26.5822 14.1684C27.1778 15.6196 27.8033 17.0615 28.4089 18.5034L30.2157 22.7737C30.3269 23.1237 30.579 23.4201 30.9195 23.6009C31.2599 23.7818 31.6623 23.8332 32.0424 23.7442C32.412 23.6353 32.7218 23.3972 32.9069 23.0801C33.092 22.763 33.138 22.3915 33.0352 22.0435C31.8141 19.1504 30.6227 16.2481 29.3718 13.3643C29.1002 12.6171 28.5508 11.9849 27.8227 11.5815C27.0946 11.1782 26.2357 11.0303 25.4008 11.1644C24.9267 11.2615 24.4795 11.4494 24.0878 11.7163C23.696 11.9832 23.3683 12.3231 23.1254 12.7144C22.8826 13.1057 22.73 13.5399 22.6773 13.9891C22.6246 14.4384 22.6731 14.8929 22.8196 15.3238C23.306 16.701 23.9513 18.032 24.5271 19.3723L26.5127 24.1787C26.6259 24.5273 26.8785 24.8223 27.2183 25.0028C27.5581 25.1834 27.9593 25.2357 28.3394 25.1492C28.7089 25.0402 29.0188 24.8022 29.2039 24.4851C29.389 24.168 29.4349 23.7964 29.3321 23.4485H29.4215Z" fill="#050038"/>
<path d="M33.1047 22.94L36.5396 14.2977C36.5704 14.2347 36.597 14.1698 36.6191 14.1036C36.6215 14.0883 36.6215 14.0728 36.6191 14.0574C36.5694 14.1221 36.4801 14.3809 36.6191 14.0574C36.6687 13.9927 36.7878 13.8633 36.907 13.8356C36.8077 13.8356 37.3239 13.8356 37.175 13.8356C37.175 13.8356 37.4927 13.9465 37.2544 13.8356C37.3339 13.8911 37.0162 13.7247 37.2544 13.8356C37.3243 13.8941 37.3876 13.9591 37.4431 14.0297C37.3537 13.9373 37.5126 14.233 37.4431 14.0852C37.4802 14.2359 37.4554 14.3942 37.3736 14.5288C37.3736 14.6675 37.2644 14.7969 37.2147 14.9355L35.2292 19.9175L33.4819 24.2987C33.3812 24.6528 33.434 25.0297 33.629 25.3478C33.824 25.666 34.1456 25.9001 34.5243 25.9994C34.9058 26.0887 35.3095 26.0376 35.6515 25.8569C35.9936 25.6761 36.2477 25.3796 36.3609 25.0289L40.1335 15.5548C40.3729 15.0097 40.4549 14.4157 40.3713 13.832C40.2877 13.2482 40.0414 12.695 39.6569 12.2273C39.3326 11.8578 38.925 11.5592 38.4629 11.3527C38.0009 11.1462 37.4956 11.0369 36.9831 11.0325C36.4706 11.0281 35.9633 11.1287 35.4972 11.3272C35.0311 11.5257 34.6176 11.8172 34.286 12.1811C33.8412 12.7955 33.506 13.4728 33.2933 14.1868L32.1714 16.9597L30.1363 22.0804C30.0328 22.4346 30.0844 22.8126 30.2799 23.1314C30.4753 23.4502 30.7985 23.6839 31.1787 23.7811C31.5523 23.8721 31.9492 23.8272 32.2885 23.6555C32.6278 23.4838 32.8842 23.1982 33.0054 22.8568L33.1047 22.94Z" fill="#050038"/>
<path d="M33.1642 34.0409C33.0947 33.93 33.0352 33.8191 32.9756 33.7082L33.1245 34.0409C33.0374 33.8257 32.9742 33.6027 32.9359 33.3754L32.9855 33.7452C32.9464 33.4876 32.9464 33.2263 32.9855 32.9687L32.926 33.3385C32.9683 33.094 33.0416 32.8551 33.1444 32.6268L32.9955 32.9595C33.0623 32.8102 33.1455 32.6677 33.2436 32.5343L33.3131 32.4326L33.2039 32.5713C33.261 32.499 33.3241 32.431 33.3926 32.3679L33.5812 32.2108C33.6904 32.0999 33.3032 32.3957 33.4323 32.3125L33.5415 32.2385C33.6949 32.144 33.8578 32.0635 34.0279 31.9982L33.6705 32.1369C33.9158 32.0412 34.1724 31.9729 34.435 31.9335L34.0379 31.989C34.4545 31.9658 34.8722 31.9658 35.2888 31.989H36.4304C36.8254 31.989 37.2042 31.8429 37.4834 31.5829C37.7627 31.3229 37.9196 30.9702 37.9196 30.6025C37.9196 30.2348 37.7627 29.8822 37.4834 29.6222C37.2042 29.3621 36.8254 29.2161 36.4304 29.2161C35.7355 29.2161 35.0406 29.2161 34.3456 29.2161C33.5672 29.2302 32.8063 29.4339 32.1387 29.8069C31.4711 30.18 30.9201 30.7093 30.5405 31.3422C30.161 31.9751 29.9661 32.6896 29.9753 33.4144C29.9845 34.1392 30.1974 34.8492 30.5929 35.4736C30.7955 35.7872 31.1216 36.0148 31.5017 36.108C31.8817 36.2012 32.2859 36.1527 32.6281 35.9727C32.9637 35.7808 33.2068 35.4756 33.3067 35.1209C33.4065 34.7662 33.3555 34.3892 33.1642 34.0687V34.0409Z" fill="#050038"/>
</svg>
