<svg width="40" height="40" viewBox="0 0 40 40" fill="none" xmlns="http://www.w3.org/2000/svg">
<rect x="8.88889" y="22.1635" width="16.3178" height="16.3178" rx="3" transform="rotate(-45 8.88889 22.1635)" fill="#F9BB08"/>
<path d="M14.1247 28.7756C16.8088 32.1148 20.9827 36.3119 25.6783 35.7959C28.403 35.4829 30.9595 33.3148 32.0552 30.851C32.4654 29.935 32.6648 28.9386 32.6387 27.9353C32.6126 26.932 32.3617 25.9473 31.9044 25.0539C31.4789 24.2802 30.9547 23.565 30.345 22.9264C28.3566 20.6423 26.3392 18.3814 24.258 16.1727C22.7972 14.6075 21.1856 13.0887 19.1218 12.4452C16.9305 11.7495 12.745 12.2133 12.5247 15.1351C12.3914 16.8046 14.0957 18.1206 15.1218 19.2394L18.2465 22.6481V21.3959L15.6957 23.6336C14.8146 24.422 13.7943 25.4481 12.687 24.2713C11.8696 23.4017 11.1218 22.4568 10.3276 21.5698C10.1073 21.3264 10.287 21.4829 10.287 21.5351C10.287 21.3669 10.1653 21.28 10.0957 21.0133C9.98796 20.5695 9.96988 20.1085 10.0426 19.6576C10.1152 19.2067 10.2772 18.7748 10.5189 18.3872C11.1856 17.2742 11.8233 16.3698 11.6204 14.9959C11.5218 14.3061 11.2494 13.6568 11.145 12.9611C11.012 12.3373 11.0167 11.692 11.1589 11.0702C11.3011 10.4484 11.5773 9.86515 11.9682 9.36114C12.5623 8.72702 13.3147 8.26276 14.1479 8.01621C14.432 7.92346 14.7276 7.85389 15.0059 7.77853C15.1044 7.77853 14.7276 7.81331 14.9015 7.77853C15.1209 7.75155 15.3414 7.73607 15.5624 7.73215C16.3614 7.70885 17.1588 7.81856 17.9218 8.05679C18.4124 8.21421 18.8773 8.44273 19.3015 8.73505C19.603 8.93795 19.8407 9.2336 20.1479 9.42491C20.5126 9.62639 20.9171 9.74536 21.3328 9.7734C21.7485 9.80145 22.1653 9.7379 22.5537 9.58723C24.4146 8.87418 25.0986 6.60172 25.4523 4.8394C25.6783 3.74375 24.003 3.27998 23.7711 4.37563C23.6256 5.44091 23.2454 6.46061 22.658 7.36114C22.5445 7.54434 22.3923 7.70049 22.212 7.81865C22.0318 7.93682 21.8279 8.01414 21.6146 8.0452C21.8465 8.01041 21.1218 7.98723 21.4175 8.0452C21.274 8.01346 21.1327 7.9728 20.9943 7.92346C21.0754 7.99882 21.2146 7.99882 20.9943 7.92346C20.653 7.56814 20.2626 7.26359 19.8349 7.01911C16.8494 5.27998 12.4378 5.71476 10.3276 8.6365C9.47748 9.93053 9.1482 11.4982 9.40587 13.0249C9.50443 13.7553 9.74211 14.422 9.88703 15.1351C10.1595 16.4742 8.88414 17.4829 8.49573 18.6829C8.10732 19.8829 8.12472 21.6626 9.01167 22.7408C9.80587 23.6858 10.6117 24.6365 11.458 25.5351C11.8431 25.9567 12.3328 26.2688 12.8775 26.4399C13.4223 26.611 14.0026 26.6348 14.5595 26.509C15.2499 26.297 15.8745 25.9118 16.374 25.3901L19.4465 22.6597C19.6052 22.4945 19.6938 22.2743 19.6938 22.0452C19.6938 21.8161 19.6052 21.5959 19.4465 21.4307C17.8233 19.6568 16.1421 17.9524 14.5653 16.109C12.9885 14.2655 16.7972 13.7495 17.9102 13.9524C19.8117 14.2887 21.3247 15.6394 22.6175 16.9901C24.5189 18.9785 26.3508 21.0481 28.1711 23.0945C28.6638 23.6742 29.1624 24.2249 29.6552 24.7988L29.8175 24.9843L29.8812 25.0597C29.7421 24.8916 29.8291 24.9901 29.8812 25.1003C30.6365 26.1332 31.0001 27.4009 30.9073 28.6771C30.6465 30.88 28.6291 33.0887 26.5769 33.8133C24.258 34.6191 21.9392 33.5061 20.0783 32.1843C18.3002 30.8601 16.7107 29.2999 15.3537 27.5466C14.658 26.6713 13.4349 27.9119 14.1247 28.7756Z" fill="#050038"/>
</svg>
