<svg width="58" height="58" viewBox="0 0 58 58" fill="none" xmlns="http://www.w3.org/2000/svg">
<rect x="1.75" y="32.7981" width="21.9883" height="21.9883" rx="3" transform="rotate(-45 1.75 32.7981)" fill="#F9BB08"/>
<path d="M54.75 47.75H3.75L5.25 49.25V19.25L3.75 20.75H54.75L53.25 19.25V49.25C53.25 49.6478 53.408 50.0294 53.6893 50.3107C53.9706 50.592 54.3522 50.75 54.75 50.75C55.1478 50.75 55.5294 50.592 55.8107 50.3107C56.092 50.0294 56.25 49.6478 56.25 49.25V19.25C56.2448 18.8538 56.0851 18.4753 55.8049 18.1951C55.5247 17.9149 55.1462 17.7552 54.75 17.75H3.75C3.35379 17.7552 2.97526 17.9149 2.69507 18.1951C2.41488 18.4753 2.25518 18.8538 2.25 19.25V49.25C2.25518 49.6462 2.41488 50.0247 2.69507 50.3049C2.97526 50.5851 3.35379 50.7448 3.75 50.75H54.75C55.1478 50.75 55.5294 50.592 55.8107 50.3107C56.092 50.0294 56.25 49.6478 56.25 49.25C56.25 48.8522 56.092 48.4706 55.8107 48.1893C55.5294 47.908 55.1478 47.75 54.75 47.75Z" fill="black"/>
<path d="M22.13 24.3C23.3388 24.821 24.3779 25.6696 25.13 26.75C25.8689 27.8117 26.2603 29.0765 26.25 30.37V32.49C26.2565 33.1814 26.1061 33.8652 25.81 34.49C25.5107 35.1141 25.0345 35.6365 24.4406 35.992C23.8468 36.3476 23.1615 36.5208 22.47 36.49C21.884 36.504 21.3036 36.3735 20.78 36.11C20.3434 35.8932 19.9686 35.57 19.69 35.17C19.3297 35.5625 18.8903 35.8741 18.4008 36.0844C17.9112 36.2947 17.3827 36.3989 16.85 36.39C16.3619 36.4284 15.8714 36.3586 15.4134 36.1858C14.9553 36.013 14.541 35.7412 14.2 35.39C13.5373 34.6123 13.1974 33.6104 13.25 32.59V31.45C13.1939 30.3199 13.5856 29.2133 14.34 28.37C14.781 27.9575 15.303 27.6413 15.8729 27.4416C16.4428 27.2419 17.048 27.163 17.65 27.21C18.9959 27.1803 20.3175 27.5719 21.43 28.33V32.79C21.4049 33.1893 21.4698 33.5892 21.62 33.96C21.6975 34.0908 21.8119 34.1957 21.949 34.2616C22.086 34.3274 22.2394 34.3512 22.39 34.33C23.0567 34.33 23.39 33.69 23.39 32.41V30.91C23.4324 30.1923 23.3313 29.4733 23.0927 28.7951C22.854 28.1168 22.4825 27.493 22 26.96C21.4247 26.4472 20.7516 26.0561 20.0212 25.8104C19.2908 25.5646 18.5182 25.4692 17.75 25.53C16.6213 25.4954 15.5025 25.7502 14.5 26.27C13.6596 26.7095 12.9649 27.3834 12.5 28.21C12.059 29.0123 11.8318 29.9145 11.84 30.83V33.17C11.7858 33.8737 11.8837 34.5809 12.127 35.2435C12.3703 35.9061 12.7533 36.5085 13.25 37.01C14.3903 37.9499 15.8451 38.4217 17.32 38.33C17.8661 38.3252 18.411 38.2784 18.95 38.19C19.485 38.1078 20.0108 37.9739 20.52 37.79L21.25 39.75C20.5989 39.9859 19.9301 40.1698 19.25 40.3C18.5895 40.4146 17.9203 40.4715 17.25 40.47C15.7491 40.5048 14.2584 40.2148 12.88 39.62C11.692 39.1031 10.6856 38.243 9.98999 37.15C9.2964 35.9919 8.94936 34.6593 8.98999 33.31V30.61C8.97849 29.2978 9.37704 28.0148 10.13 26.94C10.9285 25.8096 12.0166 24.915 13.28 24.35C14.6948 23.7054 16.2355 23.3843 17.79 23.41C19.283 23.4001 20.7614 23.7032 22.13 24.3ZM16.42 33.83C16.5204 33.9723 16.6563 34.086 16.8142 34.1596C16.972 34.2333 17.1464 34.2645 17.32 34.25C17.7872 34.2439 18.2357 34.0659 18.58 33.75V29.35C18.2838 29.2214 17.9628 29.16 17.64 29.17C17.4198 29.1465 17.1973 29.1835 16.9965 29.2769C16.7956 29.3702 16.624 29.5165 16.5 29.7C16.2452 30.2676 16.1353 30.8895 16.18 31.51V32.45C16.1431 32.9228 16.2256 33.3974 16.42 33.83Z" fill="black"/>
<path d="M54.25 13.25H3.25L4.75 14.75V8.75L3.25 10.25H54.25L52.75 8.75V14.75C52.75 15.1478 52.908 15.5294 53.1893 15.8107C53.4706 16.092 53.8522 16.25 54.25 16.25C54.6478 16.25 55.0294 16.092 55.3107 15.8107C55.592 15.5294 55.75 15.1478 55.75 14.75V8.75C55.7448 8.35379 55.5851 7.97526 55.3049 7.69507C55.0247 7.41488 54.6462 7.25518 54.25 7.25H3.25C2.85379 7.25518 2.47526 7.41488 2.19507 7.69507C1.91488 7.97526 1.75518 8.35379 1.75 8.75V14.75C1.75518 15.1462 1.91488 15.5247 2.19507 15.8049C2.47526 16.0851 2.85379 16.2448 3.25 16.25H54.25C54.6478 16.25 55.0294 16.092 55.3107 15.8107C55.592 15.5294 55.75 15.1478 55.75 14.75C55.75 14.3522 55.592 13.9706 55.3107 13.6893C55.0294 13.408 54.6478 13.25 54.25 13.25Z" fill="black"/>
<path d="M29.75 28.25H48.75C49.1478 28.25 49.5294 28.092 49.8107 27.8107C50.092 27.5294 50.25 27.1478 50.25 26.75C50.25 26.3522 50.092 25.9706 49.8107 25.6893C49.5294 25.408 49.1478 25.25 48.75 25.25H29.75C29.3522 25.25 28.9706 25.408 28.6893 25.6893C28.408 25.9706 28.25 26.3522 28.25 26.75C28.25 27.1478 28.408 27.5294 28.6893 27.8107C28.9706 28.092 29.3522 28.25 29.75 28.25Z" fill="black"/>
<path d="M29.75 33.5H48.75C49.1478 33.5 49.5294 33.342 49.8107 33.0607C50.092 32.7794 50.25 32.3978 50.25 32C50.25 31.6022 50.092 31.2206 49.8107 30.9393C49.5294 30.658 49.1478 30.5 48.75 30.5H29.75C29.3522 30.5 28.9706 30.658 28.6893 30.9393C28.408 31.2206 28.25 31.6022 28.25 32C28.25 32.3978 28.408 32.7794 28.6893 33.0607C28.9706 33.342 29.3522 33.5 29.75 33.5Z" fill="black"/>
<path d="M29.75 38.75H48.75C49.1478 38.75 49.5294 38.592 49.8107 38.3107C50.092 38.0294 50.25 37.6478 50.25 37.25C50.25 36.8522 50.092 36.4706 49.8107 36.1893C49.5294 35.908 49.1478 35.75 48.75 35.75H29.75C29.3522 35.75 28.9706 35.908 28.6893 36.1893C28.408 36.4706 28.25 36.8522 28.25 37.25C28.25 37.6478 28.408 38.0294 28.6893 38.3107C28.9706 38.592 29.3522 38.75 29.75 38.75Z" fill="black"/>
</svg>
