<svg id="Слой_1" data-name="Слой 1" xmlns="http://www.w3.org/2000/svg" viewBox="0 0 1782 508">
  <defs>
    <style>
      .cls-1 {
        fill: #f9bb08;
      }

      .cls-2 {
        fill: #050038;
      }
    </style>
  </defs>
  <title>Logo Busy Bee</title>
  <path class="cls-1" d="M235.51,396.07l-59.69-59.52a33.09,33.09,0,0,1,0-46.88l59.69-59.52a33.32,33.32,0,0,1,47,0l59.69,59.52a33.09,33.09,0,0,1,0,46.88l-59.69,59.52A33.32,33.32,0,0,1,235.51,396.07Z"/>
  <path class="cls-2" d="M210,155.19,195.26,146a173.23,173.23,0,0,1,10.53-15.16c11.47-14.66,23.49-23.92,35.72-27.53a40.83,40.83,0,0,1,21-.65c13,3,25.91,12.48,38.22,28.18.22.27.51.65.8,1l-13.87,10.39c-.17-.23-.34-.46-.52-.68-9.86-12.58-19.45-20-28.55-22.07a23.35,23.35,0,0,0-12.11.38c-8.71,2.57-17.79,9.84-27,21.6A155.59,155.59,0,0,0,210,155.19Z"/>
  <path class="cls-2" d="M286.67,417.48a5,5,0,0,1,6.61,6.41c-9.57,25.21-22.71,47.15-37.77,51.93a19.37,19.37,0,0,1-10.11.53c-18.26-3.82-34.89-32.68-46.1-63.11a102.49,102.49,0,0,0,87.37,4.24Z"/>
  <rect class="cls-2" x="283.01" y="22.89" width="25.45" height="86.43" rx="6.61"/>
  <rect class="cls-2" x="188.63" y="22.89" width="25.45" height="86.43" rx="6.61"/>
  <path class="cls-2" d="M264,457.13c-28,0-60.64-30.95-83.64-57.66a17.57,17.57,0,0,1,13.23-29l113.27-.88a3.91,3.91,0,0,0,3.26-1.65l8.41-13.68H190.17c-9.57,0-17.38-1.4-23.88-4.29-11.47-5.07-18.39-14.91-19.49-27.7l-1-11.23a18.71,18.71,0,0,1,18.58-20.24l162.92-.82-4.45-11.24a.54.54,0,0,0-.51-.35H166.66a12.83,12.83,0,0,1-12-8.21h0c-.72-2-2.55-8.81,4.42-14.78,6.56-5.61,38.67-26,67.37-42.72,16.89-9.85,31.63-17.9,42.64-23.29,19.51-9.53,27.57-11.26,34.51-7.41l.85.47,56,43.57a18.45,18.45,0,0,0,21-3.14l41.36-39.26a18.4,18.4,0,0,0,.31-26.35l-37.79-37.68a18.56,18.56,0,0,0-22.3-2.94L145,246.21c-18,10.33-47.61,6.58-61.13-7.62L48,201a43.22,43.22,0,0,1,.4-60.25l38.31-39.15a43.64,43.64,0,0,1,55.12-5.93l.62.43L198.2,137.8a4,4,0,0,0,3.8,0l62.49-34.65,12.16,21.86L214,159.78a29,29,0,0,1-29.76-1.21l-.64-.45L127.8,116.35a18.58,18.58,0,0,0-23.15,2.7L66.34,158.22a18.32,18.32,0,0,0-.17,25.54L102,221.36c5.6,5.88,22.61,7.71,30.34,3.27L350.48,95a43.74,43.74,0,0,1,52.64,6.83l37.79,37.68a43.38,43.38,0,0,1-.75,62.15L398.79,241a43.39,43.39,0,0,1-51.22,6.46l-.84-.46-53-41.2c-14.12,4.6-56.42,28.9-86.66,47.59H322.35a25.46,25.46,0,0,1,23.81,16.15L354.67,291a17.53,17.53,0,0,1,.26,12.67,17.24,17.24,0,0,1-16.06,11.19l-167.5.85.38,4.35c.37,4.28,2,5.81,4.7,7,2.2,1,6.36,2.14,13.72,2.14h141.3a18.06,18.06,0,0,1,13.11,5.38,17.51,17.51,0,0,1,2.28,21.28l-15.67,25.5a28.75,28.75,0,0,1-24.25,13.17l-96.65.75c22.79,24,43.59,38.09,55,36.76l2.92,24.83A36.7,36.7,0,0,1,264,457.13Zm32.57-252.08"/>
  <path class="cls-1" d="M1167.48,264.14l-22.58-22.55a12.55,12.55,0,0,1,0-17.76l22.58-22.54a12.57,12.57,0,0,1,17.78,0l22.57,22.54a12.55,12.55,0,0,1,0,17.76l-22.57,22.55A12.59,12.59,0,0,1,1167.48,264.14Z"/>
  <g>
    <path class="cls-2" d="M545.38,358.74h7.24L561.68,384c1.14,3.23,2.22,6.57,3.36,9.85h.29c1.13-3.28,2.13-6.62,3.26-9.85l9-25.25h7.24V406H579.2V380c0-4.12.46-9.8.76-14h-.28l-3.76,10.78L567,401.23h-4l-8.95-24.45L550.35,366h-.29c.3,4.18.77,9.86.77,14v26h-5.45Z"/>
    <path class="cls-2" d="M595,396.91c0-7.62,6.58-11.43,21.5-13.06,0-4.5-1.51-8.84-7.23-8.84-4,0-7.69,1.92-10.44,3.75l-2.31-4.06c3.22-2.11,8.13-4.57,13.75-4.57,8.54,0,12.15,5.68,12.15,14.4V406h-4.89l-.5-4.18h-.2c-3.33,2.77-7.23,5-11.57,5C599.4,406.86,595,403.23,595,396.91Zm21.5.55v-9.72c-11.73,1.41-15.7,4.28-15.7,8.76,0,4,2.7,5.59,6.14,5.59S613.11,400.45,616.5,397.46Z"/>
    <path class="cls-2" d="M628.29,406.27l1.11-5.44a5.43,5.43,0,0,0,1.6.29c2.46,0,4-2.25,4.67-7.41.93-7.57,1.81-15.12,2.69-22.71h21.49v35h-5.92V375.82H643.06c-.76,6.44-1.52,12.94-2.33,19.37-1,7.79-4.11,11.67-9.26,11.67A7.81,7.81,0,0,1,628.29,406.27Z"/>
    <path class="cls-2" d="M669.09,388.54c0-11.39,7.68-18.41,15.73-18.41,8.93,0,14,6.42,14,16.43a18.69,18.69,0,0,1-.28,3.36H674.94c.43,7.42,5,12.23,11.63,12.23a15.32,15.32,0,0,0,8.71-2.8l2.12,3.88a20.53,20.53,0,0,1-11.55,3.63C676.52,406.86,669.09,400,669.09,388.54Zm24.47-2.86c0-7-3.16-10.83-8.63-10.83-4.92,0-9.32,3.95-10,10.83Z"/>
    <path class="cls-2" d="M707.4,371h5.92v14.2h16.83V371h5.92v35h-5.92V390.45H713.32V406H707.4Z"/>
    <path class="cls-2" d="M747.86,371h5.93v12.89h6.57c8.33,0,13.93,3.3,13.93,11S768.69,406,760.36,406h-12.5Zm11.89,30.28c5.89,0,8.74-2,8.74-6.46s-2.85-6.32-8.74-6.32h-6v12.78Z"/>
    <path class="cls-2" d="M783.21,371h5.93v14.4H799L812.26,406h-6.53L796,390.23h-6.87V406h-5.93ZM794.76,388l4.58-10.33c2.7-6.14,5.39-7.49,9.19-7.49a5.3,5.3,0,0,1,2.07.4l-1.05,5.55a3.13,3.13,0,0,0-1.17-.2c-1.82,0-3.27.66-5,4.81l-3.55,8.24Z"/>
    <path class="cls-2" d="M816.18,396.91c0-7.62,6.58-11.43,21.5-13.06,0-4.5-1.51-8.84-7.22-8.84-4.05,0-7.7,1.92-10.44,3.75l-2.32-4.06c3.22-2.11,8.13-4.57,13.75-4.57,8.54,0,12.15,5.68,12.15,14.4V406h-4.89l-.5-4.18H838c-3.33,2.77-7.23,5-11.57,5C820.58,406.86,816.18,403.23,816.18,396.91Zm21.5.55v-9.72C826,389.15,822,392,822,396.5c0,4,2.7,5.59,6.14,5.59S834.29,400.45,837.68,397.46Z"/>
    <path class="cls-2" d="M870.84,371h28v35h-5.92V375.82H876.76V406h-5.92Z"/>
    <path class="cls-2" d="M910.65,371h4.9l.5,4h.19c3.17-2.63,7.11-4.91,11.16-4.91,9,0,13.88,7,13.88,17.84,0,11.93-7.16,18.89-15.16,18.89-3.21,0-6.49-1.47-9.7-4.05l.16,6.11v11.85h-5.93Zm24.51,17c0-7.72-2.64-12.9-9.23-12.9-3,0-5.95,1.63-9.35,4.77v18.35c3.17,2.66,6.21,3.64,8.52,3.64C930.89,401.88,935.16,396.66,935.16,388Z"/>
    <path class="cls-2" d="M947.44,396.91c0-7.62,6.58-11.43,21.49-13.06,0-4.5-1.5-8.84-7.22-8.84-4.05,0-7.7,1.92-10.44,3.75L949,374.7c3.22-2.11,8.13-4.57,13.75-4.57,8.54,0,12.16,5.68,12.16,14.4V406H970l-.5-4.18h-.19c-3.34,2.77-7.23,5-11.58,5C951.83,406.86,947.44,403.23,947.44,396.91Zm21.49.55v-9.72c-11.72,1.41-15.69,4.28-15.69,8.76,0,4,2.7,5.59,6.13,5.59S965.54,400.45,968.93,397.46Z"/>
    <path class="cls-2" d="M985.89,371h5.93v30.17h15.68V371h5.93v35H985.89Zm26.91,35h-2.74v-4.83h8.45v3.75l-.6,13.46h-5.11Z"/>
    <path class="cls-2" d="M1034.51,389.12l4.92,1.77L1028.88,406h-6.7Zm10.57,3.08h-6.48c-6.89,0-13.73-3.1-13.73-10.82s5.91-10.38,13.75-10.38H1051v35h-5.92Zm0-4.33V375.58h-5.48c-5.49,0-8.8,1.8-8.8,5.93s3.31,6.36,8.8,6.36Z"/>
    <path class="cls-2" d="M1080.19,418.38h-5.11l-.6-13.46v-3.75h35.33v3.75l-.61,13.46h-5.1V406h-23.91Zm18.61-42.56h-11.16l-1.36,11.83c-1.48,12.94-5,16.27-8.75,17l-1.33-3.47c2-1,3.51-3.38,4.89-14.67l1.85-15.5h21.78v33.22h-5.92Z"/>
    <path class="cls-2" d="M1113.35,406.27l1.11-5.44a5.37,5.37,0,0,0,1.6.29c2.45,0,4-2.25,4.66-7.41.94-7.57,1.82-15.12,2.7-22.71h21.49v35H1139V375.82h-10.88c-.75,6.44-1.51,12.94-2.32,19.37-1,7.79-4.11,11.67-9.26,11.67A7.81,7.81,0,0,1,1113.35,406.27Z"/>
    <path class="cls-2" d="M1165.47,389.12l4.92,1.77L1159.85,406h-6.7ZM1176,392.2h-6.48c-6.88,0-13.72-3.1-13.72-10.82s5.91-10.38,13.74-10.38H1182v35H1176Zm0-4.33V375.58h-5.47c-5.49,0-8.8,1.8-8.8,5.93s3.31,6.36,8.8,6.36Z"/>
    <path class="cls-2" d="M1210,371h13.48c7.63,0,12.88,2.5,12.88,8.87,0,3.88-2.22,6.4-5.82,7.48v.25c3.93.92,7.3,3.37,7.3,8.4,0,6.94-5.72,10-13.81,10h-14Zm12.43,14.68c5.87,0,8.13-2,8.13-5.24s-2.28-5.2-7.7-5.2h-7v10.44Zm.93,16.08c5.82,0,8.63-2.22,8.63-6.13,0-3.54-3.06-5.71-9-5.71h-7.18v11.84Z"/>
    <path class="cls-2" d="M1243.93,388.54c0-11.39,7.68-18.41,15.73-18.41,8.93,0,14,6.42,14,16.43a18.69,18.69,0,0,1-.28,3.36h-23.57c.43,7.42,5,12.23,11.63,12.23a15.32,15.32,0,0,0,8.71-2.8l2.12,3.88a20.53,20.53,0,0,1-11.55,3.63C1251.36,406.86,1243.93,400,1243.93,388.54Zm24.47-2.86c0-7-3.16-10.83-8.63-10.83-4.92,0-9.32,3.95-10,10.83Z"/>
    <path class="cls-2" d="M1277.08,406.27l1.1-5.44a5.43,5.43,0,0,0,1.6.29c2.46,0,4-2.25,4.67-7.41.93-7.57,1.81-15.12,2.69-22.71h21.49v35h-5.92V375.82h-10.87c-.76,6.44-1.52,12.94-2.33,19.37-1,7.79-4.11,11.67-9.25,11.67A7.78,7.78,0,0,1,1277.08,406.27Z"/>
    <path class="cls-2" d="M1320.47,371h5.77v14.55c0,3.71-.31,8.42-.56,12.92h.26c1.31-2.16,3.37-5.35,4.65-7.49l13.23-20h5.5v35h-5.76V391.45c0-3.71.3-8.39.58-12.92h-.29c-1.31,2.16-3.33,5.38-4.62,7.49L1326,406h-5.5Z"/>
    <path class="cls-2" d="M1361.15,371h5.92v14.4h9.83l13.3,20.6h-6.53l-9.73-15.77h-6.87V406h-5.92ZM1372.69,388l4.59-10.33c2.7-6.14,5.39-7.49,9.18-7.49a5.32,5.32,0,0,1,2.08.4l-1,5.55a3.2,3.2,0,0,0-1.17-.2c-1.82,0-3.28.66-5,4.81l-3.54,8.24Z"/>
    <path class="cls-2" d="M1397,371h5.77v14.55c0,3.71-.3,8.42-.55,12.92h.26c1.31-2.16,3.36-5.35,4.64-7.49l13.24-20h5.5v35h-5.77V391.45c0-3.71.31-8.39.58-12.92h-.29c-1.3,2.16-3.33,5.38-4.61,7.49l-13.27,20H1397Z"/>
    <path class="cls-2" d="M1444.22,387.73,1433.64,371h6.42l4.68,7.68c1.08,1.92,2.27,3.9,3.43,5.83h.29c1.06-1.93,2.1-3.91,3.16-5.83l4.28-7.68h6.17l-10.59,17.35L1462.92,406h-6.42l-5.16-8.13c-1.22-2.11-2.5-4.27-3.81-6.29h-.28c-1.21,2-2.34,4.15-3.54,6.29L1439,406h-6.17Z"/>
    <path class="cls-2" d="M1480.83,406.27l1.11-5.44a5.37,5.37,0,0,0,1.6.29c2.45,0,4-2.25,4.66-7.41.94-7.57,1.82-15.12,2.7-22.71h21.49v35h-5.92V375.82h-10.88c-.75,6.44-1.51,12.94-2.32,19.37-1,7.79-4.11,11.67-9.26,11.67A7.81,7.81,0,0,1,1480.83,406.27Z"/>
    <path class="cls-2" d="M1524.23,371h5.92v14.39H1539v5.24h-8.85V406h-5.92Zm13.37,17.54c0-11.57,6.66-18.41,15.41-18.41,8.4,0,15.16,6.73,15.16,18.41s-6.76,18.32-15.16,18.32C1544.26,406.86,1537.6,400,1537.6,388.54Zm24.45,0c0-8-3.57-13.47-9.3-13.47s-9.54,5.45-9.54,13.47,3.82,13.39,9.54,13.39S1562.05,396.57,1562.05,388.54Z"/>
    <path class="cls-2" d="M1578.56,418.38h-5.1l-.61-13.46v-3.75h35.33v3.75l-.6,13.46h-5.11V406h-23.91Zm18.62-42.56H1586l-1.35,11.83c-1.48,12.94-5,16.27-8.76,17l-1.33-3.47c2-1,3.51-3.38,4.89-14.67l1.86-15.5h21.78v33.22h-5.92Z"/>
    <path class="cls-2" d="M1613.07,388.54c0-11.39,7.67-18.41,15.73-18.41,8.93,0,14,6.42,14,16.43a18.69,18.69,0,0,1-.28,3.36h-23.57c.42,7.42,5,12.23,11.63,12.23a15.32,15.32,0,0,0,8.71-2.8l2.12,3.88a20.57,20.57,0,0,1-11.56,3.63C1620.49,406.86,1613.07,400,1613.07,388.54Zm24.46-2.86c0-7-3.15-10.83-8.62-10.83-4.92,0-9.32,3.95-10,10.83Z"/>
    <path class="cls-2" d="M1651.38,371h5.76v14.55c0,3.71-.3,8.42-.55,12.92h.26c1.31-2.16,3.36-5.35,4.64-7.49l13.24-20h5.5v35h-5.76V391.45c0-3.71.3-8.39.57-12.92h-.28c-1.31,2.16-3.34,5.38-4.62,7.49l-13.26,20h-5.5Zm3.36-17.28h4.86c.15,4.09,1.64,7.52,6.41,7.52s6.26-3.43,6.41-7.52h4.86c-.28,5.59-3.19,11-11.27,11S1655,359.31,1654.74,353.72Z"/>
  </g>
  <path class="cls-2" d="M546.66,285a6.08,6.08,0,0,1-6.34-6.33V114a6.08,6.08,0,0,1,6.34-6.33h77.26q21.78,0,35.72,6.08t20.65,17.35Q687,142.37,687,157.82a36.07,36.07,0,0,1-3.42,16.09,38.63,38.63,0,0,1-8.36,11.53A37.82,37.82,0,0,1,666,192q9.63,4.56,17.1,14.95a40.56,40.56,0,0,1,7.47,24.32q0,16.71-7.47,28.75t-21.78,18.49Q647,285,626.2,285Zm39-106.9h33.18q10.39,0,15.58-5.32a18.79,18.79,0,0,0,5.2-13.68,18,18,0,0,0-5.2-13.3q-5.19-5.19-15.58-5.19H585.67Zm0,74h35.46q10.89,0,16.47-6.33a21.27,21.27,0,0,0,5.57-14.44,21,21,0,0,0-5.7-14.95q-5.7-6.08-16.34-6.08H585.67Z"/>
  <path class="cls-2" d="M764.26,287.52a50,50,0,0,1-25.71-6.58,44.69,44.69,0,0,1-17.61-19.38q-6.33-12.8-6.33-31.29V159.6a6.08,6.08,0,0,1,6.33-6.34h31.67a6.08,6.08,0,0,1,6.33,6.34v69.15q0,24.84,22.29,24.83,10.39,0,16.6-6.46t6.2-18.37V159.6a6.09,6.09,0,0,1,6.33-6.34H842a6.08,6.08,0,0,1,6.33,6.34V278.66A6.06,6.06,0,0,1,842,285H812.65a6.3,6.3,0,0,1-4.44-1.77,6,6,0,0,1-1.9-4.56V269a41.52,41.52,0,0,1-17.1,13.81Q778.7,287.52,764.26,287.52Z"/>
  <path class="cls-2" d="M932.46,287.52q-16.47,0-28-3.67t-18.74-9a41.06,41.06,0,0,1-10.77-11q-3.56-5.7-3.8-9.75a5.44,5.44,0,0,1,1.77-4.69,6.22,6.22,0,0,1,4.31-1.9h28.88a2.91,2.91,0,0,1,1.26.25,11.53,11.53,0,0,1,1.53,1,43.4,43.4,0,0,1,6.58,4.43,37.31,37.31,0,0,0,7.6,4.69,24.25,24.25,0,0,0,10.39,2,23.41,23.41,0,0,0,11.9-2.78,9.07,9.07,0,0,0,4.82-8.36,10,10,0,0,0-2.28-6.72q-2.28-2.66-9.25-5.19t-20.9-5.07a103.07,103.07,0,0,1-23-8,38.32,38.32,0,0,1-15.2-12.91q-5.32-8-5.32-19.38A33.41,33.41,0,0,1,880.79,172q6.59-9.37,19.25-15.33t31.16-6q14.68,0,25.46,3.42a65.54,65.54,0,0,1,18.24,8.74,45.46,45.46,0,0,1,11.27,10.89q3.8,5.58,4.05,10.14a5.87,5.87,0,0,1-5.57,6.33H958.3a5.78,5.78,0,0,1-2-.38,8.45,8.45,0,0,1-1.78-.89,31.8,31.8,0,0,1-6.08-4,36.31,36.31,0,0,0-7.09-4.56,22.56,22.56,0,0,0-10.13-2q-6.84,0-10.64,3a9.63,9.63,0,0,0-3.8,7.86,9.78,9.78,0,0,0,2.15,6.08q2.15,2.79,8.87,5.06a177,177,0,0,0,20.9,5.07q17.48,2.79,27.86,9t14.7,14.44a37,37,0,0,1,4.3,17.35,34.3,34.3,0,0,1-7.22,21.54q-7.22,9.38-21.4,14.56T932.46,287.52Z"/>
  <path class="cls-2" d="M1042.91,333.12a5.19,5.19,0,0,1-5.32-5.32,9.62,9.62,0,0,1,.13-1.39,6,6,0,0,1,.63-1.9l19.76-47.62-48.64-115a8.11,8.11,0,0,1-.76-3,8.42,8.42,0,0,1,2-3.93,5,5,0,0,1,3.8-1.65h28.88a6.71,6.71,0,0,1,4.94,1.65,7.85,7.85,0,0,1,2.15,3.67l29.13,73.72,29.64-73.72a14.16,14.16,0,0,1,2.66-3.67,6.71,6.71,0,0,1,4.94-1.65h28.38a5.36,5.36,0,0,1,3.92,1.65,5.08,5.08,0,0,1,1.65,3.67,10.09,10.09,0,0,1-.76,3.3L1078.38,327.8a9.73,9.73,0,0,1-2.54,3.68,7.2,7.2,0,0,1-5.06,1.64Z"/>
  <path class="cls-2" d="M1232.65,285a6.08,6.08,0,0,1-6.34-6.33V114a6.08,6.08,0,0,1,6.34-6.33h77.26q21.78,0,35.72,6.08t20.65,17.35q6.71,11.27,6.71,26.72a36.07,36.07,0,0,1-3.42,16.09,38.63,38.63,0,0,1-8.36,11.53A37.82,37.82,0,0,1,1352,192q9.63,4.56,17.1,14.95a40.56,40.56,0,0,1,7.47,24.32q0,16.71-7.47,28.75t-21.78,18.49Q1333,285,1312.19,285Zm39-106.9h33.18q10.4,0,15.58-5.32a18.79,18.79,0,0,0,5.2-13.68,18,18,0,0,0-5.2-13.3q-5.19-5.19-15.58-5.19h-33.18Zm0,74h35.46q10.89,0,16.47-6.33a21.27,21.27,0,0,0,5.57-14.44,21,21,0,0,0-5.7-14.95q-5.7-6.08-16.34-6.08h-35.46Z"/>
  <path class="cls-2" d="M1462.66,287.52q-29.9,0-47.62-16.21t-18.49-48.13v-8.87q.75-20,9-34.32a54.54,54.54,0,0,1,22.8-21.79q14.57-7.47,34.07-7.47,22.29,0,36.86,8.87a56.37,56.37,0,0,1,21.91,24.06q7.35,15.21,7.35,34.71v6.08a6,6,0,0,1-1.9,4.56,6.32,6.32,0,0,1-4.44,1.77h-81.06v1.77a42.19,42.19,0,0,0,2.53,13.43,20.68,20.68,0,0,0,7.1,9.63,19.1,19.1,0,0,0,11.65,3.54,19.47,19.47,0,0,0,8.49-1.64,22.55,22.55,0,0,0,5.7-3.8,43.17,43.17,0,0,0,3.54-3.68,13.31,13.31,0,0,1,3.68-3.16,11.39,11.39,0,0,1,4.43-.64h31.41a6.25,6.25,0,0,1,4.18,1.4,4.25,4.25,0,0,1,1.39,3.92q-.26,4.32-4.3,10.39a52.38,52.38,0,0,1-11.78,12,64.28,64.28,0,0,1-19.38,9.76Q1478.12,287.52,1462.66,287.52Zm-21.53-81.82h42.81v-.5a38.48,38.48,0,0,0-2.4-14.19,19.59,19.59,0,0,0-7.35-9.37,20.7,20.7,0,0,0-11.78-3.3,19.54,19.54,0,0,0-11.53,3.3,21,21,0,0,0-7.22,9.37,36.65,36.65,0,0,0-2.53,14.19Z"/>
  <path class="cls-2" d="M1613.14,287.52q-29.9,0-47.63-16.21T1547,223.18v-8.87q.76-20,9-34.32a54.6,54.6,0,0,1,22.8-21.79q14.57-7.47,34.07-7.47,22.29,0,36.86,8.87a56.37,56.37,0,0,1,21.91,24.06q7.35,15.21,7.35,34.71v6.08a5.94,5.94,0,0,1-1.9,4.56,6.31,6.31,0,0,1-4.43,1.77H1591.6v1.77a42.19,42.19,0,0,0,2.54,13.43,20.66,20.66,0,0,0,7.09,9.63,19.12,19.12,0,0,0,11.65,3.54,19.47,19.47,0,0,0,8.49-1.64,22.55,22.55,0,0,0,5.7-3.8,45.18,45.18,0,0,0,3.55-3.68,13.16,13.16,0,0,1,3.67-3.16,11.42,11.42,0,0,1,4.43-.64h31.41a6.25,6.25,0,0,1,4.18,1.4,4.27,4.27,0,0,1,1.4,3.92q-.26,4.32-4.31,10.39a52.17,52.17,0,0,1-11.78,12,64.16,64.16,0,0,1-19.38,9.76Q1628.59,287.52,1613.14,287.52ZM1591.6,205.7h42.82v-.5A38.48,38.48,0,0,0,1632,191a19.59,19.59,0,0,0-7.35-9.37,20.7,20.7,0,0,0-11.78-3.3,19.49,19.49,0,0,0-11.52,3.3,20.82,20.82,0,0,0-7.22,9.37,36.65,36.65,0,0,0-2.54,14.19Z"/>
</svg>
